/* XPM */
static char * check_xpm[] = {
"16 16 52 1",
" 	c None",
".	c #343434",
"+	c #2F2E2F",
"@	c #F3F2F3",
"#	c #323132",
"$	c #F2F2F2",
"%	c #676367",
"&	c #C8C8C8",
"*	c #EDEDED",
"=	c #2F2F2F",
"-	c #E8E8E8",
";	c #434243",
">	c #A4A2A8",
",	c #201F20",
"'	c #A4A2A4",
")	c #E2E1E2",
"!	c #3B3A3B",
"~	c #545454",
"{	c #E7E6E7",
"]	c #EFEEEF",
"^	c #232220",
"/	c #918F91",
"(	c #252425",
"_	c #1C1B1C",
":	c #8A898C",
"<	c #E7E7E8",
"[	c #EFEFEF",
"}	c #3E3D3E",
"|	c #0F0F0F",
"1	c #4F4E4F",
"2	c #8F8C8F",
"3	c #EEEEEE",
"4	c #E3E3E3",
"5	c #3D3C3D",
"6	c #413F41",
"7	c #D5D4D5",
"8	c #E8E7E8",
"9	c #E1DFE1",
"0	c #F3F3F3",
"a	c #8C898C",
"b	c #565456",
"c	c #7C7A7D",
"d	c #F1F0F1",
"e	c #656365",
"f	c #010101",
"g	c #131313",
"h	c #4D4B4D",
"i	c #646164",
"j	c #000000",
"k	c #313031",
"l	c #EEEDEE",
"m	c #686468",
"               .",
"              +@",
"             #$%",
"        &&  #@% ",
"       &**&+@%  ",
"      =-***&;   ",
"     &>,-***&   ",
"    &**',-**)!  ",
"   ~{**]'^-)/(  ",
"   _:<*[]',/}   ",
"   |12<3*45}    ",
"    67:89/(     ",
"   #0abc2}      ",
"  +defgh6       ",
" #@i   j        ",
"klm             "};
