/* XPM */
static const char * Cvideo_xpm[] = {
"16 16 241 2",
"  	c None",
". 	c #D3D9D9",
"+ 	c #C1CBCA",
"@ 	c #BEC9C8",
"# 	c #BEC8C9",
"$ 	c #BDC8C6",
"% 	c #BCC7C7",
"& 	c #BBC6C7",
"* 	c #BBC6C6",
"= 	c #BAC5C5",
"- 	c #BAC4C3",
"; 	c #B9C4C2",
"> 	c #B8C2C1",
", 	c #BBC5C4",
"' 	c #C9D2D1",
") 	c #DDE0E0",
"! 	c #899897",
"~ 	c #657676",
"{ 	c #6A7B7C",
"] 	c #67787B",
"^ 	c #67797B",
"/ 	c #677979",
"( 	c #677777",
"_ 	c #667676",
": 	c #667576",
"< 	c #657476",
"[ 	c #657475",
"} 	c #637474",
"| 	c #627474",
"1 	c #667878",
"2 	c #899B9A",
"3 	c #C4D0CE",
"4 	c #687878",
"5 	c #526364",
"6 	c #A1B2BF",
"7 	c #7C8A9A",
"8 	c #AFBEC8",
"9 	c #C6D7D8",
"0 	c #C8D7D7",
"a 	c #C9D9D8",
"b 	c #C8D9D8",
"c 	c #C8D8D8",
"d 	c #C7D8D8",
"e 	c #C6D7DA",
"f 	c #ADBDC2",
"g 	c #697B7B",
"h 	c #B8C4C3",
"i 	c #667777",
"j 	c #526363",
"k 	c #686E8A",
"l 	c #3E4353",
"m 	c #AAB1C2",
"n 	c #BEB5BD",
"o 	c #BAB3C8",
"p 	c #D3D6EB",
"q 	c #E1E8EE",
"r 	c #D6D7E2",
"s 	c #C3BFDD",
"t 	c #C3BED3",
"u 	c #AB9CBE",
"v 	c #9E8EA1",
"w 	c #667677",
"x 	c #B7C2C2",
"y 	c #657576",
"z 	c #526262",
"A 	c #393937",
"B 	c #181A1E",
"C 	c #363643",
"D 	c #4B3F49",
"E 	c #544969",
"F 	c #8079AB",
"G 	c #9D90AB",
"H 	c #796F93",
"I 	c #7D7B96",
"J 	c #A19271",
"K 	c #92754B",
"L 	c #927964",
"M 	c #667675",
"N 	c #B7C2C1",
"O 	c #637373",
"P 	c #536362",
"Q 	c #303431",
"R 	c #221F1C",
"S 	c #242428",
"T 	c #4E4845",
"U 	c #63595B",
"V 	c #6E6386",
"W 	c #7F7582",
"X 	c #5F5A50",
"Y 	c #897331",
"Z 	c #AD8537",
"` 	c #9D7927",
" .	c #857447",
"..	c #657674",
"+.	c #627271",
"@.	c #546566",
"#.	c #2F3B41",
"$.	c #121519",
"%.	c #222126",
"&.	c #4B403B",
"*.	c #605251",
"=.	c #585676",
"-.	c #968857",
";.	c #AA720E",
">.	c #AD620B",
",.	c #9E5510",
"'.	c #8E7812",
").	c #879927",
"!.	c #647671",
"~.	c #B2BEBD",
"{.	c #617170",
"].	c #556564",
"^.	c #333E3E",
"/.	c #1B202F",
"(.	c #465081",
"_.	c #6E6C93",
":.	c #736B86",
"<.	c #6E76A2",
"[.	c #7D6B60",
"}.	c #A06919",
"|.	c #9E6F16",
"1.	c #A28715",
"2.	c #93950F",
"3.	c #879C23",
"4.	c #637570",
"5.	c #ABB7B6",
"6.	c #5A6969",
"7.	c #5A6D5D",
"8.	c #5E703F",
"9.	c #718448",
"0.	c #819944",
"a.	c #86972C",
"b.	c #889D20",
"c.	c #82950F",
"d.	c #86A208",
"e.	c #85A309",
"f.	c #80A009",
"g.	c #7E9F0A",
"h.	c #728E23",
"i.	c #60726E",
"j.	c #A4B2B0",
"k.	c #637372",
"l.	c #586865",
"m.	c #71854F",
"n.	c #6F863B",
"o.	c #718939",
"p.	c #6F8837",
"q.	c #6F8938",
"r.	c #738C38",
"s.	c #728A39",
"t.	c #6F8836",
"u.	c #6F8936",
"v.	c #708A35",
"w.	c #6D8835",
"x.	c #677F45",
"y.	c #5E6F6D",
"z.	c #9CAAAA",
"A.	c #4B5A5A",
"B.	c #4A5958",
"C.	c #4B5958",
"D.	c #485756",
"E.	c #485655",
"F.	c #5B6667",
"G.	c #5A6766",
"H.	c #495756",
"I.	c #4A5957",
"J.	c #485858",
"K.	c #556565",
"L.	c #92A2A1",
"M.	c #647473",
"N.	c #4C5C5C",
"O.	c #4F5E5E",
"P.	c #697A7A",
"Q.	c #728383",
"R.	c #7C8D8C",
"S.	c #7E8F8E",
"T.	c #7D8F8D",
"U.	c #7B8C8B",
"V.	c #738484",
"W.	c #4E5E5E",
"X.	c #556665",
"Y.	c #8C9D9C",
"Z.	c #7C8E8D",
"`.	c #768888",
" +	c #788989",
".+	c #7B8D8D",
"++	c #7C8F8E",
"@+	c #7D908F",
"#+	c #7D908E",
"$+	c #809392",
"%+	c #7F9391",
"&+	c #7A8C8C",
"*+	c #778888",
"=+	c #7B8D8C",
"-+	c #8E9F9F",
";+	c #728584",
">+	c #718382",
",+	c #6D7F7E",
"'+	c #6C7E7D",
")+	c #6B7D7C",
"!+	c #818E8E",
"~+	c #7F8E8D",
"{+	c #99ABA9",
"]+	c #97A8A7",
"^+	c #728483",
"/+	c #6F817A",
"(+	c #758680",
"_+	c #778989",
":+	c #708282",
"<+	c #849595",
"[+	c #5D6E6D",
"}+	c #4A5858",
"|+	c #485656",
"1+	c #475555",
"2+	c #465354",
"3+	c #2E3738",
"4+	c #465252",
"5+	c #5D6C6B",
"6+	c #60706F",
"7+	c #667776",
"8+	c #4E5E5D",
"9+	c #4F5E59",
"0+	c #5B6A65",
"a+	c #526263",
"b+	c #576868",
"c+	c #7A8A89",
"d+	c #3E4949",
"e+	c #3D494A",
"f+	c #3E4A4B",
"g+	c #3D4A4B",
"h+	c #3C4849",
"i+	c #3C4949",
"j+	c #3D4B4B",
"k+	c #3C4B4A",
"l+	c #3E4C4C",
"m+	c #3F4C4D",
"n+	c #414E4F",
"o+	c #425050",
"p+	c #415050",
"q+	c #424D4F",
"r+	c #424C4D",
". + @ @ # $ % & * = - ; > , ' ) ",
"! ~ { ] ^ / ( _ : < [ } | 1 2 3 ",
"4 5 6 7 8 9 0 a a b c d e f g h ",
"i j k l m n o p q r s t u v w x ",
"y z A B C D E F G H I J K L M N ",
"O P Q R S T U V W X Y Z `  ...N ",
"+.@.#.$.%.&.*.=.-.;.>.,.'.).!.~.",
"{.].^./.(._.:.<.[.}.|.1.2.3.4.5.",
"+.6.7.8.9.0.a.b.c.d.e.f.g.h.i.j.",
"k.l.m.n.o.p.q.r.s.t.u.v.w.x.y.z.",
"+.A.B.C.D.E.C.F.G.C.E.H.I.J.K.L.",
"M.N.O.P.( Q.R.S.T.U.V.i P.W.X.Y.",
"Z.`. +.+.+++@+#+$+%+++.+&+*+=+-+",
";+>+,+'+)+k.!+~+{+]+^+/+(+_+:+<+",
"[+}+|+1+2+3+4+5+6+7+8+9+0+a+b+c+",
"d+e+f+g+g+h+i+j+k+l+m+n+o+p+q+r+"};
