/* XPM */
static char * eye_xpm[] = {
"22 14 155 2",
"  	c None",
". 	c #171817",
"+ 	c #1C1F18",
"@ 	c #1A1F19",
"# 	c #1B1D19",
"$ 	c #1C1F17",
"% 	c #232622",
"& 	c #1A1A1A",
"* 	c #1B1B1B",
"= 	c #1F211D",
"- 	c #262C28",
"; 	c #2E3633",
"> 	c #363E3A",
", 	c #3A453D",
"' 	c #313C39",
") 	c #303534",
"! 	c #2A2C28",
"~ 	c #1C1C1B",
"{ 	c #181818",
"] 	c #161616",
"^ 	c #1C1C1C",
"/ 	c #505150",
"( 	c #556158",
"_ 	c #405058",
": 	c #4E6269",
"< 	c #56696D",
"[ 	c #566166",
"} 	c #576E6F",
"| 	c #576269",
"1 	c #515656",
"2 	c #4E4F50",
"3 	c #454545",
"4 	c #202020",
"5 	c #848484",
"6 	c #C8CAC9",
"7 	c #717F88",
"8 	c #354471",
"9 	c #4A6172",
"0 	c #4F6060",
"a 	c #50565A",
"b 	c #637177",
"c 	c #5E6782",
"d 	c #4D536E",
"e 	c #686C7D",
"f 	c #C9C9C9",
"g 	c #7D7D7D",
"h 	c #232323",
"i 	c #171717",
"j 	c #212121",
"k 	c #959595",
"l 	c #EFEFEF",
"m 	c #EEF0F1",
"n 	c #606F8F",
"o 	c #273E83",
"p 	c #475F78",
"q 	c #455552",
"r 	c #4B4952",
"s 	c #A0A2B2",
"t 	c #8991B9",
"u 	c #404274",
"v 	c #53527F",
"w 	c #FAFAFB",
"x 	c #ECECEC",
"y 	c #AAAAAA",
"z 	c #313131",
"A 	c #8C8C8C",
"B 	c #F4F4F4",
"C 	c #FFFFFF",
"D 	c #EFF0F2",
"E 	c #667594",
"F 	c #223E85",
"G 	c #3D5B74",
"H 	c #3A4C51",
"I 	c #4A4154",
"J 	c #7A6E9A",
"K 	c #6A76A7",
"L 	c #3B3E76",
"M 	c #4D4582",
"N 	c #FBFBFC",
"O 	c #FAFAFA",
"P 	c #C6C6C6",
"Q 	c #383838",
"R 	c #3F3F3F",
"S 	c #F2F2F2",
"T 	c #F4F5F5",
"U 	c #7B849C",
"V 	c #293881",
"W 	c #263E86",
"X 	c #3C4F5C",
"Y 	c #3F4546",
"Z 	c #35405F",
"` 	c #324688",
" .	c #102490",
"..	c #45469C",
"+.	c #FDFDFD",
"@.	c #A7A7A7",
"#.	c #898989",
"$.	c #DCDCDC",
"%.	c #FEFEFE",
"&.	c #B1B6C1",
"*.	c #3A4888",
"=.	c #1B229D",
"-.	c #456B79",
";.	c #496D63",
">.	c #455D82",
",.	c #283F96",
"'.	c #0F239A",
").	c #8A89BE",
"!.	c #F0F0F0",
"~.	c #ADADAD",
"{.	c #353535",
"].	c #575757",
"^.	c #B4B4B4",
"/.	c #E9E9E9",
"(.	c #E9EAEC",
"_.	c #67799E",
":.	c #324797",
"<.	c #49668C",
"[.	c #51758A",
"}.	c #3E5B91",
"|.	c #284198",
"1.	c #4153A0",
"2.	c #D1D3E4",
"3.	c #FCFCFC",
"4.	c #D3D3D3",
"5.	c #868686",
"6.	c #252525",
"7.	c #2D2D2D",
"8.	c #6F6F6F",
"9.	c #A6A6A6",
"0.	c #929BA6",
"a.	c #566A8F",
"b.	c #46558F",
"c.	c #47608F",
"d.	c #3A5594",
"e.	c #465697",
"f.	c #A0A7C0",
"g.	c #C2C3C5",
"h.	c #949494",
"i.	c #515151",
"j.	c #2B2B2B",
"k.	c #454647",
"l.	c #333B43",
"m.	c #323C4A",
"n.	c #3C4854",
"o.	c #38435C",
"p.	c #3A3F54",
"q.	c #5A5B5D",
"r.	c #1D1D1D",
"s.	c #1B1C1B",
"t.	c #1A1B19",
"u.	c #1E1F1D",
"v.	c #1E1F1F",
"w.	c #282828",
"x.	c #2A2A2A",
"                                            ",
"              . + @ # $ % &                 ",
"          * = - ; > , ' ) ! ~ {             ",
"      ] ^ / ( _ : < [ } | 1 2 3 * ]         ",
"    ] 4 5 6 7 8 9 0 a b c d e f g h i       ",
"  ] j k l m n o p q r s t u v w x y z {     ",
"  & A B C D E F G H I J K L M N C O P Q i   ",
"] R S C C T U V W X Y Z `  ...+.C C O @.^   ",
"] ^ #.$.+.%.&.*.=.-.;.>.,.'.).C C !.~.{.]   ",
"    & ].^./.(._.:.<.[.}.|.1.2.3.4.5.6.{     ",
"    & { 7.8.9.0.a.b.c.d.e.f.g.h.i.* i       ",
"          { j.k.l.m.n.o.p.q.3 j {           ",
"              r.s.t.u.v.^ w.x.              ",
"                                            "};
