/* XPM */
static char * eye_grey_xpm[] = {
"22 14 42 1",
" 	g None",
".	g #DFDFDF",
"+	g #E0E0E0",
"@	g #E1E1E1",
"#	g #E3E3E3",
"$	g #E2E2E2",
"%	g #EBEBEB",
"&	g #E7E7E7",
"*	g #E4E4E4",
"=	g #EAEAEA",
"-	g #F2F2F2",
";	g #FCFCFC",
">	g #E8E8E8",
",	g #DCDCDC",
"'	g #DDDDDD",
")	g #DBDBDB",
"!	g #E5E5E5",
"~	g #E6E6E6",
"{	g #FBFBFB",
"]	g #F1F1F1",
"^	g #F4F4F4",
"/	g #FEFEFE",
"(	g #DEDEDE",
"_	g #D7D7D7",
":	g #D6D6D6",
"<	g #F5F5F5",
"[	g #FFFFFF",
"}	g #F8F8F8",
"|	g #D2D2D2",
"1	g #D4D4D4",
"2	g #ECECEC",
"3	g #F0F0F0",
"4	g #FAFAFA",
"5	g #E9E9E9",
"6	g #EDEDED",
"7	g #D0D0D0",
"8	g #D5D5D5",
"9	g #F9F9F9",
"0	g #F3F3F3",
"a	g #F7F7F7",
"b	g #EEEEEE",
"c	g #F6F6F6",
"                      ",
"       .+@++#+        ",
"     +@@.@$@@$++      ",
"   .@%&.+@+$#*&=@.    ",
"  .@-;>,+')!>+~{]#.   ",
" .$^//>(@_:<^(+[/}~+  ",
" +</[/='(|123'([[[4&. ",
".5/[[[6((:78@,*[[[[9+.",
".@^;[[<##$.##.0[[/a~. ",
" .+2}//2!&>~#&{[;0#.  ",
"   .!bca=&&~>a;0%@.   ",
"    ..*5!!&&&%5$+     ",
"       @@+@@@**       ",
"                      "};
