/* XPM */
static char * IconFilters_xpm[] = {
"22 22 168 2",
"  	c None",
". 	c #7B7A7A",
"+ 	c #252423",
"@ 	c #1A1917",
"# 	c #C0BEBB",
"$ 	c #D2D0CA",
"% 	c #7F7D78",
"& 	c #A3A5A7",
"* 	c #757472",
"= 	c #000000",
"- 	c #7B7974",
"; 	c #CECCC5",
"> 	c #64635E",
", 	c #B9BCBD",
"' 	c #D9D8D5",
") 	c #D0CECA",
"! 	c #313437",
"~ 	c #454340",
"{ 	c #E2E0DA",
"] 	c #5D5C58",
"^ 	c #BEC1C4",
"/ 	c #E1E1DF",
"( 	c #E6E5E3",
"_ 	c #9A9990",
": 	c #E2E0DE",
"< 	c #403F3E",
"[ 	c #302E2D",
"} 	c #D1CFCB",
"| 	c #B7B3AB",
"1 	c #42413E",
"2 	c #EFEFEE",
"3 	c #E2E2DF",
"4 	c #BFBEB6",
"5 	c #1E2123",
"6 	c #9A9897",
"7 	c #D5D3D0",
"8 	c #888784",
"9 	c #ECECE8",
"0 	c #D7D3CB",
"a 	c #ADA9A3",
"b 	c #95948E",
"c 	c #4F4D48",
"d 	c #5C5C5A",
"e 	c #EFECE3",
"f 	c #C3C0B5",
"g 	c #2E322F",
"h 	c #90908E",
"i 	c #F2F1EE",
"j 	c #D2CEC8",
"k 	c #6D6961",
"l 	c #807D78",
"m 	c #D3CFC5",
"n 	c #D1CEC5",
"o 	c #C6C3BC",
"p 	c #514F4A",
"q 	c #3F3E3E",
"r 	c #D8D7D3",
"s 	c #615F58",
"t 	c #0E0E0D",
"u 	c #0F0F0E",
"v 	c #56524D",
"w 	c #D2CFC8",
"x 	c #D6D2C9",
"y 	c #D1CCC4",
"z 	c #BBB9B1",
"A 	c #75746F",
"B 	c #3B3B38",
"C 	c #A49F98",
"D 	c #E6E2DC",
"E 	c #D0CBC1",
"F 	c #D3CFC6",
"G 	c #BCBAB2",
"H 	c #54524D",
"I 	c #0B0B0B",
"J 	c #5C5A55",
"K 	c #D2D0C9",
"L 	c #E2E0D8",
"M 	c #CECAC0",
"N 	c #D5D1CA",
"O 	c #B8B5AD",
"P 	c #3D3C38",
"Q 	c #030303",
"R 	c #6B6A67",
"S 	c #5E5B53",
"T 	c #181716",
"U 	c #928E89",
"V 	c #E6E4DE",
"W 	c #DEDBD3",
"X 	c #CBC6BC",
"Y 	c #D3D0C8",
"Z 	c #95928B",
"` 	c #31302A",
" .	c #40464C",
"..	c #8E9DAB",
"+.	c #7C8D9A",
"@.	c #464A4A",
"#.	c #33312E",
"$.	c #363532",
"%.	c #BAB6B0",
"&.	c #EDEAE5",
"*.	c #D4D0C7",
"=.	c #C9C5BA",
"-.	c #DAD7CF",
";.	c #928F89",
">.	c #12110C",
",.	c #757E85",
"'.	c #7E91A0",
").	c #74899B",
"!.	c #6C869C",
"~.	c #24425D",
"{.	c #625F5C",
"].	c #D5D2CC",
"^.	c #A5A299",
"/.	c #535048",
"(.	c #848380",
"_.	c #77848E",
":.	c #697F91",
"<.	c #7E98AD",
"[.	c #9BAEBE",
"}.	c #2F4C66",
"|.	c #08233F",
"1.	c #1B1A17",
"2.	c #84817C",
"3.	c #B6B2AC",
"4.	c #C2C1BE",
"5.	c #73716C",
"6.	c #7D8B97",
"7.	c #697E90",
"8.	c #7E98AC",
"9.	c #92A8BA",
"0.	c #3F5870",
"a.	c #162C41",
"b.	c #24282F",
"c.	c #34322F",
"d.	c #060504",
"e.	c #879097",
"f.	c #6E8192",
"g.	c #829BB2",
"h.	c #8AA3B7",
"i.	c #5B748A",
"j.	c #092438",
"k.	c #3F494E",
"l.	c #0C0C08",
"m.	c #52575D",
"n.	c #9CACBA",
"o.	c #90A4B5",
"p.	c #A1B4C6",
"q.	c #698298",
"r.	c #092237",
"s.	c #323F4B",
"t.	c #1B1D20",
"u.	c #747E87",
"v.	c #ACBDCC",
"w.	c #B8C6D2",
"x.	c #6E869B",
"y.	c #12293D",
"z.	c #31414D",
"A.	c #191D1F",
"B.	c #626F7D",
"C.	c #798EA1",
"D.	c #677E90",
"E.	c #465864",
"F.	c #2A3B46",
"G.	c #1E2224",
"H.	c #384C5C",
"I.	c #5C6E75",
"J.	c #3D4746",
"K.	c #1A1D1E",
"                                            ",
"        . +                                 ",
"      @ # $ %                   & *         ",
"        = - ; >               , ' ) !       ",
"          ~ { ]             ^ / ( _         ",
"  : <   [ } | 1             2 3 4 5         ",
"  6 7 8 9 0 a b c         d e f g           ",
"    h i j k l m n o p   q r s               ",
"      t u = = v w x y z A B                 ",
"                @ C D E F G H               ",
"                  I J K L M N O P           ",
"                Q R S T U V W X Y Z `       ",
"             ...+.@.#.    $.%.&.*.=.-.;.>.  ",
"          ,.'.).!.~.=       = {.].V ^./.(.  ",
"        _.:.<.[.}.|.            1.2.3.4.5.  ",
"      6.7.8.9.0.a.b.                c.p d.  ",
"    e.f.g.h.i.j.k.l.                        ",
"  m.n.o.p.q.r.s.t.                          ",
"  u.v.w.x.y.z.A.                            ",
"  B.C.D.E.F.G.                              ",
"    H.I.J.K.                                ",
"                                            "};
