/* XPM */
static char *IconeDelArea[] = {
/* columns rows colors chars-per-pixel */
"22 22 66 1",
"  c #00000000",
". c #08040500",
"X c #08070800",
"o c #0C0C0C00",
"O c #15151500",
"+ c #30201200",
"@ c #36202200",
"# c #3E363600",
"$ c #41333200",
"% c #513F4200",
"& c #4D4B3F00",
"* c #474B5200",
"= c #4F4D5300",
"- c #4B524D00",
"; c #4E515B00",
": c #4E585A00",
"> c #52404300",
", c #584E4400",
"< c #5C4E4800",
"1 c #524D5800",
"2 c #5C535D00",
"3 c #63534D00",
"4 c #655D5900",
"5 c #685F5300",
"6 c #6F5B5F00",
"7 c #60556000",
"8 c #62596400",
"9 c #715C6400",
"0 c #62615D00",
"q c #6C635C00",
"w c #72695C00",
"e c #66636E00",
"r c #6F676500",
"t c #6B636900",
"y c #6F686000",
"u c #6C6C6E00",
"i c #6E6A7200",
"p c #6E6F7800",
"a c #786F6700",
"s c #756F7C00",
"d c #7F6B7000",
"f c #74727600",
"g c #75717C00",
"h c #7E737900",
"j c #887E8800",
"k c #84806E00",
"l c #ABABAC00",
"z c #ADAEB000",
"x c #AFB1AE00",
"c c #AEB1B100",
"v c #B1AAA700",
"b c #B1ADAC00",
"n c #B1AEB100",
"m c #B3B0AD00",
"M c #B4B2B300",
"N c #B5B5B800",
"B c #BCB3B400",
"V c #B8B6B900",
"C c #BABABC00",
"Z c #BDBEC000",
"A c #BDC0C100",
"S c #C0B4B400",
"D c #C0BCBF00",
"F c #C0C0C000",
"G c gray100",
"H c None",
/* pixels */
"HHHHHHHHHHHHHHHHHHHHHH",
"H                    H",
"H VbMCAzbbbbbMbbxmbl H",
"H MvMxxzMVMMbmvlvMlb H",
"H vvmVxllxxmbMMMbMbb H",
"H bvmMxllCzmbbCMbMbM H",
"H Mlm4::--&3<>*08wlb H",
"H CZBw5qyqrttah=8kNN H",
"H NNcuifepeqei4,2;Nc H",
"H CVVs9jhd4$6ee3>;NN H",
"H ZMV7@XX.   OOX XoO H",
"H zMM8. ...+OOO#X.o  H",
"H nMM1X.GGGGGGGGGGGo H",
"H VMNgXXGGGGGGGGGGGo H",
"H NVVVoOGGGGGGGGGGGo H",
"H NNVCo o    OOX  o  H",
"H VNNNioo  .OOOX .ooXH",
"H MCMMMMNnMVCzllCczz.H",
"H MMDBBSDDMMZCMzzzzc H",
"H MnnbSSSnMMbNZZZNNZ H",
"H                    H",
"HHHHHHHHHHHHHHHHHHHHHH"
};
