/* XPM */
static char * IconExport_xpm[] = {
"22 22 152 2",
"  	c None",
". 	c #06080B",
"+ 	c #252E42",
"@ 	c #222B43",
"# 	c #202841",
"$ 	c #0B0E18",
"% 	c #323232",
"& 	c #373737",
"* 	c #353535",
"= 	c #313131",
"- 	c #0E1019",
"; 	c #272E42",
"> 	c #212738",
", 	c #0C0E16",
"' 	c #181F2B",
") 	c #93B6FF",
"! 	c #88A8FF",
"~ 	c #7F9CF9",
"{ 	c #2C365C",
"] 	c #C0C0C0",
"^ 	c #CCCCCC",
"/ 	c #606060",
"( 	c #595959",
"_ 	c #999999",
": 	c #343D5B",
"< 	c #90A7EE",
"[ 	c #798CC5",
"} 	c #2B334B",
"| 	c #19202B",
"1 	c #90B3FD",
"2 	c #7B99F4",
"3 	c #6C87E8",
"4 	c #263057",
"5 	c #B9B9B9",
"6 	c #C2C2C2",
"7 	c #B7B7B7",
"8 	c #0C0C0C",
"9 	c #000000",
"0 	c #767676",
"a 	c #283151",
"b 	c #687FD1",
"c 	c #5A6CAD",
"d 	c #1D2541",
"e 	c #191F2B",
"f 	c #86A6F8",
"g 	c #728DED",
"h 	c #4B64CB",
"i 	c #19234C",
"j 	c #B8B8B8",
"k 	c #C1C1C1",
"l 	c #6D6D6D",
"m 	c #1B2342",
"n 	c #465AAB",
"o 	c #344699",
"p 	c #141C3D",
"q 	c #84A3F7",
"r 	c #6E89E9",
"s 	c #415AC4",
"t 	c #B4B4B4",
"u 	c #BDBDBD",
"v 	c #B3B3B3",
"w 	c #1D1D1D",
"x 	c #131313",
"y 	c #707070",
"z 	c #182249",
"A 	c #3F57BE",
"B 	c #35499F",
"C 	c #181E2B",
"D 	c #83A2F7",
"E 	c #6981DB",
"F 	c #565656",
"G 	c #4E4E4E",
"H 	c #161B2B",
"I 	c #7B98F7",
"J 	c #1A254E",
"K 	c #0E1C29",
"L 	c #23316B",
"M 	c #314493",
"N 	c #374CA6",
"O 	c #34489D",
"P 	c #0C0F1A",
"Q 	c #4A5C9A",
"R 	c #415088",
"S 	c #0A2418",
"T 	c #14BC00",
"U 	c #031B00",
"V 	c #2F4290",
"W 	c #063500",
"X 	c #13AF00",
"Y 	c #13B700",
"Z 	c #15F100",
"` 	c #07AB00",
" .	c #060812",
"..	c #2F418E",
"+.	c #151C3E",
"@.	c #084C00",
"#.	c #1AFA00",
"$.	c #14F100",
"%.	c #11EE00",
"&.	c #09DC00",
"*.	c #07D800",
"=.	c #05A400",
"-.	c #001500",
";.	c #3A51B0",
">.	c #19EF00",
",.	c #09D900",
"'.	c #29C624",
").	c #07D600",
"!.	c #04B300",
"~.	c #014400",
"{.	c #084A00",
"].	c #18E600",
"^.	c #09D000",
"/.	c #07CF00",
"(.	c #07D300",
"_.	c #07CA00",
":.	c #04B200",
"<.	c #025800",
"[.	c #09111D",
"}.	c #3C53B5",
"|.	c #031C00",
"1.	c #095800",
"2.	c #045000",
"3.	c #034F00",
"4.	c #035E00",
"5.	c #04A200",
"6.	c #016200",
"7.	c #0A0F21",
"8.	c #354AA1",
"9.	c #101322",
"0.	c #637BCF",
"a.	c #6178CC",
"b.	c #0C1C22",
"c.	c #015400",
"d.	c #081119",
"e.	c #3B52B3",
"f.	c #131728",
"g.	c #718CEC",
"h.	c #6A84DE",
"i.	c #2C396F",
"j.	c #1D2959",
"k.	c #324598",
"l.	c #3C52B4",
"m.	c #3B52B4",
"n.	c #304390",
"o.	c #131A39",
"p.	c #4B5D9D",
"q.	c #485A98",
"r.	c #324180",
"s.	c #29397C",
"t.	c #223067",
"u.	c #0F152D",
"                                            ",
"                                            ",
"    . + @ # $ % & * * * * * = - ; > ,       ",
"    ' ) ! ~ { ] ^ ] ] ] / ( _ : < [ }       ",
"    | 1 2 3 4 5 6 7 7 7 8 9 0 a b c d       ",
"    e f g h i j k 7 7 7 8 9 l m n o p       ",
"    ' q r s i t u v v v w x y z A B p       ",
"    C D E s i F ( F F F F F G i s B p       ",
"    H I E J K L M M M M M M M N s O p       ",
"    P Q R S T U V s s s s s s s s O p       ",
"  W X X X Y Z `  ...s s s s s s s O +.      ",
"  @.#.$.%.&.*.*.=.-.;.s s s s s s O +.      ",
"  @.>.,.*.'.'.).!.~.;.s s s s s s O +.      ",
"  {.].^./.(._.:.<.[.}.s s s s s s O +.      ",
"  |.1.2.3.4.5.6.7.8.s s s s s s s O +.      ",
"    9.0.a.b.c.d.e.s s s s s s s s O +.      ",
"    f.g.h.i.j.k.l.l.l.l.l.l.m.m.m.n.o.      ",
"    P p.q.r.s.s.s.s.s.s.s.s.s.s.s.t.u.      ",
"    9 9 9 9 9 9 9 9 9 9 9 9 9 9 9 9 9       ",
"                                            ",
"                                            ",
"                                            "};
