/* XPM */
static char * IconRecordPause_xpm[] = {
"22 22 97 2",
"  	c None",
". 	c #7C0505",
"+ 	c #820909",
"@ 	c #8E0A0A",
"# 	c #990D0D",
"$ 	c #980B0B",
"% 	c #8D0808",
"& 	c #810707",
"* 	c #7C0404",
"= 	c #7C0808",
"- 	c #870A0A",
"; 	c #A01616",
"> 	c #A31D1D",
", 	c #A21B1B",
"' 	c #9F1212",
") 	c #9C0B0B",
"! 	c #860707",
"~ 	c #7A0303",
"{ 	c #7D0707",
"] 	c #9E1A1A",
"^ 	c #A62424",
"/ 	c #AD3535",
"( 	c #AE3838",
"_ 	c #AF3B3B",
": 	c #AB3030",
"< 	c #9E1111",
"[ 	c #9E1B1B",
"} 	c #B64B4B",
"| 	c #BB5959",
"1 	c #BF6363",
"2 	c #BD5D5D",
"3 	c #B34444",
"4 	c #A72727",
"5 	c #A01515",
"6 	c #8A1010",
"7 	c #B95353",
"8 	c #C57070",
"9 	c #C26A6A",
"0 	c #B24242",
"a 	c #9F1313",
"b 	c #7D0606",
"c 	c #A21C1C",
"d 	c #B24141",
"e 	c #C36B6B",
"f 	c #CB8080",
"g 	c #C57171",
"h 	c #BB5858",
"i 	c #B14040",
"j 	c #A92B2B",
"k 	c #9D0E0E",
"l 	c #840C0C",
"m 	c #A52121",
"n 	c #B44848",
"o 	c #C26969",
"p 	c #C46E6E",
"q 	c #B85151",
"r 	c #AE3737",
"s 	c #A41F1F",
"t 	c #8F0D0D",
"u 	c #A62323",
"v 	c #B74D4D",
"w 	c #9D0D0D",
"x 	c #9D0F0F",
"y 	c #9A1010",
"z 	c #B44747",
"A 	c #A31E1E",
"B 	c #A11717",
"C 	c #980C0C",
"D 	c #A72626",
"E 	c #AA2F2F",
"F 	c #9C0C0C",
"G 	c #A52222",
"H 	c #A21A1A",
"I 	c #9A0F0F",
"J 	c #A11818",
"K 	c #9F1414",
"L 	c #A42121",
"M 	c #AA2E2E",
"N 	c #900F0F",
"O 	c #A62525",
"P 	c #AC3333",
"Q 	c #B03C3C",
"R 	c #AD3636",
"S 	c #850F0F",
"T 	c #9E1010",
"U 	c #A82828",
"V 	c #7F0B0B",
"W 	c #8A0F0F",
"X 	c #A11919",
"Y 	c #A92D2D",
"Z 	c #B13F3F",
"` 	c #9C1515",
" .	c #7B0606",
"..	c #A82A2A",
"+.	c #A42020",
"@.	c #9B1313",
"#.	c #880C0C",
"                                            ",
"                                            ",
"              . + @ # $ % & *               ",
"          = - ; > , ; ' ) ) ) ! ~           ",
"        { ] ^ / ( _ : , < ) ) ) $ *         ",
"      = [ / } | 1 2 3 4 5 ) ) ) ) $ ~       ",
"      6 : 7 8 8 9 2 0 4 a ) ) ) ) ) !       ",
"    b c d e f g h i j , k ) ) ) ) ) ) *     ",
"    l m n o p q r s 5 k ) ) ) ) ) ) ) &     ",
"    t u d 2 v r , w ) ) ) ) ) ) k x ) %     ",
"    y s ( z ( A x ) ) ) ) ) ) x ; B < C     ",
"    # ; D E ^ a F ) ) ) ) ) F ; G u H I     ",
"    % k 5 J K w ) ) ) ) F w K L M : G N     ",
"    & ) w w w ) ) ) ) k ' J O P Q R ^ S     ",
"    * ) ) ) ) ) ) F T J > U R i d E c V     ",
"      ! ) ) ) ) ) k B G j R 0 0 R m W       ",
"      ~ $ ) ) ) ) x X O Y ( Z R u `  .      ",
"        * $ ) ) ) F a > L 4 ..+.@.b         ",
"          ~ ! ) ) ) F T ' a K #. .          ",
"              * & % $ $ % & *               ",
"                                            ",
"                                            "};
