/* XPM */
static char * IconPause_xpm[] = {
"22 22 51 1",
" 	c None",
".	c #000101",
"+	c #000507",
"@	c #001219",
"#	c #000C11",
"$	c #000F15",
"%	c #7788AA",
"&	c #7081A3",
"*	c #617496",
"=	c #556380",
"-	c #3D4B64",
";	c #26364B",
">	c #051924",
",	c #7182A4",
"'	c #D7E2EE",
")	c #B7CBE0",
"!	c #D4E0ED",
"~	c #98A8C5",
"{	c #081B25",
"]	c #6E7FA1",
"^	c #B8C7DD",
"/	c #9CB2CF",
"(	c #9DADCA",
"_	c #5C6A87",
":	c #001017",
"<	c #011620",
"[	c #7384A6",
"}	c #B4C9DF",
"|	c #7E8FB1",
"1	c #00131B",
"2	c #7687A9",
"3	c #8C9CBD",
"4	c #7A8BAD",
"5	c #9CACC9",
"6	c #00161F",
"7	c #596784",
"8	c #CEDAE9",
"9	c #B0C3DB",
"0	c #8797B8",
"a	c #000000",
"b	c #122231",
"c	c #A6B6D1",
"d	c #8EA2C3",
"e	c #4C5975",
"f	c #647393",
"g	c #5A6783",
"h	c #35445C",
"i	c #142433",
"j	c #364359",
"k	c #394760",
"l	c #324057",
"                      ",
"  .+@@@#+.  .+@@@#+.  ",
"  $%&*=-;+  $%&*=-;+  ",
"  >,')!~-#  >,')!~-#  ",
"  {]^/(_-:  {]^/(_-:  ",
"  <[!}|_-1  <[!}|_-1  ",
"  12!}3_-1  12!}3_-1  ",
"  14!}5_-1  14!}5_-1  ",
"  12!}3_-1  12!}3_-1  ",
"  14!}5_-1  14!}5_-1  ",
"  14!}5_-1  14!}5_-1  ",
"  14!}5_-1  14!}5_-1  ",
"  14!}5_-1  14!}5_-1  ",
"  14!}5_-1  14!}5_-1  ",
"  12!}3_-1  12!}3_-1  ",
"  14!}5_-1  14!}5_-1  ",
"  67890_-a  67890_-a  ",
"  b=cd|_-a  b=cd|_-a  ",
"  .efg_-ha  .efg_-ha  ",
"  ai-j-kla  ai-j-kla  ",
"  aaaaaaaa  aaaaaaaa  ",
"                      "};
