/* XPM */
static char *IconeSelArea[] = {
/* columns rows colors chars-per-pixel */
"22 22 86 1",
"  c black",
". c #372A2E00",
"X c #462C3600",
"o c #41333200",
"O c #59353800",
"+ c #583E3400",
"@ c #63323400",
"# c #613D3F00",
"$ c #763C3E00",
"% c #513F4200",
"& c #4D4B3F00",
"* c #54403900",
"= c #794E2E00",
"- c #474B5200",
"; c #49435000",
": c #4F4D5300",
"> c #4B524D00",
", c #4E515B00",
"< c #4E585A00",
"1 c #52404300",
"2 c #5F464200",
"3 c #5A4C4400",
"4 c #5D4D4900",
"5 c #564C5200",
"6 c #524D5800",
"7 c #5C495400",
"8 c #5C535D00",
"9 c #565C6800",
"0 c #664F4A00",
"q c #63534D00",
"w c #68504D00",
"e c #67555400",
"r c #63555A00",
"t c #645B5A00",
"y c #6E515600",
"u c #6A5A5300",
"i c #6F5B5F00",
"p c #71464700",
"a c #60556000",
"s c #62596300",
"d c #715C6400",
"f c #62615D00",
"g c #6C635C00",
"h c #76635600",
"j c #74645B00",
"k c #72695C00",
"l c #66636E00",
"z c #676A6800",
"x c #6D646400",
"c c #6B636A00",
"v c #6F686000",
"b c #6A6B6D00",
"n c #6E6A7300",
"m c #6E6F7800",
"M c #78636C00",
"N c #786F6700",
"B c #756F7C00",
"V c #7F6B7000",
"C c #74727600",
"Z c #74717C00",
"A c #7E737900",
"S c #83583300",
"D c #81595F00",
"F c #887E8800",
"G c #84806E00",
"H c #A6A6AA00",
"J c #ACABAC00",
"K c #AEAEB100",
"L c #AFB1AE00",
"P c #AEB1B100",
"I c #B1AAA700",
"U c #B1ADAC00",
"Y c #B1AEB100",
"T c #B3B0AE00",
"R c #B3B2B300",
"E c #B5B5B800",
"W c #BBB3B400",
"Q c #B8B6B900",
"! c #B9B8B700",
"~ c #BABABB00",
"^ c #BEBEC000",
"/ c #BEC0C100",
"( c #C0B4B400",
") c #C0BCBF00",
"_ c #C0C0C000",
"` c None",
/* pixels */
"``````````````````````",
"`                    `",
"` QU!~/JRTJTRRUUITTJ `",
"` RITPLPR!RTITIJJTJJ `",
"` IUU!LJJLLLTRRULRTT `",
"` UIUWLJH~JLURQRPRTT `",
"` RJT8<<>>3q41-flkJR `",
"` ~^!hukvgvccNA:zDEE `",
"` EETbnBnmlgcnt38,EP `",
"` QQ!BdFAVioillq%,EE `",
"` )QErOysM+%+9rxNAHR `",
"` YYEs@dp$2S=0utc;RR `",
"` YRR67.5X40hheus9RR `",
"` REQBZnzlnj0i0qr9RR `",
"` QQQQQEQQEETTURRRKR `",
"` QQEQQEEEQQWYJRQQRP `",
"` QQQERRYEQRPRE^^^/^ `",
"` R^RRRRWYYQ^KJH^EHK `",
"` ER)WE())RE^QRKKJKE `",
"` YYYU(((YRRKQ^^^EE^ `",
"`                    `",
"``````````````````````"
};
