/* XPM */
static char * IconCurveProp_xpm[] = {
"22 22 13 1",
" 	c None",
".	c #000000",
"+	c #FFFA00",
"@	c #DDDDDD",
"#	c #2C2C1F",
"$	c #2B2B15",
"%	c #FFFFFF",
"&	c #2B2B2C",
"*	c #1D1C09",
"=	c #0D0D09",
"-	c #FCFCFC",
";	c #0A0A0A",
">	c #0F0F0F",
"                      ",
" .................... ",
" .                  . ",
" .              +   . ",
" .        ........... ",
" .        .@@@@@@@@@. ",
" .   +    .@.@.....@. ",
" .  #.+   .@.@.@@@.@. ",
" . +$%.&. .@.@.....@. ",
" . +*%%%%..@@@@@@@@@. ",
" .++=%%-. .@.@.....@. ",
" .++;%.%. .@.@.@@@.@. ",
" .+ >.+.%..@.@.....@. ",
" .    ++. .@@@@@@@@@. ",
" .    +++ .@.@.....@. ",
" .     ++ .@.@.@@@.@. ",
" .      ++.@@@.....@. ",
" .      ++.@@@@@@@@@. ",
" .       +........... ",
" .                  . ",
" .................... ",
"                      "};
