/* XPM */
static char * IconAllArea_xpm[] = {
"22 22 274 2",
"  	c None",
". 	c #000000",
"+ 	c #FF0000",
"@ 	c #494552",
"# 	c #554650",
"$ 	c #615150",
"% 	c #544649",
"& 	c #554946",
"* 	c #594D54",
"= 	c #685450",
"- 	c #524743",
"; 	c #685A4E",
"> 	c #5A5B51",
", 	c #4C544A",
"' 	c #444250",
") 	c #5B5662",
"! 	c #736969",
"~ 	c #695E59",
"{ 	c #604F4C",
"] 	c #564647",
"^ 	c #5E4E4B",
"/ 	c #4D4237",
"( 	c #4A4040",
"_ 	c #685E59",
": 	c #5C4B3B",
"< 	c #6D6860",
"[ 	c #4B5557",
"} 	c #313B49",
"| 	c #323F4C",
"1 	c #464D51",
"2 	c #514D45",
"3 	c #584C48",
"4 	c #5F4F4D",
"5 	c #60565B",
"6 	c #605458",
"7 	c #5D514C",
"8 	c #5D4E49",
"9 	c #544647",
"0 	c #553B30",
"a 	c #5F4B3F",
"b 	c #554C54",
"c 	c #383438",
"d 	c #3E3B47",
"e 	c #807C6F",
"f 	c #404A4D",
"g 	c #585046",
"h 	c #5D4E4B",
"i 	c #5A5154",
"j 	c #726F79",
"k 	c #68636C",
"l 	c #6E6360",
"m 	c #5B4B4B",
"n 	c #433B32",
"o 	c #685E54",
"p 	c #635C5B",
"q 	c #4E5959",
"r 	c #4E585B",
"s 	c #4C544B",
"t 	c #4B504F",
"u 	c #4D4B3F",
"v 	c #64564F",
"w 	c #5C4E48",
"x 	c #524043",
"y 	c #474B52",
"z 	c #62615D",
"A 	c #625864",
"B 	c #72695A",
"C 	c #483E40",
"D 	c #767E89",
"E 	c #7F888F",
"F 	c #6C6861",
"G 	c #6D6458",
"H 	c #685F53",
"I 	c #6F6860",
"J 	c #736A5F",
"K 	c #6E635E",
"L 	c #6F6765",
"M 	c #6B6368",
"N 	c #6C6468",
"O 	c #786F67",
"P 	c #7F757B",
"Q 	c #4F4D53",
"R 	c #605C64",
"S 	c #84806E",
"T 	c #62676F",
"U 	c #5F646C",
"V 	c #636772",
"W 	c #676671",
"X 	c #56585D",
"Y 	c #6A6B6D",
"Z 	c #6E6B72",
"` 	c #747276",
" .	c #67656F",
"..	c #6E6F78",
"+.	c #65656F",
"@.	c #6A645F",
"#.	c #6B636B",
"$.	c #6E6A72",
"%.	c #655F59",
"&.	c #584E44",
"*.	c #5C535D",
"=.	c #4E515B",
"-.	c #576372",
";.	c #515A66",
">.	c #717681",
",.	c #737179",
"'.	c #746D7A",
").	c #756F7C",
"!.	c #715C64",
"~.	c #887E88",
"{.	c #7E7278",
"].	c #7F6B70",
"^.	c #675C58",
"/.	c #413332",
"(.	c #6F5B5F",
"_.	c #67636D",
":.	c #67626F",
"<.	c #63514B",
"[.	c #513F42",
"}.	c #4E525C",
"|.	c #5D6672",
"1.	c #5D6673",
"2.	c #8C8C91",
"3.	c #696872",
"4.	c #68636E",
"5.	c #605560",
"6.	c #593538",
"7.	c #6E5156",
"8.	c #675965",
"9.	c #78636C",
"0.	c #544039",
"a.	c #613D3F",
"b.	c #583E34",
"c.	c #605B67",
"d.	c #63555A",
"e.	c #6B6367",
"f.	c #7D737A",
"g.	c #2B2938",
"h.	c #57505D",
"i.	c #423C49",
"j.	c #635B64",
"k.	c #645864",
"l.	c #633234",
"m.	c #81595F",
"n.	c #714647",
"o.	c #763C3E",
"p.	c #5F4642",
"q.	c #835833",
"r.	c #794E2E",
"s.	c #654F4B",
"t.	c #6E5855",
"u.	c #665A5A",
"v.	c #6C656A",
"w.	c #494350",
"x.	c #665B69",
"y.	c #625D68",
"z.	c #584F59",
"A.	c #5F535F",
"B.	c #57545F",
"C.	c #524D58",
"D.	c #5C4954",
"E.	c #372A2E",
"F.	c #564C52",
"G.	c #462C36",
"H.	c #5E4D4B",
"I.	c #674F4A",
"J.	c #766356",
"K.	c #75635B",
"L.	c #675554",
"M.	c #6A5952",
"N.	c #625B63",
"O.	c #565C68",
"P.	c #605F69",
"Q.	c #5B5F6A",
"R.	c #63606B",
"S.	c #615D67",
"T.	c #716876",
"U.	c #75717C",
"V.	c #73727C",
"W.	c #6E6974",
"X.	c #676A68",
"Y.	c #69636E",
"Z.	c #6E6B74",
"`.	c #74655C",
" +	c #5D4B44",
".+	c #6F6361",
"++	c #68504D",
"@+	c #63524E",
"#+	c #63595D",
"$+	c #605960",
"%+	c #5B5962",
"&+	c #595660",
"*+	c #696873",
"=+	c #6B6C76",
"-+	c #717079",
";+	c #6E6E7A",
">+	c #6D6B76",
",+	c #6D6A74",
"'+	c #6C6A74",
")+	c #6B6873",
"!+	c #69666F",
"~+	c #6B6771",
"{+	c #6B5D56",
"]+	c #645656",
"^+	c #63504D",
"/+	c #5C5050",
"(+	c #5C5055",
"_+	c #60584E",
":+	c #564C56",
"<+	c #4E4B56",
"[+	c #6F6F78",
"}+	c #6C6D78",
"|+	c #6D6D78",
"1+	c #6E6D78",
"2+	c #6A6974",
"3+	c #666671",
"4+	c #686771",
"5+	c #706976",
"6+	c #6F666B",
"7+	c #5C545D",
"8+	c #5B5458",
"9+	c #4D4343",
"0+	c #5F565D",
"a+	c #6D6A71",
"b+	c #73726D",
"c+	c #595963",
"d+	c #6B6973",
"e+	c #64626E",
"f+	c #5D5A66",
"g+	c #59555F",
"h+	c #615D68",
"i+	c #766F78",
"j+	c #5C5B67",
"k+	c #575460",
"l+	c #5B5561",
"m+	c #64676F",
"n+	c #8C8E92",
"o+	c #8D9393",
"p+	c #919393",
"q+	c #827D84",
"r+	c #635A64",
"s+	c #625863",
"t+	c #645862",
"u+	c #695F69",
"v+	c #56535F",
"w+	c #6E6E78",
"x+	c #7F8084",
"y+	c #46434D",
"z+	c #3B3746",
"A+	c #3B3A3D",
"B+	c #86858A",
"C+	c #443F4E",
"D+	c #858180",
"E+	c #81636A",
"F+	c #84585C",
"G+	c #906263",
"H+	c #8F808B",
"I+	c #8D7E8A",
"J+	c #685C63",
"K+	c #68646E",
"L+	c #8B8B8E",
"M+	c #777981",
"N+	c #5D5B66",
"O+	c #52525D",
"P+	c #4A4D58",
"Q+	c #3E414E",
"R+	c #8C575C",
"S+	c #855C60",
"T+	c #604954",
"U+	c #61535F",
"V+	c #625561",
"W+	c #55505B",
"X+	c #676874",
"Y+	c #767883",
"                                            ",
"  . . . . . . . . . . . . . . . . . . . .   ",
"  . + + + + + @ # $ % & * = - + + + + + .   ",
"  . + + ; > , ' ) ! ~ { ] ^ - / ( _ + + .   ",
"  . + : + < [ } | 1 2 3 4 5 6 7 8 + 9 + .   ",
"  . + 0 a + b c d e f g h i j k + l m + .   ",
"  . + n o p q r s t u v w x y z A B C + .   ",
"  . D E F G H I J K L M N O P Q R S T U .   ",
"  . V W X Y Z `  ...+.@.#.$.%.&.*.=.-.;..   ",
"  . >.,.'.).!.~.{.].^./.(._.:.<.[.}.|.1..   ",
"  . 2.3.4.5.6.7.8.9.0.a.b.c.d.e.O f.g.h..   ",
"  . i.j.4.k.l.m.n.o.p.q.r.s.t.u.v.w.x.y..   ",
"  . z.A.B.C.D.E.F.G.H.I.J.K.L.M.N.O.P.Q..   ",
"  . R.S.T.U.V.W.X.Y.Z.`. +.+++@+#+$+%+&+.   ",
"  . *+=+-+;+>+,+'+)+!+~+{+]+^+/+(+_+:+<+.   ",
"  . + [+}+|+1+2+3+4+5+6+7+8+9+0+a+b+c++ .   ",
"  . + ,+d++ e+f+g+h+i+j+k+l+m+n++ o+p++ .   ",
"  . + q++ r+s+t+u+A.v+w+x+y+z+A+B++ C++ .   ",
"  . + + D+E+F+G+H+I+J+K+L+M+N+O+P+Q++ + .   ",
"  . + + + + + R+S+T+U+V+W+X+Y++ + + + + .   ",
"  . . . . . . . . . . . . . . . . . . . .   ",
"                                            "};
