/* XPM */
static const char *iconZoomVert[]={
"22 22 10 1",
". c None",
"b c #000000",
"f c #0000c0",
"h c #121515",
"c c #38dbdb",
"e c #70d6d6",
"# c #929292",
"d c #e0ffff",
"a c #ff0000",
"g c #ffffff",
"......................",
".........####.........",
"...a....#bbbb##a......",
"...a...#bcd.cb#a......",
"...a...bd.d.ddba#.....",
"......bed.d..dcb#.....",
"...a..b.....ddfb#f....",
"...a..b......fdb#f....",
"...a..bg....dfcb..f...",
"......be.d...fb##..f..",
"...a...bec..cbbb##..f.",
"...a...fbbbbh.bbb##...",
".g.a.gffgg..f..bbb##..",
".gffff..fg.f...gbbb##.",
".f.a.f.gfg.f...a.bbb##",
".f.a.....ff....a..bbb#",
"...a......f....a...bb.",
".....gg...............",
"...a..gg.......a......",
"......................",
"......................",
"......................"};
