/* XPM */
static char * IconZoomFitView_xpm[] = {
"22 22 21 1",
" 	c None",
".	c #929292",
"+	c #000000",
"@	c #38DBDB",
"#	c #E0FFFF",
"$	c #70D6D6",
"%	c #95AAAA",
"&	c #404040",
"*	c #565656",
"=	c #555555",
"-	c #686868",
";	c #FFFFFF",
">	c #787878",
",	c #7F7F7F",
"'	c #585858",
")	c #C6C6C6",
"!	c #545454",
"~	c #AAAAAA",
"{	c #B0B0B0",
"]	c #BEBEBE",
"^	c #989898",
"                      ",
"         ....         ",
"        .++++..       ",
"       .+@##@+..      ",
"       +######+..     ",
"      +$######@+.     ",
"      +#.######+.     ",
"      +#.######+.     ",
"      +@#.####@+      ",
"  ++   +##.##%+&*     ",
" +===  .+@##@+===-    ",
" +;;;>   +++++;;;,.   ",
"  ');>        ');!..  ",
"  +~;>  +++   +~;!+.. ",
"  +~;>  +;;   +~;!++..",
"  +~;>  +{]   +~;>+++.",
"  +~;>        +~;> ++ ",
"  +~;>        +~;>    ",
"  +~;>  +++   +~;>    ",
"  +~;>  +~~   +~;>    ",
"  +~;^  +;;   +~;^    ",
"                      "};
