/* XPM */
static const char *iconSelection[]={
"22 22 213 2",
"Qt c None",
".# c #000000",
"aJ c #060606",
"#s c #0a0a0a",
"#5 c #0c0c0c",
".3 c #0d0d0d",
"ae c #0f0f0f",
"#W c #101010",
".N c #111112",
"#K c #131313",
".1 c #151515",
"#z c #161616",
"#u c #1b1b19",
"#l c #1b1b1c",
"#C c #1d1d1d",
"#J c #1d1e1e",
".M c #202020",
"#3 c #212121",
"#f c #232323",
".4 c #272626",
"#m c #282826",
"#Q c #353433",
"#R c #363335",
"#n c #3a343b",
"ac c #3f3f3f",
"aB c #414142",
"aa c #454443",
"a# c #454545",
"#k c #464646",
"#6 c #474b52",
"ay c #4a4a4a",
"aK c #4c4d4d",
"as c #4d4d4d",
"aI c #4f4f4f",
"#v c #565758",
"aq c #585758",
"#X c #595558",
".5 c #595756",
"ab c #665b57",
"aA c #676767",
"af c #686869",
"#t c #6b6b6b",
".O c #6e6d6c",
"ax c #868585",
"#I c #898989",
"ak c #89898a",
".6 c #8a8889",
"an c #8c8b8b",
"#P c #8d8d8d",
"#j c #909090",
"#S c #9c9ca0",
"#e c #a0a0a0",
".L c #a8aaae",
"at c #a9a8ab",
".0 c #aaa8aa",
"aU c #aaa9ad",
"aV c #aaaaab",
"bc c #abacaf",
"#c c #acaaa8",
"#T c #acabae",
"#L c #acaeb2",
".E c #adaaa8",
"aY c #adabaf",
"aT c #adacaf",
".v c #adacb0",
"aZ c #adaeb1",
"#o c #aeabac",
".n c #aeaca8",
".D c #aeacac",
".f c #aeadb0",
"bb c #aeafb2",
".K c #aeb1b1",
".C c #afaca9",
".p c #afadac",
"ar c #afaeb1",
"aC c #afafb2",
".u c #afb1ae",
".F c #b0acad",
".m c #b0adac",
"bf c #b0adb0",
"ba c #b0b0b3",
".W c #b1aaa7",
".b c #b1abac",
".r c #b1adab",
".A c #b1adad",
".i c #b1adae",
".g c #b1adb0",
".j c #b1aead",
".9 c #b1aeb1",
".Z c #b1afb1",
"be c #b1afb2",
"bn c #b1b0b2",
"#p c #b1b0b3",
"#1 c #b1b1b3",
"aH c #b1b1b4",
"#y c #b1b2b3",
"bd c #b1b3b6",
".G c #b2adab",
"## c #b2aeae",
".P c #b2afae",
".k c #b2afb1",
"#Z c #b2afb2",
".U c #b2b0ae",
"aw c #b2b1b2",
"aG c #b2b1b3",
".w c #b2b1b4",
".t c #b2b2b0",
"#7 c #b2b3b6",
"br c #b2b5b8",
".H c #b3aeaa",
".X c #b3aeab",
".B c #b3afae",
".Q c #b3afaf",
".S c #b3b0af",
"#a c #b3b0b0",
"#0 c #b3b0b3",
"av c #b3b1b3",
"a1 c #b3b2b4",
"aF c #b3b2b5",
"aO c #b3b3b5",
".V c #b4aead",
"bk c #b4aeb1",
".z c #b4afaf",
".o c #b4b0af",
".h c #b4b0b0",
"bl c #b4b0b3",
".I c #b4b1ab",
".R c #b4b1b2",
"bm c #b4b1b4",
"aP c #b4b2b4",
"#U c #b4b2b5",
"#9 c #b4b3b5",
"#Y c #b4b3b6",
"#4 c #b4b4b4",
"#8 c #b4b4b7",
"#w c #b4b5b8",
"aQ c #b5b2b4",
"a0 c #b5b2b5",
"#b c #b5b3b4",
"aX c #b5b3b6",
"aE c #b5b4b7",
"#x c #b5b5b8",
"bo c #b5b6b9",
".l c #b6b1b0",
".s c #b6b2af",
"#d c #b6b3b1",
".y c #b6b3b2",
"a8 c #b6b3b4",
"aR c #b6b3b6",
".c c #b6b4b2",
".8 c #b6b4b7",
"a9 c #b6b5b7",
"#N c #b6b6b8",
"ag c #b6b6b9",
"bg c #b7acad",
".q c #b7b2b2",
"am c #b7b3b1",
".Y c #b7b3b2",
"#. c #b7b4b4",
"al c #b7b5b8",
".J c #b7b6b4",
"aj c #b7b6b9",
"ah c #b7b7b9",
"ai c #b7b7ba",
".T c #b8b4b2",
"au c #b8b5b7",
"a. c #b8b6b9",
"aD c #b8b7b9",
".7 c #b8b8ba",
"#D c #b8b9bc",
".x c #b9b6b6",
".a c #b9b7b8",
"#F c #b9b7ba",
"#E c #b9b8ba",
"bp c #b9babd",
"#q c #b9bbbe",
"#B c #bababa",
"b# c #bababc",
"a3 c #bcb4b6",
"aN c #bcbbbd",
"#2 c #bcbcbc",
"aS c #bcbcbd",
"#r c #bcbec0",
"a4 c #bdb2b3",
"bj c #bdb3b4",
"a2 c #bdbcbc",
".d c #bdbdbd",
"aW c #bdbdbe",
"bq c #bdc0c1",
"bi c #bfb1b3",
"bh c #bfb3b4",
"a7 c #bfbbbe",
"b. c #bfbfbf",
"#M c #bfbfc0",
".e c #bfc1c1",
"a5 c #c0b4b4",
"a6 c #c0bcbf",
"bs c #c0c0c0",
"aL c #c0c1c1",
"aM c #c1c0c0",
"az c #d2d2d2",
"#i c #d9d9d9",
"ap c #dcdcdc",
".2 c #ececec",
"#O c #ededed",
"#H c #eeeeee",
"ad c #f2f2f2",
"#A c #f9f9f9",
"#h c #fafafa",
"ao c #fbfbfb",
"#V c #fcfcfc",
"#G c #fefefe",
"#g c #ffffff",
"QtQtQtQtQtQtQtQtQtQtQtQtQtQtQtQtQtQtQtQtQtQt",
"Qt.#.#.#.#.#.#.#.#.#.#.#.#.#.#.#.#.#.#.#.#Qt",
"Qt.#.a.b.c.d.e.f.g.h.i.j.k.l.m.j.n.o.j.p.#Qt",
"Qt.#.q.r.s.t.u.v.w.x.y.z.A.B.m.C.D.y.E.F.#Qt",
"Qt.#.G.H.I.J.K.L.M.N.O.P.Q.R.R.S.B.T.A.U.#Qt",
"Qt.#.V.W.X.Y.Z.0.1.2.3.4.5.6.7.8.9#.###a.#Qt",
"Qt.##b#c#d#e#e#e#f#g#h#i#j#k#l#m#n#e#o#p.#Qt",
"Qt.##q#r.J#e#e#e#s#g#g#g#g#g#i#t#s#u#v#e.#Qt",
"Qt.##w#x#y#e#e#e#z#g#g#g#g#g#g#g#A#B#C#e.#Qt",
"Qt.##D#E#F#e#e#e#z#g#g#g#g#g#G#H#I#J#K#L.#Qt",
"Qt.##M#N.8#e#e#e#z#g#g#g#g#g#O#P#Q#R#S#p.#Qt",
"Qt.##T#U.8#e#e#e#z#g#g#V#O#g#A#W#X#e#e#Y.#Qt",
"Qt.##Z#0#1#e#e#e#z#g#g#2#3#V#g#4#5#6#Y#7.#Qt",
"Qt.##8#9a.#e#e#e#z#ga#aaabac#G#gadaeaf.w.#Qt",
"Qt.#agah.7aiahaj#W#fakalaman.#ao#gapaqar.#Qt",
"Qt.#ai.7aiaiaiagasata.auavawaxayazaAaBaC.#Qt",
"Qt.#aDajajaEaEaFaG#Y#EaFaH.w#xaIaJaKaLaM.#Qt",
"Qt.##9aNaO#UaPaQaR#0#paiaSaTaUaVaWaXaYaZ.#Qt",
"Qt.#a0a1a2a3a4a5a6a7a8a9b.b#aFbabbbcaCbd.#Qt",
"Qt.##0bebfbgbhbibjbkblbmbnbobpbqbqaEbrbs.#Qt",
"Qt.#.#.#.#.#.#.#.#.#.#.#.#.#.#.#.#.#.#.#.#Qt",
"QtQtQtQtQtQtQtQtQtQtQtQtQtQtQtQtQtQtQtQtQtQt"};
