/* XPM */
static char * IconSelAreaMenu_xpm[] = {
"22 22 242 2",
"  	c None",
". 	c #000000",
"+ 	c #B9B7B8",
"@ 	c #B1ABAC",
"# 	c #B6B4B2",
"$ 	c #BDBDBD",
"% 	c #BFC1C1",
"& 	c #AEADB0",
"* 	c #B1ADB0",
"= 	c #B4B0B0",
"- 	c #B1ADAE",
"; 	c #B1AEAD",
"> 	c #B2AFB1",
", 	c #B6B1B0",
"' 	c #B0ADAC",
") 	c #AEACA8",
"! 	c #B4B0AF",
"~ 	c #AFADAC",
"{ 	c #B7B2B2",
"] 	c #B1ADAB",
"^ 	c #B6B2AF",
"/ 	c #B2B2B0",
"( 	c #AFB1AE",
"_ 	c #ADACB0",
": 	c #B2B1B4",
"< 	c #B9B6B6",
"[ 	c #B6B3B2",
"} 	c #B4AFAF",
"| 	c #B1ADAD",
"1 	c #B3AFAE",
"2 	c #AFACA9",
"3 	c #AEACAC",
"4 	c #ADAAA8",
"5 	c #B0ACAD",
"6 	c #B2ADAB",
"7 	c #B3AEAA",
"8 	c #B4B1AB",
"9 	c #B7B6B4",
"0 	c #AEB1B1",
"a 	c #A8AAAE",
"b 	c #202020",
"c 	c #111112",
"d 	c #6E6D6C",
"e 	c #B2AFAE",
"f 	c #B3AFAF",
"g 	c #B4B1B2",
"h 	c #B3B0AF",
"i 	c #B8B4B2",
"j 	c #B2B0AE",
"k 	c #B4AEAD",
"l 	c #B1AAA7",
"m 	c #B3AEAB",
"n 	c #B7B3B2",
"o 	c #B1AFB1",
"p 	c #AAA8AA",
"q 	c #151515",
"r 	c #ECECEC",
"s 	c #0D0D0D",
"t 	c #272626",
"u 	c #595756",
"v 	c #8A8889",
"w 	c #B8B8BA",
"x 	c #B6B4B7",
"y 	c #B1AEB1",
"z 	c #B7B4B4",
"A 	c #B2AEAE",
"B 	c #B3B0B0",
"C 	c #B5B3B4",
"D 	c #ACAAA8",
"E 	c #B6B3B1",
"F 	c #635C5B",
"G 	c #4E5959",
"H 	c #4E585B",
"I 	c #232323",
"J 	c #FFFFFF",
"K 	c #FAFAFA",
"L 	c #D9D9D9",
"M 	c #909090",
"N 	c #464646",
"O 	c #1B1B1C",
"P 	c #282826",
"Q 	c #3A343B",
"R 	c #72695A",
"S 	c #AEABAC",
"T 	c #B1B0B3",
"U 	c #B9BBBE",
"V 	c #BCBEC0",
"W 	c #6D6458",
"X 	c #685F53",
"Y 	c #6F6860",
"Z 	c #0A0A0A",
"` 	c #6B6B6B",
" .	c #1B1B19",
"..	c #565758",
"+.	c #949697",
"@.	c #B4B5B8",
"#.	c #B5B5B8",
"$.	c #B1B2B3",
"%.	c #6A6B6D",
"&.	c #6E6B72",
"*.	c #747276",
"=.	c #161616",
"-.	c #F9F9F9",
";.	c #BABABA",
">.	c #1D1D1D",
",.	c #636464",
"'.	c #B8B9BC",
").	c #B9B8BA",
"!.	c #B9B7BA",
"~.	c #756F7C",
"{.	c #715C64",
"].	c #887E88",
"^.	c #FEFEFE",
"/.	c #EEEEEE",
"(.	c #898989",
"_.	c #1D1E1E",
":.	c #131313",
"<.	c #ACAEB2",
"[.	c #BFBFC0",
"}.	c #B6B6B8",
"|.	c #605560",
"1.	c #593538",
"2.	c #6E5156",
"3.	c #EDEDED",
"4.	c #8D8D8D",
"5.	c #353433",
"6.	c #363335",
"7.	c #9C9CA0",
"8.	c #ACABAE",
"9.	c #B4B2B5",
"0.	c #645864",
"a.	c #633234",
"b.	c #81595F",
"c.	c #FCFCFC",
"d.	c #101010",
"e.	c #595558",
"f.	c #494350",
"g.	c #B5B2B6",
"h.	c #B4B3B6",
"i.	c #B2AFB2",
"j.	c #B3B0B3",
"k.	c #B1B1B3",
"l.	c #524D58",
"m.	c #5C4954",
"n.	c #372A2E",
"o.	c #BCBCBC",
"p.	c #212121",
"q.	c #B4B4B4",
"r.	c #0C0C0C",
"s.	c #474B52",
"t.	c #B2B3B6",
"u.	c #B4B4B7",
"v.	c #B4B3B5",
"w.	c #B8B6B9",
"x.	c #75717C",
"y.	c #73727C",
"z.	c #6E6974",
"A.	c #454545",
"B.	c #454443",
"C.	c #665B57",
"D.	c #3F3F3F",
"E.	c #F2F2F2",
"F.	c #0F0F0F",
"G.	c #686869",
"H.	c #B6B6B9",
"I.	c #B7B7B9",
"J.	c #B7B7BA",
"K.	c #B7B6B9",
"L.	c #89898A",
"M.	c #B7B5B8",
"N.	c #B7B3B1",
"O.	c #8C8B8B",
"P.	c #FBFBFB",
"Q.	c #DCDCDC",
"R.	c #585758",
"S.	c #AFAEB1",
"T.	c #4D4D4D",
"U.	c #A9A8AB",
"V.	c #B8B5B7",
"W.	c #B3B1B3",
"X.	c #B2B1B2",
"Y.	c #868585",
"Z.	c #4A4A4A",
"`.	c #D2D2D2",
" +	c #676767",
".+	c #414142",
"++	c #AFAFB2",
"@+	c #B8B7B9",
"#+	c #B5B4B7",
"$+	c #B3B2B5",
"%+	c #B2B1B3",
"&+	c #B1B1B4",
"*+	c #4F4F4F",
"=+	c #060606",
"-+	c #4C4D4D",
";+	c #C0C1C1",
">+	c #C1C0C0",
",+	c #BCBBBD",
"'+	c #B3B3B5",
")+	c #B4B2B4",
"!+	c #B5B2B4",
"~+	c #B6B3B6",
"{+	c #BCBCBD",
"]+	c #ADACAF",
"^+	c #AAA9AD",
"/+	c #AAAAAB",
"(+	c #BDBDBE",
"_+	c #B5B3B6",
":+	c #ADABAF",
"<+	c #ADAEB1",
"[+	c #B5B2B5",
"}+	c #B3B2B4",
"|+	c #BDBCBC",
"1+	c #BCB4B6",
"2+	c #BDB2B3",
"3+	c #C0B4B4",
"4+	c #C0BCBF",
"5+	c #BFBBBE",
"6+	c #B6B3B4",
"7+	c #B6B5B7",
"8+	c #141414",
"9+	c #747474",
"0+	c #B1AFB2",
"a+	c #B0ADB0",
"b+	c #B7ACAD",
"c+	c #BFB3B4",
"d+	c #BFB1B3",
"e+	c #BDB3B4",
"f+	c #B4AEB1",
"g+	c #B4B0B3",
"h+	c #B4B1B4",
"i+	c #B1B0B2",
"j+	c #C7C8CA",
"k+	c #0B0B0B",
"l+	c #8C8C8C",
"m+	c #303030",
"n+	c #9B9B9B",
"o+	c #080808",
"p+	c #7E7E7E",
"q+	c #181818",
"r+	c #030303",
"s+	c #929292",
"                                            ",
"  . . . . . . . . . . . . . . . . . . . .   ",
"  . + @ # $ % & * = - ; > , ' ; ) ! ; ~ .   ",
"  . { ] ^ / ( _ : < [ } | 1 ' 2 3 [ 4 5 .   ",
"  . 6 7 8 9 0 a b c d e f g g h 1 i | j .   ",
"  . k l m n o p q r s t u v w x y z A B .   ",
"  . C D E F G H I J K L M N O P Q R S T .   ",
"  . U V 9 W X Y Z J J J J J L ` Z  ...+..   ",
"  . @.#.$.%.&.*.=.J J J J J J J -.;.>.,..   ",
"  . '.).!.~.{.].=.J J J J J ^./.(._.:.<..   ",
"  . [.}.x |.1.2.=.J J J J J 3.4.5.6.7.T .   ",
"  . 8.9.x 0.a.b.=.J J c.3.J -.d.e.f.g.h..   ",
"  . i.j.k.l.m.n.=.J J o.p.c.J q.r.s.h.t..   ",
"  . u.v.w.x.y.z.=.J A.B.C.D.^.J E.F.G.: .   ",
"  . H.I.w J.I.K.d.I L.M.N.O.. P.J Q.R.S..   ",
"  . J.w J.J.J.H.T.U.w.V.W.X.Y.Z.`. +.+++.   ",
"  . @+K.K.#+#+$+%+h.).$+&+: #.*+=+-+;+>+.   ",
"  . v.,+'+9.)+!+~+j.T J.{+]+^+/+(+_+:+<+.   ",
"  . [+}+|+1+2+3+4+5+6+7+`.F.. . . . . 8+9+  ",
"  . j.0+a+b+c+d+e+f+g+h+i+j+. . . . k+l+m+  ",
"  . . . . . . . . . . . . F.n+s . o+p+q+r+  ",
"                              J . s+        "};
