/* XPM */
static char *IconsDeviceMenu[] = {
/* columns rows colors chars-per-pixel */
"22 22 38 1",
"  c #00000000",
". c gray11",
"X c #27272700",
"o c #2D2D2D00",
"O c #32323200",
"+ c #3B3B3B00",
"@ c #21590700",
"# c #267C0500",
"$ c #4B4B4B00",
"% c #51515100",
"& c #5D5D5D00",
"* c #0019FF00",
"= c #2C890E00",
"- c #2E8E1200",
"; c #2F901300",
": c #30921500",
"> c #32961800",
", c #359C1D00",
"< c #37A01F00",
"1 c #37A02000",
"2 c #39A42300",
"3 c #3CA92700",
"4 c #3DAC2900",
"5 c #40B22D00",
"6 c #42B63100",
"7 c #45BB3500",
"8 c #47BF3800",
"9 c #48C13A00",
"0 c #5BD64800",
"q c red",
"w c #AFA82300",
"e c #A8B76E00",
"r c #92929200",
"t c #A0A0A400",
"y c #AAAAAA00",
"u c #C6CE9A00",
"i c #C9DB9000",
"p c None",
/* pixels */
"pppppppppppppppppppppp",
"pppppppppppppppppppppp",
"   ppppppppppppppppppp",
"o  ppppppppppppppppppp",
"p t000000000000000000#",
"p  0997765u4u2u1,i::e@",
"p  0987655q4*2*,,e:: @",
"p  08y&$54u3u2u,y% u @",
"p  08y$+544222,,O  i @",
"p  0uyOXeiiii1,,>>:i @",
"p  076e544yy,iiuy% i @",
"p  0quii44y+,iiuo  = @",
"p  06iiii2e2,,,::-==%@",
"p  0iiiii2iiiiiiiiiie@",
"p   wwwwwwww          ",
"p            ppppppppp",
"pppppppppppppppppppppp",
"pppppppppppppppppppppp",
"pppppppppppppp      .r",
"ppppppppppppppp    orr",
"pppppppppppppppp  orrr",
"ppppppppppppppppp rrpp"
};
