/* XPM */
static char * IconDeviceParams_xpm[] = {
"22 22 55 1",
" 	c None",
".	c #000000",
"+	c #FF0000",
"@	c #FF5000",
"#	c #FFA100",
"$	c #FFF100",
"%	c #00FF35",
"&	c #00FF86",
"*	c #00FFD6",
"=	c #00D6FF",
"-	c #0086FF",
";	c #0035FF",
">	c #1A00FF",
",	c #6B00FF",
"'	c #BB00FF",
")	c #FF00F1",
"!	c #FF0050",
"~	c #BBFF00",
"{	c #1AFF00",
"]	c #6BFF00",
"^	c #0D0D0D",
"/	c #1A1A1A",
"(	c #282828",
"_	c #353535",
":	c #434343",
"<	c #505050",
"[	c #5D5D5D",
"}	c #939393",
"|	c #A1A1A1",
"1	c #AEAEAE",
"2	c #BBBBBB",
"3	c #C9C9C9",
"4	c #D6D6D6",
"5	c #F1F1F1",
"6	c #6B6B6B",
"7	c #868686",
"8	c #787878",
"9	c #00022A",
"0	c #020630",
"a	c #040B35",
"b	c #06103B",
"c	c #081440",
"d	c #0A1946",
"e	c #132C5C",
"f	c #153061",
"g	c #1A3A6D",
"h	c #21497F",
"i	c #285891",
"j	c #2B6BA3",
"k	c #208CB7",
"l	c #16ADCB",
"m	c #0BD2E1",
"n	c #0D1E4B",
"o	c #112756",
"p	c #0F2251",
"                      ",
"     .....            ",
"  +@#$...%&*=-;>,')!  ",
"  +@#$~.{%&*=-;>,')!  ",
"  +@#$~]{%&*=-;>,')!  ",
"                      ",
"                      ",
"                      ",
"         .....        ",
"  .^/(_:<[...}|12345  ",
"  .^/(_:<[6.7}|12345  ",
"  .^/(_:<[687}|12345  ",
"                      ",
"                      ",
"                      ",
"       .....          ",
"  90abcd...efghijklm  ",
"  90abcdn.oefghijklm  ",
"  90abcdnpoefghijklm  ",
"                      ",
"                      ",
"                      "};
