/* XPM */
static char * lena_xpm[] = {
"22 22 482 2",
"  	c None",
". 	c #E4866C",
"+ 	c #E27966",
"@ 	c #A74050",
"# 	c #B14750",
"$ 	c #C14F55",
"% 	c #CC5958",
"& 	c #CF5C5B",
"* 	c #D05D5F",
"= 	c #D05E60",
"- 	c #CB6362",
"; 	c #CB6E6D",
"> 	c #CA6F6E",
", 	c #C86164",
"' 	c #CC5C61",
") 	c #CB5C60",
"! 	c #BE535B",
"~ 	c #CC6465",
"{ 	c #DF7F70",
"] 	c #E1826E",
"^ 	c #DD7E6D",
"/ 	c #DA7664",
"( 	c #F1BA91",
"_ 	c #E17460",
": 	c #E27B67",
"< 	c #A23A4B",
"[ 	c #AD434E",
"} 	c #BE4D54",
"| 	c #CA5657",
"1 	c #CD5A5D",
"2 	c #CA5E63",
"3 	c #BE646B",
"4 	c #C3777D",
"5 	c #CC938C",
"6 	c #D3A99D",
"7 	c #DAA89E",
"8 	c #C37673",
"9 	c #C1545D",
"0 	c #B74D58",
"a 	c #CC6263",
"b 	c #DC736F",
"c 	c #DF756D",
"d 	c #DB7363",
"e 	c #D87063",
"f 	c #DF7D6E",
"g 	c #DD7563",
"h 	c #E17A67",
"i 	c #A1384B",
"j 	c #AC4250",
"k 	c #B94B54",
"l 	c #C85459",
"m 	c #C7565A",
"n 	c #BF5359",
"o 	c #C05D64",
"p 	c #C66C71",
"q 	c #CC837D",
"r 	c #D9A79A",
"s 	c #DBBAAB",
"t 	c #E0C3B9",
"u 	c #C99293",
"v 	c #A94156",
"w 	c #CD5F62",
"x 	c #DD716E",
"y 	c #B65059",
"z 	c #DD7165",
"A 	c #DC7164",
"B 	c #CB6464",
"C 	c #D97063",
"D 	c #E0796A",
"E 	c #A1384D",
"F 	c #AC4252",
"G 	c #C75859",
"H 	c #BB4E54",
"I 	c #C0545B",
"J 	c #C96769",
"K 	c #CA6C6C",
"L 	c #CC807B",
"M 	c #DFAEA1",
"N 	c #E1BCB5",
"O 	c #E3C2B8",
"P 	c #E4CAC0",
"Q 	c #BE8487",
"R 	c #C35B5B",
"S 	c #E1756A",
"T 	c #802345",
"U 	c #CA6060",
"V 	c #D87066",
"W 	c #762541",
"X 	c #DA6F60",
"Y 	c #DF7C6B",
"Z 	c #9E3548",
"` 	c #B74856",
" .	c #CA6962",
"..	c #B64B52",
"+.	c #C4595F",
"@.	c #C16365",
"#.	c #C67975",
"$.	c #DA9E94",
"%.	c #DDAA9E",
"&.	c #DEB4AD",
"*.	c #DFBDB5",
"=.	c #DFC2B8",
"-.	c #DFCEC2",
";.	c #C97573",
">.	c #E0736B",
",.	c #8A475A",
"'.	c #D3AEAA",
").	c #CCAEA8",
"!.	c #5F1A41",
"~.	c #DF7362",
"{.	c #E4826F",
"].	c #A23949",
"^.	c #AF414D",
"/.	c #B54653",
"(.	c #D47868",
"_.	c #B64953",
":.	c #C2575C",
"<.	c #CA6C6D",
"[.	c #D1807D",
"}.	c #DB978F",
"|.	c #D89C93",
"1.	c #D9A29D",
"2.	c #DCABA4",
"3.	c #D9B0A9",
"4.	c #D7B4AF",
"5.	c #DAB0A4",
"6.	c #DDA496",
"7.	c #DFBEB4",
"8.	c #DDC2B4",
"9.	c #C7A3A0",
"0.	c #601741",
"a.	c #DE7761",
"b.	c #E4866E",
"c.	c #A3394A",
"d.	c #AF404D",
"e.	c #B1434E",
"f.	c #E88F73",
"g.	c #C55458",
"h.	c #C86067",
"i.	c #CF6A70",
"j.	c #D17575",
"k.	c #CF8183",
"l.	c #CE878A",
"m.	c #D58B8C",
"n.	c #D69291",
"o.	c #D39897",
"p.	c #D7A4A1",
"q.	c #DCB5AA",
"r.	c #E0BDB3",
"s.	c #E2C0B6",
"t.	c #CB938E",
"u.	c #935A67",
"v.	c #601941",
"w.	c #E07A62",
"x.	c #E5876D",
"y.	c #A2384A",
"z.	c #AF3F4A",
"A.	c #AE3F4B",
"B.	c #E99F78",
"C.	c #CA635F",
"D.	c #C36069",
"E.	c #C86369",
"F.	c #C26676",
"G.	c #9A4D6F",
"H.	c #904C76",
"I.	c #834371",
"J.	c #844065",
"K.	c #D19A92",
"L.	c #DFB5A8",
"M.	c #D9BBAD",
"N.	c #D3A5A4",
"O.	c #BC7573",
"P.	c #AE686E",
"Q.	c #642046",
"R.	c #782D4F",
"S.	c #DD7566",
"T.	c #E6896D",
"U.	c #A13847",
"V.	c #AE3D4C",
"W.	c #B44351",
"X.	c #D38470",
"Y.	c #D26F68",
"Z.	c #C35D6B",
"`.	c #B4556E",
" +	c #843860",
".+	c #672457",
"++	c #692954",
"@+	c #80456E",
"#+	c #D19998",
"$+	c #D3A69B",
"%+	c #DBAAA5",
"&+	c #C28086",
"*+	c #A26078",
"=+	c #BA6C73",
"-+	c #691E3E",
";+	c #61183B",
">+	c #A2556A",
",+	c #D97166",
"'+	c #E98A71",
")+	c #A1394B",
"!+	c #B14050",
"~+	c #BA4955",
"{+	c #CA6A65",
"]+	c #C5625F",
"^+	c #B04C67",
"/+	c #732A4F",
"(+	c #65244F",
"_+	c #722F62",
":+	c #803857",
"<+	c #C18693",
"[+	c #D59D97",
"}+	c #DA9D95",
"|+	c #ECB7A9",
"1+	c #E69D97",
"2+	c #843857",
"3+	c #752E4F",
"4+	c #691E47",
"5+	c #6C2346",
"6+	c #C17B78",
"7+	c #D76E65",
"8+	c #E98A75",
"9+	c #A1394F",
"0+	c #B24251",
"a+	c #BC4A53",
"b+	c #BF5459",
"c+	c #B15367",
"d+	c #762E5A",
"e+	c #652352",
"f+	c #611E4D",
"g+	c #7A3755",
"h+	c #CD8E84",
"i+	c #D08D8C",
"j+	c #CC6D71",
"k+	c #E6938F",
"l+	c #EEB0A4",
"m+	c #E39D95",
"n+	c #77294A",
"o+	c #853C5D",
"p+	c #661D45",
"q+	c #90485C",
"r+	c #CF8B7C",
"s+	c #D36D66",
"t+	c #E98D75",
"u+	c #AB384C",
"v+	c #AE404E",
"w+	c #BF6465",
"x+	c #B05A67",
"y+	c #722E5B",
"z+	c #6D3668",
"A+	c #611D4B",
"B+	c #641E48",
"C+	c #C0807F",
"D+	c #C17E7C",
"E+	c #87334C",
"F+	c #B0586A",
"G+	c #D66A69",
"H+	c #D58C89",
"I+	c #923C57",
"J+	c #691A3B",
"K+	c #924462",
"L+	c #671A41",
"M+	c #B46A70",
"N+	c #D0877D",
"O+	c #CE6963",
"P+	c #EB9276",
"Q+	c #AD3E4C",
"R+	c #B55467",
"S+	c #8B4C6D",
"T+	c #793D6F",
"U+	c #672B62",
"V+	c #7F4774",
"W+	c #5C1740",
"X+	c #924E5F",
"Y+	c #C67978",
"Z+	c #D76D73",
"`+	c #DA7A7F",
" @	c #DF8282",
".@	c #DA656C",
"+@	c #E39FA0",
"@@	c #BF5765",
"#@	c #761F41",
"$@	c #934865",
"%@	c #752845",
"&@	c #C87E78",
"*@	c #CE837C",
"=@	c #C66561",
"-@	c #EB8D76",
";@	c #AA4153",
">@	c #A44D75",
",@	c #763D70",
"'@	c #784273",
")@	c #5E194A",
"!@	c #864057",
"~@	c #732D48",
"{@	c #AD727A",
"]@	c #9B384C",
"^@	c #DE696F",
"/@	c #E88B89",
"(@	c #E07F7D",
"_@	c #DB5F67",
":@	c #E8A19D",
"<@	c #CD626A",
"[@	c #741F40",
"}@	c #93465F",
"|@	c #934355",
"1@	c #CF857A",
"2@	c #CA8078",
"3@	c #CA6865",
"4@	c #EC8E78",
"5@	c #A84153",
"6@	c #90426B",
"7@	c #743971",
"8@	c #814F84",
"9@	c #672449",
"0@	c #7D3657",
"a@	c #9F5F6B",
"b@	c #6B2C49",
"c@	c #A73E50",
"d@	c #DD6065",
"e@	c #E57677",
"f@	c #E27473",
"g@	c #D45E63",
"h@	c #E48D88",
"i@	c #A8485C",
"j@	c #711F43",
"k@	c #95465B",
"l@	c #B86469",
"m@	c #CB847A",
"n@	c #C88078",
"o@	c #D3736D",
"p@	c #ED907A",
"q@	c #AB4557",
"r@	c #8A3D67",
"s@	c #6A2E64",
"t@	c #794577",
"u@	c #89496E",
"v@	c #B9767E",
"w@	c #7A344F",
"x@	c #681D40",
"y@	c #A53A4E",
"z@	c #DA5C60",
"A@	c #E16667",
"B@	c #D96367",
"C@	c #DD7B7E",
"D@	c #D4797C",
"E@	c #70234A",
"F@	c #7A2844",
"G@	c #90425A",
"H@	c #CC7E72",
"I@	c #C78376",
"J@	c #C37F75",
"K@	c #CF7369",
"L@	c #ED947A",
"M@	c #A9495E",
"N@	c #79315D",
"O@	c #743C70",
"P@	c #815289",
"Q@	c #A56283",
"R@	c #9A5864",
"S@	c #621944",
"T@	c #6A1E43",
"U@	c #822744",
"V@	c #BC4C4F",
"W@	c #DE6469",
"X@	c #DE6166",
"Y@	c #E57178",
"Z@	c #A0465C",
"`@	c #611942",
" #	c #812D45",
".#	c #99495F",
"+#	c #CA8877",
"@#	c #C68678",
"##	c #C07F79",
"$#	c #CE6F65",
"%#	c #E8917B",
"&#	c #9B495F",
"*#	c #6B2653",
"=#	c #6B3464",
"-#	c #7D5185",
";#	c #94618D",
">#	c #6B3156",
",#	c #6C1E45",
"'#	c #63193C",
")#	c #6A2040",
"!#	c #8F2C44",
"~#	c #C75561",
"{#	c #DB787C",
"]#	c #DE8684",
"^#	c #84465C",
"/#	c #621E46",
"(#	c #8C364D",
"_#	c #9D4E61",
":#	c #B8726E",
"<#	c #B87873",
"[#	c #B4797B",
"}#	c #BA555C",
"|#	c #E6917D",
"1#	c #8F495D",
"2#	c #64254E",
"3#	c #6E3061",
"4#	c #7A4277",
"5#	c #87598A",
"6#	c #875679",
"7#	c #6B224C",
"8#	c #631C40",
"9#	c #712243",
"0#	c #9B3C4F",
"a#	c #D25F64",
"b#	c #D96C6F",
"c#	c #DD8F83",
"d#	c #E7B49C",
"e#	c #BE918D",
"f#	c #81354F",
"g#	c #9F505D",
"h#	c #BE7475",
"i#	c #B0656C",
"j#	c #A6595F",
"k#	c #AF565C",
"l#	c #E8967A",
"m#	c #7F3A57",
"n#	c #5B1A46",
"o#	c #6A2A58",
"p#	c #642758",
"q#	c #7D4B7E",
"r#	c #8C6188",
"s#	c #76365A",
"t#	c #651C3F",
"u#	c #8B2D46",
"v#	c #A73F4B",
"w#	c #DA6464",
"x#	c #DF6D6C",
"y#	c #E0867D",
"z#	c #E6A08E",
"A#	c #F0C0AB",
"B#	c #BD888F",
"C#	c #A15059",
"D#	c #C27D78",
"E#	c #B87376",
"F#	c #C37A70",
"G#	c #AF5959",
"H#	c #E89776",
"I#	c #7C3555",
"J#	c #5F1D49",
"K#	c #632451",
"L#	c #5C1F4D",
"M#	c #744174",
"N#	c #875A83",
"O#	c #732F54",
"P#	c #6D2241",
"Q#	c #B34756",
"R#	c #B54A52",
"S#	c #DE6764",
"T#	c #DE6666",
"U#	c #E17974",
"V#	c #E29482",
"W#	c #EAB8A6",
"X#	c #E7C3B3",
"Y#	c #B06864",
"Z#	c #BD7C75",
"`#	c #B47171",
" $	c #DA9C7C",
".$	c #B6605F",
"+$	c #E89773",
"@$	c #863858",
"#$	c #5D1C47",
"$$	c #61234C",
"%$	c #5B1D4C",
"&$	c #784377",
"*$	c #773C69",
"=$	c #601840",
"-$	c #80263E",
";$	c #B2414D",
">$	c #E36A66",
",$	c #DE6763",
"'$	c #DA7269",
")$	c #DD8876",
"!$	c #E4AC9D",
"~$	c #EEC8B6",
"{$	c #B77170",
"]$	c #9B4956",
"^$	c #9E575C",
"/$	c #DC8F6F",
". + @ # $ % & * = - ; > , ' ) ! ~ { ] ^ / ( ",
"_ : < [ } | 1 2 3 4 5 6 7 8 9 0 a b c d e f ",
"g h i j k l m n o p q r s t u v w x y z A B ",
"C D E F k G H I J K L M N O P Q R S T U V W ",
"X Y Z j `  ...+.@.#.$.%.&.*.=.-.;.>.,.'.).!.",
"~.{.].^./.(._.:.<.[.}.|.1.2.3.4.5.6.7.8.9.0.",
"a.b.c.d.e.f.g.h.i.j.k.l.m.n.o.p.q.r.s.t.u.v.",
"w.x.y.z.A.B.C.D.E.F.G.H.I.J.K.L.M.N.O.P.Q.R.",
"S.T.U.V.W.X.Y.Z.`. +.+++@+#+$+%+&+*+=+-+;+>+",
",+'+)+!+~+{+]+^+/+(+_+:+<+[+}+|+1+2+3+4+5+6+",
"7+8+9+0+a+b+c+d+e+f+g+h+i+j+k+l+m+n+o+p+q+r+",
"s+t+u+v+w+x+y+z+A+B+C+D+E+F+G+H+I+J+K+L+M+N+",
"O+P+Q+R+S+T+U+V+W+X+Y+Z+`+ @.@+@@@#@$@%@&@*@",
"=@-@;@>@,@'@)@!@~@{@]@^@/@(@_@:@<@[@}@|@1@2@",
"3@4@5@6@7@8@9@0@a@b@c@d@e@f@g@h@i@j@k@l@m@n@",
"o@p@q@r@s@t@u@v@w@x@y@z@A@B@C@D@E@F@G@H@I@J@",
"K@L@M@N@O@P@Q@R@S@T@U@V@W@X@Y@Z@`@ #.#+#@###",
"$#%#&#*#=#-#;#>#,#'#)#!#~#{#]#^#/#(#_#:#<#[#",
"}#|#1#2#3#4#5#6#7#8#9#0#a#b#c#d#e#f#g#h#i#j#",
"k#l#m#n#o#p#q#r#s#t#u#v#w#x#y#z#A#B#C#D#E#F#",
"G#H#I#J#K#L#M#N#O#P#Q#R#S#T#U#V#W#X#Y#Z#`# $",
".$+$@$#$$$%$&$*$=$-$;$) >$,$'$)$!$~${$]$^$/$"};
