/* XPM */
static char * record_xpm[] = {
"22 22 7 1",
" 	c None",
".	c #960000",
"+	c #BB0000",
"@	c #E10000",
"#	c #FB0000",
"$	c #CC0000",
"%	c #FF0000",
"                      ",
"                      ",
"       .+@##@+.       ",
"      $%%%%%%%%$      ",
"    .#%%%%%%%%%%#.    ",
"    #%%%%%%%%%%%%#    ",
"   $%%%%%%%%%%%%%%$   ",
"  .%%%%%%%%%%%%%%%%.  ",
"  +%%%%%%%%%%%%%%%%+  ",
"  @%%%%%%%%%%%%%%%%@  ",
"  #%%%%%%%%%%%%%%%%#  ",
"  #%%%%%%%%%%%%%%%%#  ",
"  @%%%%%%%%%%%%%%%%@  ",
"  +%%%%%%%%%%%%%%%%+  ",
"  .%%%%%%%%%%%%%%%%.  ",
"   $%%%%%%%%%%%%%%$   ",
"    #%%%%%%%%%%%%#    ",
"    .#%%%%%%%%%%#.    ",
"      $%%%%%%%%$      ",
"       .+@##@+.       ",
"                      ",
"                      "};
