/* XPM */
static char * uncheck_xpm[] = {
"16 16 75 1",
" 	c None",
".	c #474747",
"+	c #ABA9AB",
"@	c #F3F3F3",
"#	c #D6D5D6",
"$	c #302F30",
"%	c #EDEDED",
"&	c #6A686A",
"*	c #D9D8D9",
"=	c #191819",
"-	c #1D1C1D",
";	c #A4A2A4",
">	c #313031",
",	c #161516",
"'	c #353435",
")	c #AFADB0",
"!	c #262526",
"~	c #0D0D0D",
"{	c #5D5C5D",
"]	c #545354",
"^	c #BCBABC",
"/	c #312F31",
"(	c #EAEA00",
"_	c #6F6F00",
":	c #343334",
"<	c #616061",
"[	c #262626",
"}	c #A6A3A6",
"|	c #767376",
"1	c #0F0F0F",
"2	c #6B6A6B",
"3	c #808001",
"4	c #EBEB00",
"5	c #5B5B00",
"6	c #484848",
"7	c #212121",
"8	c #C8C8C8",
"9	c #3E3E00",
"0	c #E9E900",
"a	c #2E2E2E",
"b	c #363536",
"c	c #0A0A0A",
"d	c #ECECEC",
"e	c #000000",
"f	c #8A898C",
"g	c #E7E7E8",
"h	c #EEEEEE",
"i	c #EFEFEF",
"j	c #F0EFF0",
"k	c #A9A7A4",
"l	c #ADAD00",
"m	c #4D4B4D",
"n	c #9E9C9E",
"o	c #898789",
"p	c #939194",
"q	c #E8E7E8",
"r	c #E1E1E1",
"s	c #949194",
"t	c #2F2E2F",
"u	c #F0F0F0",
"v	c #918F91",
"w	c #8C898C",
"x	c #D7D6D8",
"y	c #413F41",
"z	c #323132",
"A	c #F2F2F2",
"B	c #656365",
"C	c #1B1B1B",
"D	c #4E4D4E",
"E	c #676567",
"F	c #3E3D3E",
"G	c #F3F2F3",
"H	c #676367",
"I	c #131313",
"J	c #1C1B1C",
"          ..   +",
"         .@@. +#",
"        $@%%@&*=",
"        -;%%%@> ",
"        ,')%%%@!",
"        ~{];%%^/",
"      (_ :<[}^|1",
"   2345   :67|1 ",
"  8%;9   0 abc  ",
" 8d%%;  (5      ",
"efghijkl5       ",
"emfg%%%n        ",
" 1opqhrse       ",
" tuvwxvy        ",
"zABCDEF         ",
"GH  IJ          "};
