/* XPM */
static const char * Cimage[] = {
"16 16 255 2",
"  	c None",
". 	c #E7826D",
"+ 	c #DF816C",
"@ 	c #BB4E55",
"# 	c #BC4D52",
"$ 	c #D15F5C",
"% 	c #D3625F",
"& 	c #CD6260",
"* 	c #CA625F",
"= 	c #C9615D",
"- 	c #C35B5B",
"; 	c #C56562",
"> 	c #DB806B",
", 	c #E0896E",
"' 	c #D18B75",
") 	c #BE5B5D",
"! 	c #B24E58",
"~ 	c #E7846B",
"{ 	c #DF7E67",
"] 	c #B54B50",
"^ 	c #B84C50",
"/ 	c #CA5B59",
"( 	c #CD5E5E",
"_ 	c #CB6565",
": 	c #CA726E",
"< 	c #CB6966",
"[ 	c #C8595C",
"} 	c #C45C60",
"| 	c #DB7C6D",
"1 	c #DD7C68",
"2 	c #DA9076",
"3 	c #B05E60",
"4 	c #722445",
"5 	c #D36B5E",
"6 	c #D87361",
"7 	c #B0474F",
"8 	c #B54851",
"9 	c #C65657",
"0 	c #C25A5E",
"a 	c #C36E71",
"b 	c #D0988F",
"c 	c #D7A79C",
"d 	c #C57476",
"e 	c #BE565C",
"f 	c #D26C66",
"g 	c #D76E61",
"h 	c #CF7064",
"i 	c #7F364E",
"j 	c #692147",
"k 	c #A8434D",
"l 	c #D46E60",
"m 	c #AE454E",
"n 	c #B44850",
"o 	c #C15457",
"p 	c #BF585C",
"q 	c #C76D6D",
"r 	c #D49990",
"s 	c #DEBAAF",
"t 	c #DAB8B0",
"u 	c #C27273",
"v 	c #BD5A5E",
"w 	c #BC6467",
"x 	c #9D4857",
"y 	c #671C43",
"z 	c #A05667",
"A 	c #A9434E",
"B 	c #D67262",
"C 	c #B1474E",
"D 	c #B64C50",
"E 	c #C15958",
"F 	c #C1595D",
"G 	c #CE7877",
"H 	c #D79A91",
"I 	c #D8A9A0",
"J 	c #D8B4AB",
"K 	c #D7A7A0",
"L 	c #D1938C",
"M 	c #D1ABA7",
"N 	c #824862",
"O 	c #893C56",
"P 	c #CB8079",
"Q 	c #DB7764",
"R 	c #B2484E",
"S 	c #B64E51",
"T 	c #D07061",
"U 	c #C55F62",
"V 	c #C96E74",
"W 	c #BB717F",
"X 	c #B87783",
"Y 	c #CA9392",
"Z 	c #D8B0A4",
"` 	c #D6B0A6",
" .	c #BC8185",
"..	c #793555",
"+.	c #BA6D73",
"@.	c #D2857D",
"#.	c #B24950",
"$.	c #B1484E",
"%.	c #B1464D",
"&.	c #D17969",
"*.	c #BE5A66",
"=.	c #994464",
"-.	c #77305D",
";.	c #955777",
">.	c #CE9B96",
",.	c #D09E99",
"'.	c #B26F79",
").	c #833751",
"!.	c #883F58",
"~.	c #CD877F",
"{.	c #CE887F",
"].	c #AE4851",
"^.	c #D87667",
"/.	c #B24B52",
"(.	c #B4474F",
"_.	c #C05E61",
":.	c #913A5C",
"<.	c #69214F",
"[.	c #8F4767",
"}.	c #C48388",
"|.	c #DB9892",
"1.	c #DB9D97",
"2.	c #8F435D",
"3.	c #6D2447",
"4.	c #A9626A",
"5.	c #CC887E",
"6.	c #CA857E",
"7.	c #A7424E",
"8.	c #D57566",
"9.	c #B54D53",
"0.	c #B04E5C",
"a.	c #914163",
"b.	c #702C5E",
"c.	c #732A50",
"d.	c #BD7277",
"e.	c #B45968",
"f.	c #D3757A",
"g.	c #B86771",
"h.	c #813151",
"i.	c #7D3551",
"j.	c #C17873",
"k.	c #CA8379",
"l.	c #C3847C",
"m.	c #903449",
"n.	c #CF7265",
"o.	c #B8535C",
"p.	c #8E4471",
"q.	c #6E2F62",
"r.	c #773056",
"s.	c #90475D",
"t.	c #C55F65",
"u.	c #DC7E7E",
"v.	c #DD787B",
"w.	c #CB6F77",
"x.	c #873151",
"y.	c #984C5D",
"z.	c #C77F77",
"A.	c #C68178",
"B.	c #DEAB86",
"C.	c #863046",
"D.	c #D07268",
"E.	c #B04F5D",
"F.	c #7E3A6F",
"G.	c #77396B",
"H.	c #8C435E",
"I.	c #843750",
"J.	c #BE4D58",
"K.	c #DF7171",
"L.	c #D97273",
"M.	c #B55C6A",
"N.	c #7F2E4C",
"O.	c #B5676A",
"P.	c #C47F77",
"Q.	c #D1947C",
"R.	c #EAC499",
"S.	c #742842",
"T.	c #D1776D",
"U.	c #AA5062",
"V.	c #753566",
"W.	c #8C527E",
"X.	c #8E4861",
"Y.	c #6C1F41",
"Z.	c #A53C4C",
"`.	c #D66064",
" +	c #D46A6F",
".+	c #873551",
"++	c #82304B",
"@+	c #BE7671",
"#+	c #BF7F78",
"$+	c #D7A588",
"%+	c #EBC99E",
"&+	c #7B364E",
"*+	c #CB7369",
"=+	c #9A4C60",
"-+	c #6D2E5F",
";+	c #834E7F",
">+	c #773B63",
",+	c #651C43",
"'+	c #832A45",
")+	c #CB5E64",
"!+	c #D57E7B",
"~+	c #9A5C6A",
"{+	c #8C3E54",
"]+	c #B56B6D",
"^+	c #B06D6D",
"/+	c #D6A587",
"(+	c #BE7D6F",
"_+	c #895367",
":+	c #CB786D",
"<+	c #8D4359",
"[+	c #662453",
"}+	c #723669",
"|+	c #824976",
"1+	c #6B2248",
"2+	c #9A384C",
"3+	c #D46263",
"4+	c #DD8379",
"5+	c #E4AE99",
"6+	c #AE7075",
"7+	c #BA726F",
"8+	c #BD7971",
"9+	c #D7967A",
"0+	c #A64B54",
"a+	c #7B455C",
"b+	c #CD7D71",
"c+	c #8C4056",
"d+	c #5F1E49",
"e+	c #682B5C",
"f+	c #783A67",
"g+	c #7A2743",
"h+	c #B44951",
"i+	c #DB6662",
"j+	c #DC766C",
"k+	c #E2A492",
"l+	c #D6A29A",
"m+	c #AC6566",
"n+	c #C58471",
"o+	c #C27363",
"p+	c #9A4152",
"q+	c #8C5364",
"r+	c #CE8375",
"s+	c #853D54",
"t+	c #63234F",
"u+	c #6B2C5D",
"v+	c #6C2953",
"w+	c #933142",
"x+	c #CA5655",
"y+	c #DE6962",
"z+	c #DD7065",
"A+	c #E08E7F",
"B+	c #DFACA1",
"C+	c #9F575F",
"D+	c #B0605C",
"E+	c #944350",
"F+	c #873C54",
". + @ # $ % & * = - ; > , ' ) ! ",
"~ { ] ^ / ( _ : < [ } | 1 2 3 4 ",
"5 6 7 8 9 0 a b c d e f g h i j ",
"k l m n o p q r s t u v w x y z ",
"A B C D E F G H I J K L M N O P ",
"m Q R S T U V W X Y Z `  ...+.@.",
"#.Q $.%.&.*.=.-.;.>.,.'.).!.~.{.",
"].^./.(._.:.<.[.}.|.1.2.3.4.5.6.",
"7.8.9.0.a.b.c.d.e.f.g.h.i.j.k.l.",
"m.n.o.p.q.r.s.t.u.v.w.x.y.z.A.B.",
"C.D.E.F.G.H.I.J.K.L.M.N.O.P.Q.R.",
"S.T.U.V.W.X.Y.Z.`. +.+++@+#+$+%+",
"&+*+=+-+;+>+,+'+)+!+~+{+]+^+/+(+",
"_+:+<+[+}+|+1+2+3+4+5+6+7+8+9+0+",
"a+b+c+d+e+f+g+h+i+j+k+l+m+n+o+p+",
"q+r+s+t+u+v+w+x+y+z+A+B+C+D+E+F+"};
