/* XPM */
static char * configure_xpm[] = {
"22 22 138 2",
"  	c None",
". 	c #E5E5E5",
"+ 	c #DCDCDC",
"@ 	c #AEAEAE",
"# 	c #828282",
"$ 	c #7B7B7B",
"% 	c #323232",
"& 	c #454545",
"* 	c #000000",
"= 	c #646464",
"- 	c #A7A7A7",
"; 	c #EDEDED",
"> 	c #FFFFFF",
", 	c #DFDFDF",
"' 	c #A6A6A6",
") 	c #565656",
"! 	c #525252",
"~ 	c #939393",
"{ 	c #A1A1A1",
"] 	c #6A6A6A",
"^ 	c #999999",
"/ 	c #F9F9F9",
"( 	c #EAEAEA",
"_ 	c #C4C4C4",
": 	c #8F8F8F",
"< 	c #343434",
"[ 	c #222222",
"} 	c #E7E7E7",
"| 	c #A2A2A2",
"1 	c #717171",
"2 	c #858585",
"3 	c #F7F7F7",
"4 	c #989898",
"5 	c #A9A9A9",
"6 	c #737373",
"7 	c #393939",
"8 	c #696969",
"9 	c #B2B2B2",
"0 	c #949494",
"a 	c #EBEBEB",
"b 	c #DDDDDD",
"c 	c #A3A3A3",
"d 	c #202020",
"e 	c #F6F6F6",
"f 	c #383838",
"g 	c #838383",
"h 	c #AAAAAA",
"i 	c #E8E8E8",
"j 	c #CECECE",
"k 	c #666666",
"l 	c #767676",
"m 	c #F1F1F1",
"n 	c #E4E4E4",
"o 	c #5B5B5B",
"p 	c #464646",
"q 	c #E6E6E6",
"r 	c #E2E2E2",
"s 	c #C9C9C9",
"t 	c #5C5C5C",
"u 	c #ACACAC",
"v 	c #EFEFEF",
"w 	c #CBCBCB",
"x 	c #3B3B3B",
"y 	c #0E0E0E",
"z 	c #8A8A8A",
"A 	c #E9E9E9",
"B 	c #D8D8D8",
"C 	c #E1E1E1",
"D 	c #B4B4B4",
"E 	c #787878",
"F 	c #040404",
"G 	c #626262",
"H 	c #919191",
"I 	c #FDFDFD",
"J 	c #EEEEEE",
"K 	c #DEDEDE",
"L 	c #D9D9D9",
"M 	c #DADADA",
"N 	c #959595",
"O 	c #888888",
"P 	c #161616",
"Q 	c #9B9B9B",
"R 	c #7A7A7A",
"S 	c #D5D5D5",
"T 	c #F5F5F5",
"U 	c #F3F3F3",
"V 	c #BDBDBD",
"W 	c #B1B1B1",
"X 	c #818181",
"Y 	c #5D5D5D",
"Z 	c #2B2B2B",
"` 	c #BFBFBF",
" .	c #8D8D8D",
"..	c #D7D7D7",
"+.	c #C6C6C6",
"@.	c #CDCDCD",
"#.	c #BEBEBE",
"$.	c #B7B7B7",
"%.	c #898989",
"&.	c #3F3F3F",
"*.	c #FCFCFC",
"=.	c #E3E3E3",
"-.	c #A5A5A5",
";.	c #7E7E7E",
">.	c #757575",
",.	c #777777",
"'.	c #F8F8F8",
").	c #CACACA",
"!.	c #575757",
"~.	c #C3C3C3",
"{.	c #9F9F9F",
"].	c #AFAFAF",
"^.	c #878787",
"/.	c #C5C5C5",
"(.	c #D6D6D6",
"_.	c #C8C8C8",
":.	c #1D1D1D",
"<.	c #3E3E3E",
"[.	c #6C6C6C",
"}.	c #ECECEC",
"|.	c #C1C1C1",
"1.	c #6B6B6B",
"2.	c #FBFBFB",
"3.	c #D0D0D0",
"4.	c #FAFAFA",
"5.	c #B6B6B6",
"6.	c #5E5E5E",
"7.	c #D2D2D2",
"8.	c #353535",
"9.	c #6E6E6E",
"0.	c #7D7D7D",
"a.	c #B8B8B8",
"b.	c #0C0C0C",
"c.	c #B5B5B5",
"d.	c #9D9D9D",
"e.	c #2C2C2C",
"f.	c #929292",
"g.	c #1F1F1F",
"                                            ",
"            . + @ # $ % &                   ",
"          * = - ; > , @ ' ) !               ",
"          ~ > { ] ^ / > ( _ : <             ",
"            [ } } | 1 2 3 ( + 4             ",
"  5 6 7       * 8 9 / 0 ' a b c d           ",
"  b e - f           * g h i . j k           ",
"  l > m n 0 o       p - q r b s t           ",
"  o u > m v w ^ x y z v A B C D E F         ",
"  G u H > I ; J K L , C M + b N N O P f     ",
"  * > Q R S > > 3 T U U q j V 5 W 9 c X Y p ",
"    Z v ` $ &  .....M S S +.@.n ..s #.$.{ %.",
"      &.*.> =.-.%.;.>.= ,.5 I '.a B ).` D - ",
"        * !.B ..> + ~.{.].^.) /./ > q (._.V ",
"              :.= o <.[.> }.|.1.X 9 > 2., 3.",
"                        * s I 4.5.%.6.7.I } ",
"                            8.~ > e V 9.0.a.",
"                                b.` > / c.d.",
"                                    e.f.> S ",
"                                        g.4 ",
"                                            ",
"                                            "};
