/* XPM */
static char * disable_xpm[] = {
"44 22 226 2",
"  	c None",
". 	c #1A1A1A",
"+ 	c #464646",
"@ 	c #606060",
"# 	c #373737",
"$ 	c #2B2B2B",
"% 	c #5E5E5E",
"& 	c #4F4F4F",
"* 	c #0D0D0D",
"= 	c #000000",
"- 	c #565656",
"; 	c #0B0B0B",
"> 	c #878687",
", 	c #EEEEEE",
"' 	c #F0F0F0",
") 	c #E6E6E6",
"! 	c #E1E1E1",
"~ 	c #9F9E9F",
"{ 	c #09090A",
"] 	c #050506",
"^ 	c #AFAFAF",
"/ 	c #DEDEDE",
"( 	c #FCFCFC",
"_ 	c #5F5F5F",
": 	c #090909",
"< 	c #494849",
"[ 	c #8C8A8D",
"} 	c #CCCBCE",
"| 	c #DCDCDC",
"1 	c #DDDDDD",
"2 	c #9A989D",
"3 	c #2C2C0B",
"4 	c #080810",
"5 	c #A4A1A4",
"6 	c #DADADA",
"7 	c #E2E2E2",
"8 	c #404040",
"9 	c #5E5D5E",
"0 	c #8A898B",
"a 	c #CECDCF",
"b 	c #DDDCDD",
"c 	c #ACAAAC",
"d 	c #83830C",
"e 	c #F2F200",
"f 	c #F5F500",
"g 	c #F6F600",
"h 	c #F1F100",
"i 	c #F3F300",
"j 	c #D9D900",
"k 	c #0B0B0C",
"l 	c #8A898A",
"m 	c #EBEBEB",
"n 	c #6B6B6B",
"o 	c #040404",
"p 	c #5E5E5A",
"q 	c #817F83",
"r 	c #DFDFDF",
"s 	c #B2B0B2",
"t 	c #5D5D0E",
"u 	c #AFAF00",
"v 	c #B3B300",
"w 	c #B2B200",
"x 	c #B0B000",
"y 	c #B1B100",
"z 	c #0E0E0E",
"A 	c #888688",
"B 	c #ECECEC",
"C 	c #717171",
"D 	c #181818",
"E 	c #5C5B5C",
"F 	c #9B999B",
"G 	c #161600",
"H 	c #464600",
"I 	c #5C5C00",
"J 	c #595900",
"K 	c #555500",
"L 	c #1E1E1E",
"M 	c #121212",
"N 	c #070707",
"O 	c #A2A0A2",
"P 	c #E3E3E3",
"Q 	c #424242",
"R 	c #191919",
"S 	c #222122",
"T 	c #706D70",
"U 	c #5F5E5F",
"V 	c #8C8B8D",
"W 	c #CDCCCF",
"X 	c #DEDFDE",
"Y 	c #E2E1E2",
"Z 	c #A19FA1",
"` 	c #000001",
" .	c #363536",
"..	c #373637",
"+.	c #161618",
"@.	c #949294",
"#.	c #DBDBDB",
"$.	c #E9E9E9",
"%.	c #555555",
"&.	c #1F1E1F",
"*.	c #232223",
"=.	c #B4B3B4",
"-.	c #ADABAD",
";.	c #A9A8A9",
">.	c #B7B5B7",
",.	c #CBCACB",
"'.	c #9C9B9C",
").	c #908E90",
"!.	c #E1E0E1",
"~.	c #C4C1C4",
"{.	c #575657",
"].	c #858485",
"^.	c #808080",
"/.	c #A1A0A1",
"(.	c #E8E7E8",
"_.	c #ECEBEC",
":.	c #EDECED",
"<.	c #E0DEE0",
"[.	c #E9E8E9",
"}.	c #8A8A8A",
"|.	c #8F8D8F",
"1.	c #E4E2E4",
"2.	c #151515",
"3.	c #5B5B5B",
"4.	c #C3C2C3",
"5.	c #EBEAEB",
"6.	c #E5E4E5",
"7.	c #7E7C7E",
"8.	c #7E7B7E",
"9.	c #7D7B7D",
"0.	c #7D7A7D",
"a.	c #7F7D7F",
"b.	c #ACA9AC",
"c.	c #757375",
"d.	c #E1DEE1",
"e.	c #E0DFE0",
"f.	c #9F9D9B",
"g.	c #2E2E00",
"h.	c #636163",
"i.	c #6C6B6C",
"j.	c #7C797C",
"k.	c #131213",
"l.	c #1B1A1B",
"m.	c #141314",
"n.	c #393939",
"o.	c #6A696A",
"p.	c #626162",
"q.	c #8A888A",
"r.	c #E0E0E0",
"s.	c #8B8B0E",
"t.	c #F8F800",
"u.	c #F7F700",
"v.	c #2C2B2C",
"w.	c #8B898B",
"x.	c #646464",
"y.	c #070607",
"z.	c #0A0A0A",
"A.	c #201F20",
"B.	c #585758",
"C.	c #DEDDDE",
"D.	c #DDDDDE",
"E.	c #DCDBDC",
"F.	c #58580B",
"G.	c #B6B600",
"H.	c #B8B800",
"I.	c #B9B900",
"J.	c #B5B500",
"K.	c #B7B700",
"L.	c #D7D700",
"M.	c #292929",
"N.	c #8E8D8E",
"O.	c #5A595A",
"P.	c #817F81",
"Q.	c #BDBBBE",
"R.	c #D9D9D9",
"S.	c #CFCECF",
"T.	c #D9D8D9",
"U.	c #D5D4D5",
"V.	c #949394",
"W.	c #1E1E00",
"X.	c #4A4A00",
"Y.	c #606000",
"Z.	c #5D5D00",
"`.	c #6D6D00",
" +	c #646264",
".+	c #080808",
"++	c #A3A0A3",
"@+	c #CCCBCC",
"#+	c #D0D0D0",
"$+	c #D2D1D2",
"%+	c #D3D3D3",
"&+	c #333333",
"*+	c #545354",
"=+	c #666566",
"-+	c #959395",
";+	c #969396",
">+	c #989698",
",+	c #999799",
"'+	c #090809",
")+	c #050505",
"!+	c #666466",
"~+	c #989598",
"{+	c #979497",
"]+	c #999699",
"^+	c #979597",
"/+	c #3F3E3F",
"(+	c #3E3D3E",
"_+	c #838183",
":+	c #7D7C7D",
"<+	c #7C7A7C",
"[+	c #7A797A",
"}+	c #636263",
"|+	c #504E50",
"1+	c #7B797B",
"2+	c #343334",
"3+	c #3D3C3D",
"4+	c #3B3A3B",
"5+	c #414141",
"6+	c #3C3B3C",
"7+	c #414041",
"8+	c #060606",
"9+	c #010101",
"0+	c #141414",
"a+	c #3C3C3C",
"b+	c #393839",
"c+	c #282828",
"                                                                                        ",
"                                                                                        ",
"                                                                                        ",
"                                                                                        ",
"                  . + @ # $ % & *                         = % $ # @ + . -               ",
"                ; > , ' ) ! ' , ~ {                     ; ] ^ ! ) ' , / ( _             ",
"              : < [ } | 1 / / / 2 3                   : < 4 5 6 / / / / 7 8             ",
"            : < 9 0 a / | / / b c d e f g h i h j   : < 9 k l 1 / / / / m n             ",
"            o & p q } r / / / | s t u v w u x y     o & 9 z A / / / / / B C             ",
"            D E E [ } ! / / / / F G H I J H K       D L M N O 6 / / / / P Q             ",
"      R = * S T U V W r / X Y / Z `                 M  ...+.@.#./ / / / $.%.&.* = R *.= ",
"    =.-.~ ;.>.,.'.).a r / r !.| ~.S                 : {.9 k ]./ / / / / B ^.>.;.~ -.=./.",
"    Y (._.:.<.[.}.|.W r / r 1.!.Z `                 2.9 E k @.#./ / / / $.3.4.B 5.6.[.  ",
"7.8.9.7.0.a.|.b.c.[ } ! / / d.e.f.g.                : h.9 z O 6 / / / / P Q i.7.j.0.    ",
"k.l.m.k.&.* n.o.p.q.W r.r X / | s s.e t.u.e f g     M v.v.N w./ / / / / B x.y.z.A.      ",
"            ; B.U w.W r / C.D.E.c F.G.H.I.J.K.H.L.  ; v.M.+.N.1 / / / / m n             ",
"            &.O.O.P.Q.R.S.S.T.U.V.W.X.Y.Z.H J `.    2. +9 .+++@+#+6 $+S.%+&+            ",
"            R *+O.=+|.-+;+>+,+F 7.'+                R *+O.)+!+>+~+~+{+]+^+/+            ",
"            = (+U _+:+<+a.P.[+}+N                   = (+: |+1+P.a.1+:+_+2+=             ",
"              = (+3+4+5+n.6+7+8+                      9+0+a+8 b+n.5+4+c+=               ",
"                                                                                        ",
"                                                                                        "};
