/* XPM */
static char * downarrow_xpm[] = {
"22 22 61 1",
" 	c None",
".	c #000001",
"+	c #010106",
"@	c #010104",
"#	c #020209",
"$	c #000000",
"%	c #101021",
"&	c #020207",
"*	c #000003",
"=	c #25253E",
"-	c #3B3B58",
";	c #656590",
">	c #585877",
",	c #4E4E6D",
"'	c #525271",
")	c #515170",
"!	c #50506F",
"~	c #4F4F6E",
"{	c #444461",
"]	c #3D3D5A",
"^	c #30304B",
"/	c #05050E",
"(	c #7E7EAF",
"_	c #DEDEFE",
":	c #9696CB",
"<	c #8383B4",
"[	c #7A7AAB",
"}	c #6F6F9C",
"|	c #6D6D9A",
"1	c #6C6C99",
"2	c #7676A5",
"3	c #7D7DAE",
"4	c #9595CA",
"5	c #5B5B7A",
"6	c #484867",
"7	c #2B2B46",
"8	c #050510",
"9	c #FFFFFF",
"0	c #A3A3DE",
"a	c #8787BA",
"b	c #7878A7",
"c	c #9A9ACF",
"d	c #7171A0",
"e	c #545473",
"f	c #282841",
"g	c #070712",
"h	c #8B8BBE",
"i	c #7878A9",
"j	c #8888BB",
"k	c #7575A4",
"l	c #2C2C47",
"m	c #090916",
"n	c #6E6E9B",
"o	c #585879",
"p	c #7F7FB0",
"q	c #2A2A43",
"r	c #090917",
"s	c #606083",
"t	c #343451",
"u	c #7C7CAD",
"v	c #444463",
"                      ",
"                      ",
"                      ",
"                      ",
"                      ",
"                      ",
"  .++@#$$$$$$$%&@@*$  ",
"  =-;>,'')!~~,~{]^=/  ",
"   =(_:<[}|12345678   ",
"    =[90ab|13cdefg    ",
"     =<90hi3jk5lm     ",
"      =<90ajno7m      ",
"       =p90|5qr       ",
"        =h_stm        ",
"         =uvm         ",
"          =8          ",
"                      ",
"                      ",
"                      ",
"                      ",
"                      ",
"                      "};
