/* XPM */
static char * filter_xpm[] = {
"19 16 53 1",
" 	c None",
".	c #656565",
"+	c #C7CCC3",
"@	c #8F928D",
"#	c #888D86",
"$	c #9DA299",
"%	c #C9CCC8",
"&	c #DDDCDC",
"*	c #81837E",
"=	c #A0A49B",
"-	c #9BA097",
";	c #B0B5AA",
">	c #D7D6D7",
",	c #F0F0F0",
"'	c #F4F4F4",
")	c #9DA099",
"!	c #DAD8D8",
"~	c #DCDBDB",
"{	c #E9E9E6",
"]	c #BBC0B6",
"^	c #999D94",
"/	c #E1E1E1",
"(	c #C9CBC8",
"_	c #E2E1DC",
":	c #CACDC7",
"<	c #DCD9D9",
"[	c #D7D7DA",
"}	c #F3F3F3",
"|	c #EAEAEA",
"1	c #CACEC7",
"2	c #E1E2E0",
"3	c #979B92",
"4	c #5D5F57",
"5	c #5D5656",
"6	c #D0D0D3",
"7	c #E9E8E5",
"8	c #656563",
"9	c #EDEDED",
"0	c #D2D1D2",
"a	c #CAD0C7",
"b	c #DAD9DB",
"c	c #DBDAD2",
"d	c #CCCCCC",
"e	c #615F5B",
"f	c #565452",
"g	c #C8CAC9",
"h	c #727270",
"i	c #D5D4D4",
"j	c #DEDCDC",
"k	c #F1F1F0",
"l	c #EFEFEE",
"m	c #F0F0EE",
"n	c #F2F2F2",
"    ..+            ",
"  .@#$%&           ",
" *==-;>,'          ",
" ;))))=!~{         ",
")])))))^/(_        ",
":;))))))-<[}       ",
" +))-^)))()|       ",
" 1))+2])))1@% 3    ",
" (=)=34=));45^!67  ",
"  +))84=))=#^^(9&  ",
"  (=)==)))=--0@%ab ",
"   1))))))=3=c=)d. ",
"   (+)))));.-ef;).a",
"    ~;))))^gg).=hha",
"     |b])+i  j;=3k ",
"       lm6    9jn  "};
