/* XPM */
static const char *iconZoomEll[]={
"22 22 11 1",
". c None",
"a c #000000",
"f c #000080",
"e c #0000c0",
"i c #121515",
"b c #38dbdb",
"h c #70d6d6",
"# c #929292",
"d c #c00000",
"c c #e0ffff",
"g c #ffffff",
"......................",
".........####.........",
"........#aaaa##.......",
".......#abccba##......",
".......acdddddd##...e.",
"......ddd.cc.cbdd..e..",
".....da........a#df...",
"...dd.a..e.c.cca#dd...",
"...d..age.ecccba.e.d..",
"..d...ahec.e.ca#e..d..",
"..d..e.ahb.ebaaae#..d.",
"..d.ee.eaaaai.aaa##.d.",
".gdgeee.gg.ge..aaa##d.",
".gdegge..g.ge.e.aaa#d.",
"ee.dgg.g.g..ee...aaad#",
"...d.g.......e....ada#",
"....d.............dda.",
"....ddg..........d....",
"......dd......ddd.....",
"........dddddd........",
"......................",
"......................"};
