/* XPM */
static char * IconZoomOutMenu_xpm[] = {
"22 22 11 1",
" 	c None",
".	c #929292",
"+	c #000000",
"@	c #38DBDB",
"#	c #E0FFFF",
"$	c #70D6D6",
"%	c #FFFFFF",
"&	c #1C1C1C",
"*	c #030303",
"=	c #2F2F2F",
"-	c #2C2C2C",
"                      ",
"         ...          ",
"        .++++..       ",
"       .+@##@+..      ",
"       +######+..     ",
"      +$######@+.     ",
"      +#.######+.     ",
"      +#.######+.     ",
"      +@#.####@+      ",
"       +##.###+..     ",
"       .+@##@+++..    ",
"+++++++++++++ +++..   ",
"+%%%%%%%%%%%+  +++..  ",
"+%%%%%%%%%%%+   +++.. ",
"+%%%%%%%%%%%+    +++..",
"+++++++++++++     +++.",
"                   ++ ",
"                      ",
"            ++++++&.  ",
"             +++*=.   ",
"              ++-.    ",
"               +.     "};
