/* XPM */
static char * IconZoomInView_xpm[] = {
"22 22 8 1",
" 	c None",
".	c #929292",
"+	c #000000",
"@	c #38DBDB",
"#	c #E0FFFF",
"$	c #70D6D6",
"%	c #121515",
"&	c #FFFFFF",
"                      ",
"         ....         ",
"        .++++..       ",
"       .+@##@+..      ",
"       +######+..     ",
"      +$######@+.     ",
"      +#.######+.     ",
"    +++%+######+.     ",
"    +&&&+.####@+      ",
"    +&&&+#.###+..     ",
"    +&&&+@##@+++..    ",
"+++++&&&+++++ +++..   ",
"+&&&&&&&&&&&+  +++..  ",
"+&&&&&&&&&&&+   +++.. ",
"+&&&&&&&&&&&+    +++..",
"+++++&&&+++++     +++.",
"    +&&&+          ++ ",
"    +&&&+             ",
"    +&&&+             ",
"    +++++             ",
"                      ",
"                      "};
