/* XPM */
static char *IconDelAreaMenu[] = {
/* columns rows colors chars-per-pixel */
"22 22 82 1",
"  c #00000000",
". c #0C0C0C00",
"X c gray8",
"o c #18181800",
"O c gray19",
"+ c #41333200",
"@ c #59353800",
"# c #583E3400",
"$ c #613D3F00",
"% c #513F4200",
"& c #4D4B3F00",
"* c #54403900",
"= c #474B5200",
"- c #49435000",
"; c #4F4D5300",
": c #4B524D00",
"> c #4E515B00",
", c #4E585A00",
"< c #52404300",
"1 c #584E4400",
"2 c #5C4E4800",
"3 c #5C535D00",
"4 c #565C6800",
"5 c #654F4B00",
"6 c #63534D00",
"7 c #68504D00",
"8 c #67555400",
"9 c #63555A00",
"0 c #645B5A00",
"q c #6E515600",
"w c #6A5A5300",
"e c #6F5B5F00",
"r c #60556000",
"t c #615A6300",
"y c #715C6400",
"u c #62615D00",
"i c #6C635C00",
"p c #75635B00",
"a c #72695C00",
"s c #66636E00",
"d c #6D646400",
"f c #6B636900",
"g c #6F686000",
"h c #6A6B6D00",
"j c #6E6A7200",
"k c #6E6F7800",
"l c #78636C00",
"z c #786F6700",
"x c #756F7C00",
"c c #7F6B7000",
"v c #74737500",
"b c #7E737900",
"n c #7E7E7E00",
"m c #887E8800",
"M c #84806E00",
"N c gray55",
"B c #92929200",
"V c #9B9B9B00",
"C c #A6A6AA00",
"Z c #ACABAB00",
"A c #ADADB000",
"S c #AFB1AE00",
"D c #AEB1B100",
"F c #B1AAA700",
"G c #B1ADAC00",
"H c #B1AEB000",
"J c #B3B0AE00",
"K c #B3B2B300",
"L c #B4B5B800",
"P c #BCB3B400",
"I c #B8B7B900",
"U c #B9B8B700",
"Y c #BBBABB00",
"T c #BEBEC000",
"R c #BFC1C100",
"E c #C0B4B400",
"W c #C0BCBF00",
"Q c #C0C0C000",
"! c #C7C8CA00",
"~ c #D2D2D200",
"^ c gray100",
"/ c None",
/* pixels */
"//////////////////////",
"/                    /",
"/ IGKTRAKGGGKKGGFGGG /",
"/ KFGKSAKUKGFJFZZKZG /",
"/ FGJUSCZSSJKJKGGPGG /",
"/ GFJJSZZYZJGKLUHLGG /",
"/ KZJ0,,::&62<=utaAK /",
"/ YTUiwaaddffzb;4MKL /",
"/ LLKhjvsksifj014>KA /",
"/ YIIxymbc0+yss6%>LL /",
"/ QLL3@qtl*$#t9dzbCH /",
"             5w9s%LK /",
" ^^^^^^^^^^^ p8w44LL /",
" ^^^^^^^^^^^ d7600HK /",
" ^^^^^^^^^^^ KGKKGKH /",
"             GZKLLKA /",
"/ IIILKKHIIKKKITTTTQ /",
"/ KYKKKKIHHYYACATIAA /",
"/ KKYPPPYWKU~.     Xv/",
"/ KHHHEEPGHKA!    .NO/",
"/            XV. .no /",
"///////////////^ BB///"
};
