/* XPM */
static char * IconDelArea_xpm[] = {
"22 22 252 2",
"  	c None",
". 	c #000000",
"+ 	c #B9B7B8",
"@ 	c #B1ABAC",
"# 	c #B6B4B2",
"$ 	c #BDBDBD",
"% 	c #BFC1C1",
"& 	c #AEADB0",
"* 	c #B1ADB0",
"= 	c #B4B0B0",
"- 	c #B1ADAE",
"; 	c #B1AEAD",
"> 	c #B2AFB1",
", 	c #B6B1B0",
"' 	c #B0ADAC",
") 	c #AEACA8",
"! 	c #B4B0AF",
"~ 	c #AFADAC",
"{ 	c #B7B2B2",
"] 	c #B1ADAB",
"^ 	c #B6B2AF",
"/ 	c #B2B2B0",
"( 	c #AFB1AE",
"_ 	c #ADACB0",
": 	c #B2B1B4",
"< 	c #B9B6B6",
"[ 	c #B6B3B2",
"} 	c #B4AFAF",
"| 	c #B1ADAD",
"1 	c #B3AFAE",
"2 	c #AFACA9",
"3 	c #AEACAC",
"4 	c #ADAAA8",
"5 	c #B0ACAD",
"6 	c #B2ADAB",
"7 	c #B3AEAA",
"8 	c #B4B1AB",
"9 	c #B7B6B4",
"0 	c #AEB1B1",
"a 	c #A8AAAE",
"b 	c #A8ABAF",
"c 	c #ADAFB0",
"d 	c #B0AFAD",
"e 	c #B2AFAE",
"f 	c #B3AFAF",
"g 	c #B4B1B2",
"h 	c #B3B0AF",
"i 	c #B8B4B2",
"j 	c #B2B0AE",
"k 	c #B4AEAD",
"l 	c #B1AAA7",
"m 	c #B3AEAB",
"n 	c #B7B3B2",
"o 	c #B1AFB1",
"p 	c #AAA8AA",
"q 	c #ABAAAD",
"r 	c #BCBBB8",
"s 	c #ACAEAF",
"t 	c #B2B0AD",
"u 	c #4D4D4D",
"v 	c #949294",
"w 	c #B7B4B4",
"x 	c #B2AEAE",
"y 	c #B3B0B0",
"z 	c #B5B3B4",
"A 	c #ACAAA8",
"B 	c #B6B3B1",
"C 	c #635C5B",
"D 	c #4E5959",
"E 	c #4E585B",
"F 	c #4C544B",
"G 	c #454948",
"H 	c #484741",
"I 	c #4A4A4A",
"J 	c #656565",
"K 	c #494949",
"L 	c #606060",
"M 	c #707070",
"N 	c #767676",
"O 	c #7D7D7E",
"P 	c #070707",
"Q 	c #B9BBBE",
"R 	c #BCBEC0",
"S 	c #6D6458",
"T 	c #685F53",
"U 	c #6F6860",
"V 	c #5D5850",
"W 	c #595959",
"X 	c #A3A3A3",
"Y 	c #F3F3F3",
"Z 	c #E0E0E0",
"` 	c #838383",
" .	c #6E6E6E",
"..	c #797979",
"+.	c #3F3F3F",
"@.	c #8E8E8E",
"#.	c #B5B5B5",
"$.	c #8C8C8C",
"%.	c #515151",
"&.	c #B4B5B8",
"*.	c #B5B5B8",
"=.	c #B1B2B3",
"-.	c #6A6B6D",
";.	c #6E6B72",
">.	c #747276",
",.	c #404040",
"'.	c #D1D1D1",
").	c #E2E2E2",
"!.	c #D7D7D7",
"~.	c #CFCFCF",
"{.	c #9D9D9D",
"].	c #585858",
"^.	c #8A8A8A",
"/.	c #A2A2A2",
"(.	c #8B8B8B",
"_.	c #737373",
":.	c #393939",
"<.	c #B8B9BC",
"[.	c #B9B8BA",
"}.	c #B9B7BA",
"|.	c #756F7C",
"1.	c #715C64",
"2.	c #887E88",
"3.	c #C2C2C2",
"4.	c #BEBEBE",
"5.	c #B2B2B2",
"6.	c #949494",
"7.	c #7C7C7C",
"8.	c #828282",
"9.	c #686868",
"0.	c #4B4B4B",
"a.	c #303030",
"b.	c #BFBFC0",
"c.	c #B6B6B8",
"d.	c #B6B4B7",
"e.	c #605560",
"f.	c #593538",
"g.	c #6E5156",
"h.	c #615560",
"i.	c #444444",
"j.	c #848484",
"k.	c #B0B0B0",
"l.	c #C8C8C8",
"m.	c #A0A0A0",
"n.	c #A1A1A1",
"o.	c #A5A5A5",
"p.	c #818181",
"q.	c #5C5C5C",
"r.	c #333333",
"s.	c #ACABAE",
"t.	c #B4B2B5",
"u.	c #645864",
"v.	c #633234",
"w.	c #81595F",
"x.	c #714647",
"y.	c #434343",
"z.	c #AEAEAE",
"A.	c #909090",
"B.	c #727272",
"C.	c #8D8D8D",
"D.	c #858585",
"E.	c #878787",
"F.	c #5B5B5B",
"G.	c #3E3E3E",
"H.	c #B2AFB2",
"I.	c #B3B0B3",
"J.	c #B1B1B3",
"K.	c #524D58",
"L.	c #5C4954",
"M.	c #372A2E",
"N.	c #564C52",
"O.	c #C3C3C3",
"P.	c #B1B1B1",
"Q.	c #969696",
"R.	c #939393",
"S.	c #5A5A5A",
"T.	c #B4B4B7",
"U.	c #B4B3B5",
"V.	c #B8B6B9",
"W.	c #75717C",
"X.	c #73727C",
"Y.	c #6E6974",
"Z.	c #676A68",
"`.	c #DADADA",
" +	c #9B9B9B",
".+	c #A6A6A6",
"++	c #898989",
"@+	c #9C9C9C",
"#+	c #B6B6B9",
"$+	c #B7B7B9",
"%+	c #B8B8BA",
"&+	c #B7B7BA",
"*+	c #B7B6B9",
"=+	c #3B3B3B",
"-+	c #B8B7B9",
";+	c #B5B4B7",
">+	c #B3B2B5",
",+	c #B2B1B3",
"'+	c #9E9E9E",
")+	c #555555",
"!+	c #383838",
"~+	c #BCBBBD",
"{+	c #B3B3B5",
"]+	c #B4B2B4",
"^+	c #B5B2B4",
"/+	c #B6B3B6",
"(+	c #B3B3B3",
"_+	c #8F8F8F",
":+	c #535353",
"<+	c #373737",
"[+	c #B5B2B5",
"}+	c #B3B2B4",
"|+	c #BDBCBC",
"1+	c #BCB4B6",
"2+	c #BDB2B3",
"3+	c #C0B4B4",
"4+	c #C0BCBF",
"5+	c #414141",
"6+	c #A8A8A8",
"7+	c #DBDBDB",
"8+	c #A7A7A7",
"9+	c #929292",
"0+	c #B1AFB2",
"a+	c #B0ADB0",
"b+	c #B7ACAD",
"c+	c #BFB3B4",
"d+	c #BFB1B3",
"e+	c #BDB3B4",
"f+	c #484848",
"g+	c #C4C4C4",
"h+	c #E8E8E8",
"i+	c #B8B8B8",
"j+	c #9A9A9A",
"k+	c #787878",
"l+	c #7D7D7D",
"m+	c #545454",
"n+	c #343434",
"o+	c #232323",
"p+	c #6F6F6F",
"q+	c #C5C5C5",
"r+	c #CACACA",
"s+	c #B6B6B6",
"t+	c #717171",
"u+	c #616161",
"v+	c #1E1E1E",
"w+	c #2C2C2C",
"x+	c #252525",
"y+	c #202020",
"z+	c #1B1B1B",
"A+	c #121212",
"B+	c #1A1A1A",
"C+	c #111111",
"                                            ",
"  . . . . . . . . . . . . . . . . . . . .   ",
"  . + @ # $ % & * = - ; > , ' ; ) ! ; ~ .   ",
"  . { ] ^ / ( _ : < [ } | 1 ' 2 3 [ 4 5 .   ",
"  . 6 7 8 9 0 a b c d e f g g h 1 i | j .   ",
"  . k l m n o p q r s t 1 u u u v w x y .   ",
"  . z A B C D E F G H u I J K L L M N O P   ",
"  . Q R 9 S T U V W X Y Z `  ...+.@.#.$.%.  ",
"  . &.*.=.-.;.>.,.X '.).Z !.~.{.].^./.(._.:.",
"  . <.[.}.|.1.2.,.{.~.3.4.$ 5.6.7.8.8.9.0.a.",
"  . b.c.d.e.f.g.h.i.j.k.l.~.m.n.o.n.p.q.r.  ",
"  . s.t.d.u.v.w.x.y.z.A.B.C.@.D.8.E.E.F.G.  ",
"  . H.I.J.K.L.M.N.+.m.!.O.P.5.Q.{.R.8.S.G.  ",
"  . T.U.V.W.X.Y.Z.+.m.`. +.+k.++@+ .8.F.+.  ",
"  . #+$+%+&+$+*+*++.m.`. +.+k.^.{. .8.S.G.  ",
"  . &+%+&+&+&+#+*.+.m.`. +.+P.(.{. .8.].=+  ",
"  . -+*+*+;+;+>+,++.m.`. +.+5.C.'+ .8.)+!+  ",
"  . U.~+{+t.]+^+/++.m.`. +.+(+_+'+ .p.:+<+  ",
"  . [+}+|+1+2+3+4+5+6+7+ +8+#.9+'+ .p.:+<+  ",
"  . I.0+a+b+c+d+e+f+g+h+z.(+i+j+m.k+l+m+n+  ",
"  . . . . . . . . o+p+.+q+r+s+.+ +t+u+K v+  ",
"                      G.w+x+y+v+z+A+B+C+    "};
