/* XPM */
static char * IconCurveMarker_xpm[] = {
"22 22 4 1",
" 	c None",
".	c #000000",
"+	c #FF0000",
"@	c #3F3F3F",
"                      ",
" .................... ",
" .                  . ",
" .        ++    @   . ",
" .        ++   @@@  . ",
" .            @@ @  . ",
" .   @    ++  @  @@ . ",
" .  @@@   ++ @@  @@ . ",
" . @@@@      @@   @ . ",
" . @@ @@  ++ @@   @@. ",
" .@@  @@  ++ @    @@. ",
" .@@  @@    @@     @. ",
" .@   @@  ++@@     @. ",
" .    @@  ++@@     @. ",
" .    @@@  @@       . ",
" .     @@ ++@       . ",
" .      @@++        . ",
" .      @@@@        . ",
" .       @++        . ",
" .        ++        . ",
" .................... ",
"                      "};
