/* XPM */
static const char *iconZoomRec[]={
"22 22 10 1",
". c None",
"a c #000000",
"d c #0000c0",
"h c #121515",
"b c #38dbdb",
"e c #70d6d6",
"# c #929292",
"f c #c00000",
"c c #e0ffff",
"g c #ffffff",
"......................",
".........####.........",
"........#aaaa##.......",
".......#abccba##......",
".......ac.c.cca##...d.",
"......aec.cc.cba#..d..",
"..fff.afff.fffca#fdf..",
"..f...a..d.c.cca#.df..",
"......agd.dcccba.d.f..",
"..f...aedc.d.ca#d.....",
"..f..d.aeb.dbaaad#.f..",
"....dd.daaaah.aaa##f..",
".gfgddd.gg.gd..aaa##..",
".gfdggd..g.gd.d.aaa##.",
"dd.ggg.g.g..dd...aaa##",
"..f..g.......d....aaa#",
"..ff.ff.fff.fff.fffaa.",
".....gg...............",
"......gg..............",
"......................",
"......................",
"......................"};
