/* XPM */
static char * IconSelCurve_xpm[] = {
"22 22 64 1",
" 	c None",
".	c #000000",
"+	c #FFFA00",
"@	c #202020",
"#	c #111112",
"$	c #6E6D6C",
"%	c #151515",
"&	c #ECECEC",
"*	c #0D0D0D",
"=	c #272626",
"-	c #595756",
";	c #8A8889",
">	c #232323",
",	c #FFFFFF",
"'	c #FAFAFA",
")	c #D9D9D9",
"!	c #909090",
"~	c #464646",
"{	c #1B1B1C",
"]	c #282826",
"^	c #0A0A0A",
"/	c #6B6B6B",
"(	c #1B1B19",
"_	c #565758",
":	c #949697",
"<	c #161616",
"[	c #F9F9F9",
"}	c #BABABA",
"|	c #1D1D1D",
"1	c #FEFEFE",
"2	c #EEEEEE",
"3	c #898989",
"4	c #1D1E1E",
"5	c #131313",
"6	c #EDEDED",
"7	c #8D8D8D",
"8	c #353433",
"9	c #363335",
"0	c #FCFCFC",
"a	c #101010",
"b	c #BCBCBC",
"c	c #212121",
"d	c #B4B4B4",
"e	c #0C0C0C",
"f	c #454545",
"g	c #454443",
"h	c #3F3F3F",
"i	c #F2F2F2",
"j	c #0F0F0F",
"k	c #686869",
"l	c #89898A",
"m	c #8C8B8B",
"n	c #FBFBFB",
"o	c #DCDCDC",
"p	c #585758",
"q	c #4D4D4D",
"r	c #868585",
"s	c #4A4A4A",
"t	c #D2D2D2",
"u	c #676767",
"v	c #414142",
"w	c #060606",
"x	c #4C4D4D",
"y	c #C0C1C1",
"                      ",
" .................... ",
" .                  . ",
" .              +   . ",
" .             +++  . ",
" .            ++ +  . ",
" .   +@#$     +  ++ . ",
" .  ++%&*=-; ++  ++ . ",
" . +++>,')!~{]+   + . ",
" . ++ ^,,,,,)/^(_:++. ",
" .++  <,,,,,,,[}| ++. ",
" .++  <,,,,,12345  +. ",
" .+   <,,,,,6789   +. ",
" .    <,,06,[a     +. ",
" .    <,,bc0,de     . ",
" .    <,fg h1,ijk   . ",
" .    a>l++m.n,op   . ",
" .    q ++++rstuv   . ",
" .       ++   wxy   . ",
" .                  . ",
" .................... ",
"                      "};
