/* XPM */
static char * IconPlay_xpm[] = {
"22 22 103 2",
"  	c None",
". 	c #030405",
"+ 	c #10151B",
"@ 	c #10161B",
"# 	c #4E5B74",
"$ 	c #10202C",
"% 	c #18252D",
"& 	c #95A5C1",
"* 	c #5D6C85",
"= 	c #142634",
"- 	c #1C2D36",
"; 	c #C5D1E3",
"> 	c #C1CDE0",
", 	c #5B6B82",
"' 	c #182A39",
") 	c #1D303D",
"! 	c #C0CCDF",
"~ 	c #B4C2D7",
"{ 	c #63728A",
"] 	c #122432",
"^ 	c #202A36",
"/ 	c #B6C2D7",
"( 	c #B7C5DA",
"_ 	c #A7B6D0",
": 	c #B8C6DC",
"< 	c #5B6A82",
"[ 	c #192B3A",
"} 	c #15171C",
"| 	c #A9B7CE",
"1 	c #A2B1CB",
"2 	c #7B8CAD",
"3 	c #93A3C0",
"4 	c #B4C1D6",
"5 	c #5F6E86",
"6 	c #132533",
"7 	c #13151A",
"8 	c #96A6C2",
"9 	c #8494B3",
"0 	c #6C7D9F",
"a 	c #6F80A2",
"b 	c #95A5C2",
"c 	c #B8C6DB",
"d 	c #172938",
"e 	c #111419",
"f 	c #8797B6",
"g 	c #7A8BAB",
"h 	c #6A7B9D",
"i 	c #6B7C9E",
"j 	c #7687A8",
"k 	c #9DADC8",
"l 	c #5A6981",
"m 	c #0B1720",
"n 	c #0F1217",
"o 	c #7585A5",
"p 	c #7282A4",
"q 	c #6E7FA1",
"r 	c #7B8CAE",
"s 	c #7E8EAF",
"t 	c #697894",
"u 	c #253549",
"v 	c #051219",
"w 	c #0E1015",
"x 	c #687897",
"y 	c #7484A6",
"z 	c #7384A6",
"A 	c #798AAC",
"B 	c #7F8FB0",
"C 	c #5A6885",
"D 	c #28384C",
"E 	c #0D1F2C",
"F 	c #131821",
"G 	c #596887",
"H 	c #7586A8",
"I 	c #8091B2",
"J 	c #8B9AB8",
"K 	c #505E79",
"L 	c #0D1F2B",
"M 	c #1F2F41",
"N 	c #515F7C",
"O 	c #7989A9",
"P 	c #8F9EBA",
"Q 	c #5B6984",
"R 	c #243447",
"S 	c #0F212E",
"T 	c #0E202E",
"U 	c #4A5974",
"V 	c #808FAC",
"W 	c #52607B",
"X 	c #28374C",
"Y 	c #0C1F2B",
"Z 	c #091A25",
"` 	c #44526D",
" .	c #485671",
"..	c #243448",
"+.	c #0E212D",
"@.	c #07141B",
"#.	c #344259",
"$.	c #263549",
"%.	c #050A0E",
"&.	c #1B2939",
"*.	c #071822",
"=.	c #010203",
"-.	c #070C10",
"                                            ",
"                                            ",
"            . +                             ",
"            @ # $                           ",
"            % & * =                         ",
"            - ; > , '                       ",
"            ) ! ; ~ { ]                     ",
"            ^ / ( _ : < [                   ",
"            } | 1 2 3 4 5 6                 ",
"            7 8 9 0 a b c 5 d               ",
"            e f g h i j k ~ l m             ",
"            n o p h q r s t u v             ",
"            w x y z A B C D E               ",
"            F G H I J K D L                 ",
"            M N O P Q R S                   ",
"            T U V W X Y                     ",
"            Z `  ...+.                      ",
"            @.#.$.Y                         ",
"            %.&.*.                          ",
"            =.-.                            ",
"                                            ",
"                                            "};
