/* XPM */
static char *IconPlayView[] = {
/* columns rows colors chars-per-pixel */
"22 22 40 1",
"  c #00000000",
". c #00050800",
"X c #00090D00",
"o c #000C1200",
"O c #02121A00",
"+ c #081B2700",
"@ c #0A1C2900",
"# c #1F283700",
"$ c #2B344600",
"% c #313B4E00",
"& c #323C5100",
"* c #38415500",
"= c #4A566E00",
"- c #48567100",
"; c #5B698600",
": c #606F8D00",
"> c #61708E00",
", c #63739300",
"< c #65769800",
"1 c #6A7B9D00",
"2 c #6D7EA000",
"3 c #6F80A200",
"4 c #7081A300",
"5 c #7586A800",
"6 c #7B8CAE00",
"7 c #7D8EB000",
"8 c #8191B200",
"9 c #8A99B900",
"0 c #929BA500",
"q c #99A1A800",
"w c #A0A8AC00",
"e c #AEB1B100",
"r c #94A4C200",
"t c #99A9C600",
"y c #9CACC900",
"u c #C0CEE100",
"i c #C5D2E500",
"p c #C9D6E600",
"a c #CEDAE900",
"s c None",
/* pixels */
"ssssssssssssssssssssss",
"sssssss  sssssssssssss",
"sssssssO Xssssssssssss",
"sssssss+=  sssssssssss",
"sssssss+8q  ssssssssss",
"sssssss+5aq X ssssssss",
"sssssss+:9p0 .ssssssss",
"sssssss+;6riq  sssssss",
"sssssss+;15tpe X sssss",
"sssssss+>118tiq osssss",
"sssssss+>1117yu0  ssss",
"sssssss+,11458,=  ssss",
"sssssss+,5568<* Xsssss",
"sssssss+,6791& o.sssss",
"sssssss+,7t<% ..ssssss",
"sssssss+19:& .ssssssss",
"sssssss@>;% o.ssssssss",
"sssssss+-$ ..sssssssss",
"sssssssO#  sssssssssss",
"sssssssX .ssssssssssss",
"sssssss . ssssssssssss",
"ssssss sssssssssssssss"
};
