/* XPM */
static char * IconImport_xpm[] = {
"22 22 180 2",
"  	c None",
". 	c #000000",
"+ 	c #0B0C1C",
"@ 	c #0C0D1C",
"# 	c #131534",
"$ 	c #6972EA",
"% 	c #7A7CF2",
"& 	c #747AF1",
"* 	c #3B4088",
"= 	c #0B0D22",
"- 	c #13163A",
"; 	c #6D72E9",
"> 	c #9596FD",
", 	c #9897FD",
"' 	c #8C8EFD",
") 	c #7C81F9",
"! 	c #3B408B",
"~ 	c #10132D",
"{ 	c #11142C",
"] 	c #0F1127",
"^ 	c #0E0F23",
"/ 	c #878BFD",
"( 	c #9999FD",
"_ 	c #8689FC",
": 	c #6A70ED",
"< 	c #535BD2",
"[ 	c #4E58CA",
"} 	c #4F58C9",
"| 	c #4E57C8",
"1 	c #4D57C7",
"2 	c #4D56C5",
"3 	c #4D56C4",
"4 	c #4C55C3",
"5 	c #2E3378",
"6 	c #0B0D24",
"7 	c #8989FD",
"8 	c #8E91FD",
"9 	c #6C73ED",
"0 	c #3D428C",
"a 	c #242536",
"b 	c #4B4D5E",
"c 	c #4A4B5C",
"d 	c #494A5A",
"e 	c #464856",
"f 	c #434453",
"g 	c #333540",
"h 	c #31323B",
"i 	c #2E2F38",
"j 	c #25252C",
"k 	c #15161A",
"l 	c #101011",
"m 	c #0D0D0D",
"n 	c #060606",
"o 	c #8688FD",
"p 	c #8085FB",
"q 	c #4E54B6",
"r 	c #26273A",
"s 	c #B4B4BD",
"t 	c #E3E3E3",
"u 	c #E9E9E9",
"v 	c #E3E3E4",
"w 	c #DBDBDC",
"x 	c #D2D2D2",
"y 	c #C9C9CA",
"z 	c #C1C1C2",
"A 	c #B9B9BA",
"B 	c #B0B0B1",
"C 	c #A8A8A8",
"D 	c #9E9E9F",
"E 	c #959596",
"F 	c #838383",
"G 	c #212121",
"H 	c #676EE8",
"I 	c #30335D",
"J 	c #76788C",
"K 	c #D9D9DC",
"L 	c #E5E5E6",
"M 	c #E7E7E8",
"N 	c #E1E1E2",
"O 	c #D9D9DA",
"P 	c #CECECF",
"Q 	c #C4C4C5",
"R 	c #BBBBBC",
"S 	c #B1B1B2",
"T 	c #A7A7A8",
"U 	c #9D9D9D",
"V 	c #909091",
"W 	c #808081",
"X 	c #6B73F3",
"Y 	c #545BC3",
"Z 	c #35364F",
"` 	c #B3B5BF",
" .	c #D8D8DA",
"..	c #E4E4E5",
"+.	c #E6E6E7",
"@.	c #DDDDDE",
"#.	c #D3D3D4",
"$.	c #CACACB",
"%.	c #C0C0C1",
"&.	c #B5B5B6",
"*.	c #ABABAC",
"=.	c #A0A0A1",
"-.	c #919192",
";.	c #6B6B6C",
">.	c #151515",
",.	c #565CD1",
"'.	c #1F203C",
").	c #82839C",
"!.	c #CACACD",
"~.	c #D8D8D9",
"{.	c #E0E0E1",
"].	c #DCDCDD",
"^.	c #D6D6D7",
"/.	c #CDCDCE",
"(.	c #C5C5C6",
"_.	c #BCBCBD",
":.	c #B2B2B3",
"<.	c #A8A8A9",
"[.	c #9B9B9C",
"}.	c #878788",
"|.	c #282829",
"1.	c #3A3F88",
"2.	c #242636",
"3.	c #A3A4B0",
"4.	c #C8C8CA",
"5.	c #D5D5D6",
"6.	c #D2D2D3",
"7.	c #BEBEBF",
"8.	c #B4B4B5",
"9.	c #ACACAD",
"0.	c #A2A2A3",
"a.	c #949495",
"b.	c #6A6A6B",
"c.	c #1A1A1B",
"d.	c #131738",
"e.	c #161727",
"f.	c #66697B",
"g.	c #B4B4B9",
"h.	c #C4C4C4",
"i.	c #CBCBCC",
"j.	c #C8C8C9",
"k.	c #C3C3C4",
"l.	c #ADADAE",
"m.	c #A5A5A6",
"n.	c #9A9A9B",
"o.	c #858586",
"p.	c #363636",
"q.	c #11122A",
"r.	c #3E3F4E",
"s.	c #98999F",
"t.	c #AFAFB1",
"u.	c #B8B8B9",
"v.	c #BFBFC0",
"w.	c #B7B7B8",
"x.	c #A4A4A5",
"y.	c #9C9C9D",
"z.	c #8E8E8F",
"A.	c #5A5A5B",
"B.	c #1E1E1F",
"C.	c #111218",
"D.	c #676769",
"E.	c #888888",
"F.	c #8C8C8D",
"G.	c #A1A1A2",
"H.	c #A6A6A7",
"I.	c #9B9B9B",
"J.	c #8A8A8B",
"K.	c #757576",
"L.	c #212122",
"M.	c #0D0D0E",
"N.	c #1E1E1E",
"O.	c #262627",
"P.	c #272727",
"Q.	c #2F2F30",
"R.	c #2F2F2F",
"S.	c #2E2E2E",
"T.	c #2C2C2C",
"U.	c #2A2A2A",
"V.	c #1F1F20",
"W.	c #1A1A1A",
"                                            ",
"                    . . . . .               ",
"                . . . . . . . . . . .       ",
"              . .             . . .         ",
"                              . . . .       ",
"        + @ @                               ",
"      # $ % & * =                           ",
"    - ; > , ' ) ! ~ { { { { { ] ^           ",
"    - / ( _ : < [ } } | 1 2 3 4 5 6         ",
"    - 7 8 9 0 a b c d e f g h i j k l m m n ",
"    - o p q r s t u v w x y z A B C D E F G ",
"    - p H I J K L M N O P Q R S T U V W G   ",
"    - X Y Z `  ...+.v @.#.$.%.&.*.=.-.;.>.  ",
"    - ,.'.).!.~.N {.].^./.(._.:.<.[.}.|.    ",
"    - 1.2.3.4.5.~.^.6./.(.7.8.9.0.a.b.c.    ",
"    d.e.f.g.h.i./.i.j.k._.&.l.m.n.o.p.      ",
"    q.r.s.t.u._.v.7.R w.S *.x.y.z.A.B.      ",
"    C.D.E.F.-.G.H.m.0.D I.E V J.K.L.        ",
"    M.G N.N.O.P.P.O.Q.R.S.T.U.|.V.W.        ",
"                                            ",
"                                            ",
"                                            "};
