/* XPM */
static const char *iconAutoX[]={
"22 22 3 1",
". c None",
"# c #000000",
"a c #c0c0ff",
"......................",
"......................",
"......................",
"......................",
"........#a..a#........",
"........a#aa#a........",
".........a##a.........",
".........a##a.........",
"........a#aa#a........",
"........#a..a#........",
"......................",
"......................",
"..aaaaaaaaaaaaaaaaaa..",
"..##################..",
"..#..#..#..#..#..#.#..",
"..#................#..",
"....#............#....",
"...#..............#...",
"..##################..",
"...#..............#...",
"....#............#....",
"......................"};
