/* XPM */
static char *IconPauseView[] = {
/* columns rows colors chars-per-pixel */
"22 22 38 1",
"  c #00000000",
". c #000D1200",
"X c #00101700",
"o c #00131A00",
"O c #01162000",
"+ c #05192400",
"@ c #081B2500",
"# c #13233200",
"$ c #26364B00",
"% c #32405700",
"& c #35435A00",
"* c #39476000",
"= c #3D4B6400",
"- c #4C597500",
"; c #55638000",
": c #59678300",
"> c #5C6A8700",
", c #62739400",
"< c #6E7FA100",
"1 c #7182A400",
"2 c #7687A900",
"3 c #7788AA00",
"4 c #7A8BAD00",
"5 c #7E8FB100",
"6 c #8797B800",
"7 c #8C9CBD00",
"8 c #8EA2C300",
"9 c #98A8C500",
"0 c #9CACC900",
"q c #9CB2CF00",
"w c #A6B6D100",
"e c #B0C3DB00",
"r c #B4C9DF00",
"t c #B8C7DD00",
"y c #B7CBE000",
"u c #CEDAE900",
"i c #D4E0ED00",
"p c None",
/* pixels */
"pppppppppppppppppppppp",
"pp  XXo.  pp .XXX.  pp",
"ppX41,;=$ pp.41,;=$ pp",
"pp+1iyi9=Xpp+1iyi0=.pp",
"pp@1tq0>=Xpp@1tq0>=Xpp",
"ppO1ir5>=oppO1ir5>=opp",
"ppX3ir7>=oppX3ir7>=opp",
"ppo4ir0>=oppo4ir0>=Xpp",
"ppo2ir7>=oppX2ir7>=opp",
"ppo4ir0>=oppo5ir0>=opp",
"ppo4iy0>=oppX4ir0>=opp",
"ppo4uy0>=oppo4ir0>=opp",
"ppo4ir0>=oppo4ir0>=opp",
"ppo4ir0>=oppo5ir0>=opp",
"ppo2ir7>=oppo1ir7>=opp",
"ppo4iy0>=oppo4ir0>=Xpp",
"ppo>ue6>= ppO>ie6>& pp",
"pp#;w85>= pp#-w84>- pp",
"pp -,:>== pp -,>>=& pp",
"pp #=&=*$ pp #-$-%$ pp",
"pp        pp        pp",
"pppppppppppppppppppppp"
};
