/* XPM */
static char * IconDeviceMenu_xpm[] = {
"22 22 75 1",
" 	c None",
".	c #000000",
"+	c #303030",
"@	c #A0A0A4",
"#	c #5BD648",
"$	c #267C05",
"%	c #48C23B",
"&	c #47BF38",
"*	c #45BC36",
"=	c #44B933",
"-	c #42B631",
";	c #41B32E",
">	c #C6CE9A",
",	c #3DAC29",
"'	c #3AA625",
")	c #37A020",
"!	c #369D1D",
"~	c #C9DB90",
"{	c #329618",
"]	c #319316",
"^	c #A8B76E",
"/	c #215907",
"(	c #48C139",
"_	c #46BE37",
":	c #45BB34",
"<	c #43B732",
"[	c #41B42F",
"}	c #40B12D",
"|	c #FF0000",
"1	c #3DAB28",
"2	c #0019FF",
"3	c #39A423",
"4	c #369E1E",
"5	c #359B1C",
"6	c #329517",
"7	c #309115",
"8	c #AAAAAA",
"9	c #5D5D5D",
"0	c #4D4D4D",
"a	c #3FAF2C",
"b	c #3CA927",
"c	c #39A322",
"d	c #359C1D",
"e	c #525252",
"f	c #4A4A4A",
"g	c #3A3A3A",
"h	c #3EAE2B",
"i	c #3BA726",
"j	c #38A121",
"k	c #323232",
"l	c #363636",
"m	c #272727",
"n	c #37A01F",
"o	c #34991B",
"p	c #2F9013",
"q	c #44BA34",
"r	c #3EAE2A",
"s	c #3D3D3D",
"t	c #379F1F",
"u	c #2C890E",
"v	c #3BA725",
"w	c #339719",
"x	c #319417",
"y	c #309114",
"z	c #2E8E12",
"A	c #2D8B0F",
"B	c #2B880D",
"C	c #515151",
"D	c #3AA624",
"E	c #AFA823",
"F	c #1C1C1C",
"G	c #929292",
"H	c #030303",
"I	c #2F2F2F",
"J	c #2C2C2C",
"                      ",
"                      ",
"...                   ",
"+..                   ",
" .@##################$",
" ..#%&*=-;>,>'>)!~{]^/",
" ..#(_:<[}|123245^67./",
" ..#&890;a>b>c>d8e.>./",
" ..#_8fg}h1i3j45k..~./",
" ..#>8lm^~~~~ndo{]p~./",
" ..#q<^}r188j~~>8e.~./",
" ..#|>~~,b8st~~>k..u./",
" ..#<~~~~v^j45wxyzABC/",
" ..#~~~~~D~~~~~~~~~~^/",
" ...EEEEEEEE..........",
" ............         ",
"                      ",
"                      ",
"              ......FG",
"               ...HIG ",
"                ..JG  ",
"                 .G   "};
