/* XPM */
static const char *iconZoomHor[]={
"22 22 10 1",
". c None",
"a c #000000",
"f c #0000c0",
"h c #121515",
"b c #38dbdb",
"d c #70d6d6",
"# c #929292",
"e c #c00000",
"c c #e0ffff",
"g c #ffffff",
"......................",
".........####.........",
"........#aaaa##.......",
".......#abc.ba##......",
".......ac.c.cca##.....",
"......adc.c..cba#.....",
"eeeeeeeeeeeeeeeeeeeeee",
"......a......fca#f....",
"......ag....cfba..f...",
"......ad.c...fa##..f..",
".......adb..baaa##..f.",
".......faaaah.aaa##...",
".g...gffgg..f..aaa##..",
".gffff..fg.f...gaaa##.",
"eeeeeeeeeeeeeeeeeeeeee",
".f.......ff.......aaa#",
"..........f........aa.",
".....gg...............",
"......gg..............",
"......................",
"......................",
"......................"};
