/* XPM */
static char * IconAddAreaMenu_xpm[] = {
"22 22 208 2",
"  	c None",
". 	c #000000",
"+ 	c #B9B7B8",
"@ 	c #B1ABAC",
"# 	c #B6B4B2",
"$ 	c #BDBDBD",
"% 	c #BFC1C1",
"& 	c #AEADB0",
"* 	c #B1ADB0",
"= 	c #B4B0B0",
"- 	c #B1ADAE",
"; 	c #B1AEAD",
"> 	c #B2AFB1",
", 	c #B6B1B0",
"' 	c #B0ADAC",
") 	c #AEACA8",
"! 	c #B4B0AF",
"~ 	c #AFADAC",
"{ 	c #B7B2B2",
"] 	c #B1ADAB",
"^ 	c #B6B2AF",
"/ 	c #B2B2B0",
"( 	c #AFB1AE",
"_ 	c #ADACB0",
": 	c #B2B1B4",
"< 	c #B9B6B6",
"[ 	c #B6B3B2",
"} 	c #B4AFAF",
"| 	c #B1ADAD",
"1 	c #B3AFAE",
"2 	c #AFACA9",
"3 	c #AEACAC",
"4 	c #ADAAA8",
"5 	c #B0ACAD",
"6 	c #B2ADAB",
"7 	c #B3AEAA",
"8 	c #B4B1AB",
"9 	c #B7B6B4",
"0 	c #AEB1B1",
"a 	c #A8AAAE",
"b 	c #A8ABAF",
"c 	c #ADAFB0",
"d 	c #B0AFAD",
"e 	c #B2AFAE",
"f 	c #B3AFAF",
"g 	c #B4B1B2",
"h 	c #B3B0AF",
"i 	c #B8B4B2",
"j 	c #B2B0AE",
"k 	c #B4AEAD",
"l 	c #B1AAA7",
"m 	c #B3AEAB",
"n 	c #B7B3B2",
"o 	c #B1AFB1",
"p 	c #AAA8AA",
"q 	c #ABAAAD",
"r 	c #BCBBB8",
"s 	c #ACAEAF",
"t 	c #B2B0AD",
"u 	c #B2B0B1",
"v 	c #B8B8BA",
"w 	c #B6B4B7",
"x 	c #B1AEB1",
"y 	c #B7B4B4",
"z 	c #B2AEAE",
"A 	c #B3B0B0",
"B 	c #B5B3B4",
"C 	c #ACAAA8",
"D 	c #B6B3B1",
"E 	c #635C5B",
"F 	c #4E5959",
"G 	c #4E585B",
"H 	c #4C544B",
"I 	c #4B504F",
"J 	c #4D4B3F",
"K 	c #64564F",
"L 	c #5C4E48",
"M 	c #524043",
"N 	c #474B52",
"O 	c #62615D",
"P 	c #625864",
"Q 	c #72695A",
"R 	c #AEABAC",
"S 	c #B1B0B3",
"T 	c #B9BBBE",
"U 	c #BCBEC0",
"V 	c #6E635E",
"W 	c #6F6765",
"X 	c #6B6368",
"Y 	c #6C6468",
"Z 	c #786F67",
"` 	c #7F757B",
" .	c #4F4D53",
"..	c #605C64",
"+.	c #84806E",
"@.	c #B4B5B8",
"#.	c #B3B5B7",
"$.	c #B5B5B8",
"%.	c #0E0E0E",
"&.	c #FFFFFF",
"*.	c #6E6F78",
"=.	c #65656F",
"-.	c #6A645F",
";.	c #6B636B",
">.	c #6E6A72",
",.	c #655F59",
"'.	c #584E44",
").	c #5C535D",
"!.	c #4E515B",
"~.	c #B1B4B8",
"{.	c #B0B2B5",
"].	c #B8B9BC",
"^.	c #B9B8BA",
"/.	c #0F0F0F",
"(.	c #7F6B70",
"_.	c #675C58",
":.	c #413332",
"<.	c #6F5B5F",
"[.	c #67636D",
"}.	c #67626F",
"|.	c #63514B",
"1.	c #513F42",
"2.	c #4E525C",
"3.	c #B3B5B8",
"4.	c #B3B5B9",
"5.	c #BFBFC0",
"6.	c #B6B6B8",
"7.	c #0E0E0F",
"8.	c #78636C",
"9.	c #544039",
"0.	c #613D3F",
"a.	c #583E34",
"b.	c #605B67",
"c.	c #63555A",
"d.	c #6B6367",
"e.	c #7D737A",
"f.	c #A6A6AA",
"g.	c #654F4B",
"h.	c #6E5855",
"i.	c #665A5A",
"j.	c #6C656A",
"k.	c #494350",
"l.	c #B5B2B6",
"m.	c #B4B3B6",
"n.	c #75635B",
"o.	c #675554",
"p.	c #6A5952",
"q.	c #625B63",
"r.	c #565C68",
"s.	c #B2B3B6",
"t.	c #6F6361",
"u.	c #68504D",
"v.	c #63524E",
"w.	c #63595D",
"x.	c #605960",
"y.	c #B2B2B4",
"z.	c #B5B1B1",
"A.	c #B3B0B1",
"B.	c #B4B2AF",
"C.	c #AFAEB1",
"D.	c #B2B1B2",
"E.	c #AFACAC",
"F.	c #B3B1B3",
"G.	c #B7B6B8",
"H.	c #B9B8B7",
"I.	c #AFAFB2",
"J.	c #B8B7B9",
"K.	c #B7B6B9",
"L.	c #B3B2B5",
"M.	c #B1B1B4",
"N.	c #C0C1C1",
"O.	c #C1C0C0",
"P.	c #B4B3B5",
"Q.	c #BCBBBD",
"R.	c #B3B0B3",
"S.	c #B7B7BA",
"T.	c #BCBCBD",
"U.	c #ADACAF",
"V.	c #AAA9AD",
"W.	c #AAAAAB",
"X.	c #BDBDBE",
"Y.	c #B5B3B6",
"Z.	c #ADABAF",
"`.	c #ADAEB1",
" +	c #B5B2B5",
".+	c #B3B2B4",
"++	c #BFBBBE",
"@+	c #B6B3B4",
"#+	c #B6B5B7",
"$+	c #D2D2D2",
"%+	c #141414",
"&+	c #747474",
"*+	c #B1AFB2",
"=+	c #B4AEB1",
"-+	c #B4B0B3",
";+	c #B4B1B4",
">+	c #B1B0B2",
",+	c #C7C8CA",
"'+	c #0B0B0B",
")+	c #8C8C8C",
"!+	c #303030",
"~+	c #9B9B9B",
"{+	c #0D0D0D",
"]+	c #080808",
"^+	c #7E7E7E",
"/+	c #181818",
"(+	c #030303",
"_+	c #929292",
"                                            ",
"  . . . . . . . . . . . . . . . . . . . .   ",
"  . + @ # $ % & * = - ; > , ' ; ) ! ; ~ .   ",
"  . { ] ^ / ( _ : < [ } | 1 ' 2 3 [ 4 5 .   ",
"  . 6 7 8 9 0 a b c d e f g g h 1 i | j .   ",
"  . k l m n o p q r s t 1 u v w x y z A .   ",
"  . B C D E F G H I J K L M N O P Q R S .   ",
"  . T U . . . . . V W X Y Z `  ...+.@.#..   ",
"  . @.$.%.&.&.&.. *.=.-.;.>.,.'.).!.~.{..   ",
"  . ].^./.&.&.&.. (._.:.<.[.}.|.1.2.3.4..   ",
"  . 5.6.7.&.&.&.. 8.9.0.a.b.c.d.Z e.f.S .   ",
". . . . . &.&.&.. . . . . g.h.i.j.k.l.m..   ",
". &.&.&.&.&.&.&.&.&.&.&.. n.o.p.q.r.m.s..   ",
". &.&.&.&.&.&.&.&.&.&.&.. t.u.v.w.x.y.: .   ",
". &.&.&.&.&.&.&.&.&.&.&.. z.! A A.B.o C..   ",
". . . . . &.&.&.. . . . . D.E.F.G.H.y.I..   ",
"  . J.K.. &.&.&.. m.^.L.M.: $.5.N.% N.O..   ",
"  . P.Q.. &.&.&.. R.S S.T.U.V.W.X.Y.Z.`..   ",
"  .  +.+. &.&.&.. ++@+#+$+/.. . . . . %+&+  ",
"  . R.*+. . . . . =+-+;+>+,+. . . . '+)+!+  ",
"  . . . . . . . . . . . . /.~+{+. ]+^+/+(+  ",
"                              &.. _+        "};
