/* XPM */
static char * IconRecord_xpm[] = {
"22 22 144 2",
"  	c None",
". 	c #AE0202",
"+ 	c #CE0707",
"@ 	c #F10808",
"# 	c #FF1010",
"$ 	c #FF0C0C",
"% 	c #F10202",
"& 	c #CE0000",
"* 	c #AE0000",
"= 	c #DF0909",
"- 	c #FF2929",
"; 	c #FF3E3E",
"> 	c #FF4343",
", 	c #FF3838",
"' 	c #FF3030",
") 	c #FF2020",
"! 	c #FF1414",
"~ 	c #FF0E0E",
"{ 	c #DF0000",
"] 	c #B10E0E",
"^ 	c #FF2E2E",
"/ 	c #FF5454",
"( 	c #FF7C7C",
"_ 	c #FF9494",
": 	c #FFA3A3",
"< 	c #FF8C8C",
"[ 	c #FF7474",
"} 	c #FF5D5D",
"| 	c #FF2C2C",
"1 	c #FF1111",
"2 	c #FF0A0A",
"3 	c #FF3434",
"4 	c #FF7B7B",
"5 	c #FFB0B0",
"6 	c #FFCFCF",
"7 	c #FFD8D8",
"8 	c #FFD6D6",
"9 	c #FFB7B7",
"0 	c #FF9C9C",
"a 	c #FF8080",
"b 	c #FF3D3D",
"c 	c #E21F1F",
"d 	c #FF7171",
"e 	c #FFBFBF",
"f 	c #FFE6E6",
"g 	c #FFE9E9",
"h 	c #FFE0E0",
"i 	c #FFC6C6",
"j 	c #FF9999",
"k 	c #FF7676",
"l 	c #FF5252",
"m 	c #FF2626",
"n 	c #B31010",
"o 	c #FF4040",
"p 	c #FFD9D9",
"q 	c #FFEEEE",
"r 	c #FFE4E4",
"s 	c #FFBDBD",
"t 	c #FF8686",
"u 	c #FF5555",
"v 	c #FF3535",
"w 	c #FF1D1D",
"x 	c #D21616",
"y 	c #FFA2A2",
"z 	c #FFD1D1",
"A 	c #FFD4D4",
"B 	c #FFACAC",
"C 	c #FF6E6E",
"D 	c #FF2121",
"E 	c #F21818",
"F 	c #FF6767",
"G 	c #FFABAB",
"H 	c #FFC2C2",
"I 	c #FFA1A1",
"J 	c #FF6868",
"K 	c #FF1212",
"L 	c #FF1616",
"M 	c #F10000",
"N 	c #FF2222",
"O 	c #FF6B6B",
"P 	c #FFA9A9",
"Q 	c #FFAAAA",
"R 	c #FF1B1B",
"S 	c #FF2727",
"T 	c #FF1A1A",
"U 	c #FF6262",
"V 	c #FF9292",
"W 	c #FF8282",
"X 	c #FF4D4D",
"Y 	c #FF1F1F",
"Z 	c #FF2A2A",
"` 	c #FF4646",
" .	c #FF5151",
"..	c #F11010",
"+.	c #FF5050",
"@.	c #FF7878",
"#.	c #FF5B5B",
"$.	c #FF2B2B",
"%.	c #FF1313",
"&.	c #FF5656",
"*.	c #FF3C3C",
"=.	c #F10F0F",
"-.	c #CF0808",
";.	c #FF4B4B",
">.	c #FF3636",
",.	c #FF3F3F",
"'.	c #FF9B9B",
").	c #FF9696",
"!.	c #FF4141",
"~.	c #D01313",
"{.	c #AE0101",
"].	c #FF1717",
"^.	c #FF1919",
"/.	c #FF0F0F",
"(.	c #FF3B3B",
"_.	c #FF6666",
":.	c #FF9898",
"<.	c #FFAEAE",
"[.	c #FF9D9D",
"}.	c #FF6565",
"|.	c #FF3232",
"1.	c #B41515",
"2.	c #DF0101",
"3.	c #FF5A5A",
"4.	c #FF7272",
"5.	c #FF8E8E",
"6.	c #FFAFAF",
"7.	c #FF8484",
"8.	c #FF4848",
"9.	c #E11414",
"0.	c #FF4747",
"a.	c #FF9E9E",
"b.	c #FF8585",
"c.	c #FF1515",
"d.	c #FF7575",
"e.	c #FF8383",
"f.	c #FF4242",
"g.	c #B00606",
"h.	c #FF1E1E",
"i.	c #FF3131",
"j.	c #E00E0E",
"k.	c #FF0B0B",
"l.	c #F10606",
"m.	c #CE0303",
"                                            ",
"                                            ",
"              . + @ # $ % & *               ",
"            = - ; > , ' ) ! ~ {             ",
"        ] ^ / ( _ : < [ } | 1 ~ 2 *         ",
"        3 4 5 6 7 8 9 0 a b ! ~ ~ 2         ",
"      c d e f g h i j k l m # ~ ~ ~ {       ",
"    n o _ p q r s t u v w # ~ ~ ~ ~ ~ *     ",
"    x u y z A B C , D ! ~ ~ ~ ~ ~ ~ ~ &     ",
"    E F G H I J ^ K ~ ~ ~ ~ ~ ~ ! L ~ M     ",
"    N O P Q k 3 L ~ ~ ~ ~ ~ # R S m T $     ",
"    D U V W X Y # ~ ~ ~ ~ L Z `  .> | K     ",
"    ..+.@.#.$.%.~ ~ ~ ~ %.S &.4 4 U *.=.    ",
"    -.' ;.>.T ~ ~ ~ ~ ! Y ,.@.'.).C !.~.    ",
"    {.].Y ^./.~ ~ # T | (._.:.<.[.}.|.1.    ",
"      2./.~ ~ ~ ~ L |.3.4.5.6.6.7.8.9.      ",
"        2 ~ ~ ~ ~ R 0.W :.'.a.b.l N         ",
"        * 2 ~ ~ ~ c.; d.e.4.U f.Y g.        ",
"            { ~ ~ /.h., ; i.m j.            ",
"              * & M k./.l.m.*               ",
"                                            ",
"                                            "};
