/* XPM */
static char * IconMoveMenu_xpm[] = {
"22 22 3 1",
" 	c None",
".	c #929292",
"+	c #000000",
"                      ",
"          .           ",
"         +..          ",
"        +++..         ",
"       +++++          ",
"         +.           ",
"     .   +.           ",
"    +.   +.   +.      ",
"   ++....+....++.     ",
"  +++++++++++++++.    ",
"   ++    +.   ++      ",
"    +    +.   +       ",
"         +.           ",
"         +...         ",
"       +++++          ",
"        +++           ",
"         +            ",
"                      ",
"            +++++++   ",
"             +++++    ",
"              +++     ",
"               +      "};
