/* XPM */
static char *IconeAddArea[] = {
/* columns rows colors chars-per-pixel */
"22 22 54 1",
"  c #00000000",
". c #07070800",
"X c #08050500",
"o c #08070800",
"O c #08080700",
"+ c #0D0D0D00",
"@ c #23221C00",
"# c #36202200",
"$ c #3E363600",
"% c #3B353C00",
"& c #4F351F00",
"* c #4B524D00",
"= c #4E515B00",
"- c #4E585A00",
"; c #524D5800",
": c #635C5B00",
"> c #685F5300",
", c #60556000",
"< c #64586400",
"1 c #715C6400",
"2 c #6D635B00",
"3 c #72695C00",
"4 c #67656F00",
"5 c #6F686000",
"6 c #6C6C6D00",
"7 c #6E6B7200",
"8 c #6E6F7800",
"9 c #756F7C00",
"0 c #7F6B7000",
"q c #74727600",
"w c #75717C00",
"e c #7E727800",
"r c #887E8800",
"t c #84806E00",
"y c #ACABAC00",
"u c #ADADB000",
"i c #AFB1AE00",
"p c #AEB1B100",
"a c #B1AAA700",
"s c #B1ADAC00",
"d c #B1AEB100",
"f c #B3B0AD00",
"g c #B4B2B300",
"h c #B5B5B800",
"j c #BCB3B400",
"k c #B8B6B900",
"l c #BABABB00",
"z c #BDBEC000",
"x c #BFC1C100",
"c c #C0B4B400",
"v c #C0BCBF00",
"b c #C0C0C000",
"n c gray100",
"m c None",
/* pixels */
"mmmmmmmmmmmmmmmmmmmmmm",
"m                    m",
"m ksglxussssgfssyfsy m",
"m ssfgiughgssssyysas m",
"m sssfpyyiyysssssfgg m",
"m saffyyylissglkgsss m",
"m gyf>--**@X....%3yu m",
"m lzl22252. Ooo .tkh m",
"m hhg47q48oOnnn..=gp m",
"m kkk91re0O nnnO.=hh m",
"m zkk,#XoO XnnnO +++ m",
"m ygh<X OOO&nnn$oo+  m",
"m sgg;.Xnnnnnnnnnnn+ m",
"m hgkw.onnnnnnnnnnn+ m",
"m kklh++nnnnnnnnnnn+ m",
"m hhll+ +++6nnn6+++  m",
"m kkkh7+++X+nnn+ +++ m",
"m klggggkd++nnn++kuu m",
"m gglcjjbv++nnn++ugp m",
"m dddsjjjs+ +++ +khx m",
"m                    m",
"mmmmmmmmmmmmmmmmmmmmmm"
};
