/* XPM */
static char * Lena_xpm[] = {
"32 32 1014 2",
"  	c None",
". 	c #E78B70",
"+ 	c #E2876C",
"@ 	c #DE6E61",
"# 	c #A23D4E",
"$ 	c #B14650",
"% 	c #B04751",
"& 	c #C14E55",
"* 	c #CB5657",
"= 	c #CE5C58",
"- 	c #CE5D5B",
"; 	c #CF5E5E",
"> 	c #D05E5F",
", 	c #D25D5E",
"' 	c #CF5C5C",
") 	c #C85B5A",
"! 	c #C75F5E",
"~ 	c #C75F5F",
"{ 	c #C66260",
"] 	c #CB6061",
"^ 	c #CF5D62",
"/ 	c #CD5D61",
"( 	c #C95C5F",
"_ 	c #BF545D",
": 	c #BF545C",
"< 	c #D7766E",
"[ 	c #E18372",
"} 	c #E2856D",
"| 	c #DF8270",
"1 	c #DE806E",
"2 	c #DC7A69",
"3 	c #DD8A6B",
"4 	c #FBD1A2",
"5 	c #DF725D",
"6 	c #E9896F",
"7 	c #DC6F61",
"8 	c #A03B4C",
"9 	c #AF444E",
"0 	c #B04851",
"a 	c #C14E56",
"b 	c #CD5B5A",
"c 	c #D05A5C",
"d 	c #D25B61",
"e 	c #CC6367",
"f 	c #C36369",
"g 	c #C67576",
"h 	c #C88784",
"i 	c #D09996",
"j 	c #CF9F97",
"k 	c #D39591",
"l 	c #C97175",
"m 	c #C05D60",
"n 	c #CB5A61",
"o 	c #C6585E",
"p 	c #BC5159",
"q 	c #BC5158",
"r 	c #D7716C",
"s 	c #DC776E",
"t 	c #E17C71",
"u 	c #DE7A6A",
"v 	c #DB7767",
"w 	c #D87162",
"x 	c #D77161",
"y 	c #ECAC8C",
"z 	c #D96757",
"A 	c #ED8C72",
"B 	c #DA6F5F",
"C 	c #9A3447",
"D 	c #AA3E4B",
"E 	c #AC4450",
"F 	c #BC4B53",
"G 	c #C75356",
"H 	c #CB565A",
"I 	c #CB595D",
"J 	c #C95B60",
"K 	c #C35D64",
"L 	c #BD636D",
"M 	c #C06D79",
"N 	c #C77B7F",
"O 	c #D0958A",
"P 	c #D3A79A",
"Q 	c #D8B0A2",
"R 	c #DEB4A6",
"S 	c #CD9289",
"T 	c #B8595E",
"U 	c #BE515B",
"V 	c #B54C5A",
"W 	c #BB505A",
"X 	c #DB726C",
"Y 	c #DB7271",
"Z 	c #DC706E",
"` 	c #DC7264",
" .	c #DB7362",
"..	c #D66F64",
"+.	c #DD6F64",
"@.	c #DF776A",
"#.	c #D76A5D",
"$.	c #EB8D73",
"%.	c #D96D5C",
"&.	c #9A3347",
"*.	c #AB3F4F",
"=.	c #AC4451",
"-.	c #B94A54",
";.	c #C65258",
">.	c #CA555B",
",.	c #CA585D",
"'.	c #BF5055",
").	c #BF565F",
"!.	c #C15F67",
"~.	c #C36970",
"{.	c #C57173",
"].	c #CF8B82",
"^.	c #DAA79B",
"/.	c #D9B1A2",
"(.	c #D9BBAB",
"_.	c #E1C3B8",
":.	c #DFBFB8",
"<.	c #B05D67",
"[.	c #AE4359",
"}.	c #B94858",
"|.	c #E1746C",
"1.	c #DE7371",
"2.	c #B14D54",
"3.	c #D66B6A",
"4.	c #DC7061",
"5.	c #D96F63",
"6.	c #E07665",
"7.	c #CE6765",
"8.	c #D4675D",
"9.	c #EA8A75",
"0.	c #D86B5D",
"a.	c #9C3449",
"b.	c #AC4151",
"c.	c #AC4351",
"d.	c #C9575B",
"e.	c #BD4E52",
"f.	c #BE5256",
"g.	c #BF565E",
"h.	c #C46364",
"i.	c #CC6E6E",
"j.	c #CE6F70",
"k.	c #CF807C",
"l.	c #D59E92",
"m.	c #E1B8AD",
"n.	c #E0C3BA",
"o.	c #E0C2B7",
"p.	c #E1CAC0",
"q.	c #DCB5B1",
"r.	c #9F4E5B",
"s.	c #AE4351",
"t.	c #DF746C",
"u.	c #E6766D",
"v.	c #943249",
"w.	c #AD455B",
"x.	c #E26F69",
"y.	c #DD6E61",
"z.	c #DE6E6D",
"A.	c #782441",
"B.	c #D1645E",
"C.	c #E98973",
"D.	c #DA6E65",
"E.	c #9A334C",
"F.	c #AC3C4F",
"G.	c #A94455",
"H.	c #B84B55",
"I.	c #C15354",
"J.	c #C55D5C",
"K.	c #B94D54",
"L.	c #BF5158",
"M.	c #C75D63",
"N.	c #CC6C6D",
"O.	c #C96D6E",
"P.	c #BE6B68",
"Q.	c #D3938A",
"R.	c #E4B2A5",
"S.	c #E0B5AA",
"T.	c #E2BDB6",
"U.	c #E4C2B9",
"V.	c #E5C4BB",
"W.	c #E2CBC0",
"X.	c #DFBBB3",
"Y.	c #A0474F",
"Z.	c #DF7367",
"`.	c #E37868",
" +	c #963550",
".+	c #6A183D",
"++	c #CA6C66",
"@+	c #DD8571",
"#+	c #994156",
"$+	c #5E183A",
"%+	c #D2615A",
"&+	c #E88A70",
"*+	c #D87063",
"=+	c #973046",
"-+	c #AB3C4B",
";+	c #AB4552",
">+	c #B84656",
",+	c #C56560",
"'+	c #C35D5B",
")+	c #B84D54",
"!+	c #C1545B",
"~+	c #C65F63",
"{+	c #C16465",
"]+	c #BC6B68",
"^+	c #D6928B",
"/+	c #D9A195",
"(+	c #DCA89B",
"_+	c #DFB1A8",
":+	c #DFB7B1",
"<+	c #DEBEB4",
"[+	c #DFC0B6",
"}+	c #E1C7BC",
"|+	c #DBD1C1",
"1+	c #C38D8F",
"2+	c #DA7167",
"3+	c #8E3646",
"4+	c #926174",
"5+	c #E0BEB7",
"6+	c #EAD7C5",
"7+	c #7B4D67",
"8+	c #641B43",
"9+	c #D8645B",
"0+	c #EC8F73",
"a+	c #DA7567",
"b+	c #9B3447",
"c+	c #AC3F4B",
"d+	c #AD434F",
"e+	c #BC495A",
"f+	c #CD756A",
"g+	c #BE5754",
"h+	c #B44852",
"i+	c #BF5358",
"j+	c #C25C60",
"k+	c #C26767",
"l+	c #D1817E",
"m+	c #D58E89",
"n+	c #DC9E95",
"o+	c #DBA297",
"p+	c #D6A19B",
"q+	c #DAAAA6",
"r+	c #DFB3AC",
"s+	c #DBB2AB",
"t+	c #DAB7AE",
"u+	c #DCC1B9",
"v+	c #DDBDBB",
"w+	c #DF9183",
"x+	c #DA867C",
"y+	c #D09E9A",
"z+	c #E1C2B6",
"A+	c #DEC7B8",
"B+	c #E4CFBC",
"C+	c #84516A",
"D+	c #651742",
"E+	c #D8675B",
"F+	c #EF9374",
"G+	c #DB7669",
"H+	c #9E3447",
"I+	c #AB404A",
"J+	c #B0404F",
"K+	c #B54451",
"L+	c #D98172",
"M+	c #CD665B",
"N+	c #B84A54",
"O+	c #C0545A",
"P+	c #CB6367",
"Q+	c #CF7172",
"R+	c #CF7976",
"S+	c #D58781",
"T+	c #D7938B",
"U+	c #D8988F",
"V+	c #D99B94",
"W+	c #D99D97",
"X+	c #DBA29D",
"Y+	c #DAA8A3",
"Z+	c #D9ADA7",
"`+	c #D3A6A5",
" @	c #CFAAA4",
".@	c #DBB5A2",
"+@	c #E0BEAD",
"@@	c #DDC1B6",
"#@	c #E0C2B4",
"$@	c #D9B5A9",
"%@	c #E8C1B8",
"&@	c #672848",
"*@	c #611841",
"=@	c #D76A5A",
"-@	c #ED9672",
";@	c #DA7968",
">@	c #AF404E",
",@	c #AE3E4B",
"'@	c #E08879",
")@	c #DF7D62",
"!@	c #C24F55",
"~@	c #C35A62",
"{@	c #CD656D",
"]@	c #CF6A71",
"^@	c #D17274",
"/@	c #D17B7A",
"(@	c #D08386",
"_@	c #CF878C",
":@	c #D2888B",
"<@	c #D78B8B",
"[@	c #D79190",
"}@	c #D69596",
"|@	c #D09894",
"1@	c #D6A19F",
"2@	c #DDB0AA",
"3@	c #E1B9AE",
"4@	c #DFBBB2",
"5@	c #E0C0B8",
"6@	c #E4B8AF",
"7@	c #C58985",
"8@	c #B57E7F",
"9@	c #5B193E",
"0@	c #60173E",
"a@	c #DB6D5A",
"b@	c #EA966F",
"c@	c #DD7A69",
"d@	c #9D3248",
"e@	c #AA3F49",
"f@	c #B03F4C",
"g@	c #AA3B49",
"h@	c #E29275",
"i@	c #E38D68",
"j@	c #CB605E",
"k@	c #BF5C63",
"l@	c #CB656C",
"m@	c #CA636A",
"n@	c #CB6873",
"o@	c #C36B7A",
"p@	c #A85A74",
"q@	c #9F5A78",
"r@	c #A36083",
"s@	c #985778",
"t@	c #8D4569",
"u@	c #A76473",
"v@	c #D7A49A",
"w@	c #E3B6AB",
"x@	c #DAB8A8",
"y@	c #DCBCB0",
"z@	c #E6BEBB",
"A@	c #D3A7A1",
"B@	c #B26D6B",
"C@	c #BB7577",
"D@	c #7A4159",
"E@	c #5D173F",
"F@	c #70244A",
"G@	c #DD6D61",
"H@	c #EA9671",
"I@	c #DF7B68",
"J@	c #9D3347",
"K@	c #A93E4A",
"L@	c #B33F4E",
"M@	c #B2404E",
"N@	c #CB7767",
"O@	c #E49977",
"P@	c #CB6364",
"Q@	c #C55E6B",
"R@	c #C05E69",
"S@	c #C5616A",
"T@	c #BA6072",
"U@	c #95486D",
"V@	c #752C5E",
"W@	c #793664",
"X@	c #7B3A6F",
"Y@	c #6C2F5E",
"Z@	c #8F516B",
"`@	c #D19B96",
" #	c #DEAD9D",
".#	c #DCB0A7",
"+#	c #DBB6AA",
"@#	c #C5A09C",
"##	c #B27B83",
"$#	c #BF6867",
"%#	c #D0817D",
"&#	c #84414F",
"*#	c #65183C",
"=#	c #611843",
"-#	c #9F5268",
";#	c #D5665F",
">#	c #EC9774",
",#	c #DF7C66",
"'#	c #9C3344",
")#	c #A93B4A",
"!#	c #AE3F4E",
"~#	c #B44351",
"{#	c #B75057",
"]#	c #ECA885",
"^#	c #CD6761",
"/#	c #C45B67",
"(#	c #BF5D6E",
"_#	c #B25472",
":#	c #87375F",
"<#	c #692659",
"[#	c #672556",
"}#	c #64264F",
"|#	c #713064",
"1#	c #92597A",
"2#	c #DA9EA2",
"3#	c #D4A89D",
"4#	c #CFA49C",
"5#	c #DBAAA6",
"6#	c #E0A5A3",
"7#	c #98495F",
"8#	c #A1607C",
"9#	c #CB8083",
"0#	c #7B3048",
"a#	c #661940",
"b#	c #5F1739",
"c#	c #6C2244",
"d#	c #B96B7A",
"e#	c #D2625F",
"f#	c #EC9776",
"g#	c #E47E6B",
"h#	c #9A3445",
"i#	c #AD3C4C",
"j#	c #AF3F4F",
"k#	c #B74654",
"l#	c #B94856",
"m#	c #E09880",
"n#	c #C25B56",
"o#	c #BF5567",
"p#	c #AE4D67",
"q#	c #742C50",
"r#	c #64224C",
"s#	c #6B285A",
"t#	c #753266",
"u#	c #5B1642",
"v#	c #98516D",
"w#	c #BF8A95",
"x#	c #D5A29C",
"y#	c #D39A93",
"z#	c #D8A198",
"A#	c #ECB6AC",
"B#	c #F1B8AC",
"C#	c #B75969",
"D#	c #81395A",
"E#	c #924C63",
"F#	c #60143E",
"G#	c #6A1E48",
"H#	c #5F153E",
"I#	c #8C465D",
"J#	c #C47C7A",
"K#	c #D05F60",
"L#	c #EB9678",
"M#	c #E47D6E",
"N#	c #9B354A",
"O#	c #B03E52",
"P#	c #B24454",
"Q#	c #BE4C55",
"R#	c #C74F54",
"S#	c #CB6A63",
"T#	c #C05C62",
"U#	c #AA4C69",
"V#	c #6F224B",
"W#	c #662450",
"X#	c #5F1E4B",
"Y#	c #662454",
"Z#	c #72305B",
"`#	c #A1576A",
" $	c #D89992",
".$	c #CE979B",
"+$	c #D99390",
"@$	c #DF8F8C",
"#$	c #E7A99E",
"$$	c #F0B7A8",
"%$	c #F4C8B1",
"&$	c #D28283",
"*$	c #6E1D45",
"=$	c #934E6B",
"-$	c #661E46",
";$	c #671F47",
">$	c #631A40",
",$	c #AF696F",
"'$	c #D18F7B",
")$	c #CD5C5D",
"!$	c #EB9679",
"~$	c #E48070",
"{$	c #9B344B",
"]$	c #AD4153",
"^$	c #B34250",
"/$	c #BA4953",
"($	c #CB5D5C",
"_$	c #A54552",
":$	c #B0546C",
"<$	c #7B305B",
"[$	c #68295A",
"}$	c #642051",
"|$	c #5E1B49",
"1$	c #692552",
"2$	c #8E4A5B",
"3$	c #D7968B",
"4$	c #D09D8F",
"5$	c #CA7578",
"6$	c #C05D63",
"7$	c #DA787A",
"8$	c #E89A94",
"9$	c #EFB0A4",
"0$	c #EBA69D",
"a$	c #C46C74",
"b$	c #671C3F",
"c$	c #974F6B",
"d$	c #6B2149",
"e$	c #631942",
"f$	c #7C3350",
"g$	c #C37C79",
"h$	c #D18C7E",
"i$	c #CA5B5E",
"j$	c #EC997A",
"k$	c #E4816E",
"l$	c #A53249",
"m$	c #B13F4D",
"n$	c #AD3D4E",
"o$	c #C56262",
"p$	c #D77870",
"q$	c #9C495E",
"r$	c #753059",
"s$	c #743C72",
"t$	c #5E2352",
"u$	c #641E4D",
"v$	c #652150",
"w$	c #712B49",
"x$	c #CD8F89",
"y$	c #D4A295",
"z$	c #91414F",
"A$	c #7F2A48",
"B$	c #9E465E",
"C$	c #BD5059",
"D$	c #E48378",
"E$	c #E49E94",
"F$	c #963F56",
"G$	c #822C44",
"H$	c #661A3B",
"I$	c #A15070",
"J$	c #6D2241",
"K$	c #651841",
"L$	c #9B5163",
"M$	c #CD847D",
"N$	c #D0877D",
"O$	c #C2565C",
"P$	c #ED9D7C",
"Q$	c #E5856F",
"R$	c #AA384B",
"S$	c #B4464D",
"T$	c #A4475B",
"U$	c #B06C76",
"V$	c #8F4E61",
"W$	c #793368",
"X$	c #662B63",
"Y$	c #814A7B",
"Z$	c #5F2853",
"`$	c #601946",
" %	c #5B153A",
".%	c #AE6871",
"+%	c #D99990",
"@%	c #C86B6D",
"#%	c #BD5564",
"$%	c #B45D6D",
"%%	c #DC888F",
"&%	c #CC5A64",
"*%	c #E27B7E",
"=%	c #D49397",
"-%	c #B55D73",
";%	c #903553",
">%	c #6B193D",
",%	c #9D5371",
"'%	c #6F2347",
")%	c #6A1C3E",
"!%	c #B86E6F",
"~%	c #D0857C",
"{%	c #CE837C",
"]%	c #BD5458",
"^%	c #EF9B7C",
"/%	c #E9876F",
"(%	c #A43848",
"_%	c #BB4D56",
":%	c #B15F81",
"<%	c #7B3D65",
"[%	c #6C3669",
"}%	c #763C6F",
"|%	c #63275C",
"1%	c #83497B",
"2%	c #713657",
"3%	c #5C143F",
"4%	c #853D52",
"5%	c #CC9591",
"6%	c #B2545A",
"7%	c #D86972",
"8%	c #E58286",
"9%	c #E38B8B",
"0%	c #E48C88",
"a%	c #DC6B6F",
"b%	c #DD7074",
"c%	c #EBAEAC",
"d%	c #DA7172",
"e%	c #B44A59",
"f%	c #731B3D",
"g%	c #A05670",
"h%	c #691E42",
"i%	c #7F2F46",
"j%	c #C57C78",
"k%	c #D0867B",
"l%	c #CD827B",
"m%	c #B45056",
"n%	c #EE977D",
"o%	c #E8826E",
"p%	c #A43B4E",
"q%	c #B75268",
"r%	c #914578",
"s%	c #733B6D",
"t%	c #7A4A80",
"u%	c #682A57",
"v%	c #5B1649",
"w%	c #6B2445",
"x%	c #975564",
"y%	c #641D3D",
"z%	c #BA7A82",
"A%	c #884D59",
"B%	c #B14154",
"C%	c #DC636B",
"D%	c #E47F80",
"E%	c #EA9590",
"F%	c #E28683",
"G%	c #DD686D",
"H%	c #DD666C",
"I%	c #EEAEA9",
"J%	c #DD7573",
"K%	c #B34F5E",
"L%	c #711C3F",
"M%	c #974B61",
"N%	c #732648",
"O%	c #9D4B5A",
"P%	c #CF867B",
"Q%	c #CE847A",
"R%	c #CA7F78",
"S%	c #B14C53",
"T%	c #ED947E",
"U%	c #E88470",
"V%	c #A43E4F",
"W%	c #B1516F",
"X%	c #884172",
"Y%	c #773B73",
"Z%	c #7B4D84",
"`%	c #6D3360",
" &	c #601944",
".&	c #823B56",
"+&	c #76324A",
"@&	c #935160",
"#&	c #A16773",
"$&	c #641D39",
"%&	c #B34053",
"&&	c #DB5E65",
"*&	c #E37174",
"=&	c #E67F7E",
"-&	c #E27877",
";&	c #D75B62",
">&	c #D65C64",
",&	c #EBA4A0",
"'&	c #DC6F6E",
")&	c #933554",
"!&	c #712046",
"~&	c #8A4052",
"{&	c #853453",
"]&	c #BC686B",
"^&	c #CF877A",
"/&	c #CB817A",
"(&	c #C87E77",
"_&	c #C45F64",
":&	c #EC927D",
"<&	c #EB8874",
"[&	c #9F3949",
"}&	c #A94A69",
"|&	c #793566",
"1&	c #70346C",
"2&	c #7A477C",
"3&	c #834C80",
"4&	c #733252",
"5&	c #732C56",
"6&	c #985061",
"7&	c #AE6F7A",
"8&	c #642447",
"9&	c #722545",
"0&	c #BD4855",
"a&	c #DB5C61",
"b&	c #E1696C",
"c&	c #E87877",
"d&	c #E47977",
"e&	c #D66769",
"f&	c #DA7473",
"g&	c #E6918B",
"h&	c #C56368",
"i&	c #6A1D46",
"j&	c #792849",
"k&	c #7E2C44",
"l&	c #A35464",
"m&	c #D07C7A",
"n&	c #CB8479",
"o&	c #C9837B",
"p&	c #C67F78",
"q&	c #C86367",
"r&	c #ED947D",
"s&	c #EB8975",
"t&	c #A74B68",
"u&	c #753163",
"v&	c #672960",
"w&	c #753D6F",
"x&	c #7E4B7B",
"y&	c #824167",
"z&	c #B77782",
"A&	c #AD6870",
"B&	c #712A48",
"C&	c #671C40",
"D&	c #772443",
"E&	c #B84153",
"F&	c #D95A5E",
"G&	c #E06466",
"H&	c #DF6565",
"I&	c #DB6568",
"J&	c #D96B70",
"K&	c #E28E8A",
"L&	c #DA7C7F",
"M&	c #954159",
"N&	c #601845",
"O&	c #802D46",
"P&	c #722248",
"Q&	c #BB6D6C",
"R&	c #D08078",
"S&	c #C88377",
"T&	c #C58177",
"U&	c #C27E75",
"V&	c #C56663",
"W&	c #EE9A7C",
"X&	c #EB8F7D",
"Y&	c #A9455A",
"Z&	c #9D4A66",
"`&	c #6F295C",
" *	c #6D3467",
".*	c #86518A",
"+*	c #7C4A7D",
"@*	c #AA6385",
"#*	c #C88681",
"$*	c #85405B",
"%*	c #5D183E",
"&*	c #681D40",
"**	c #722244",
"=*	c #9D3348",
"-*	c #C95254",
";*	c #D96061",
">*	c #E26668",
",*	c #D6535B",
"'*	c #DD5C6B",
")*	c #E36F7B",
"!*	c #661A41",
"~*	c #832E43",
"{*	c #772245",
"]*	c #C77872",
"^*	c #CB8875",
"/*	c #CA8775",
"(*	c #C58375",
"_*	c #C17D76",
":*	c #C16260",
"<*	c #EC987A",
"[*	c #E98B77",
"}*	c #A03D54",
"|*	c #853B5D",
"1*	c #6B2559",
"2*	c #6E3769",
"3*	c #875A90",
"4*	c #86588E",
"5*	c #9C5A7B",
"6*	c #9D5F68",
"7*	c #611C46",
"8*	c #661A43",
"9*	c #661A40",
"0*	c #6C1D3F",
"a*	c #782342",
"b*	c #9D3744",
"c*	c #CD5559",
"d*	c #DC646D",
"e*	c #E26E70",
"f*	c #E57A78",
"g*	c #E1757A",
"h*	c #87354D",
"i*	c #5B1A44",
"j*	c #6A1D43",
"k*	c #8A354B",
"l*	c #7E294C",
"m*	c #C57C7B",
"n*	c #C68A7C",
"o*	c #C5887B",
"p*	c #C1847B",
"q*	c #BB7D7B",
"r*	c #C2605D",
"s*	c #EC967B",
"t*	c #E38877",
"u*	c #A24F62",
"v*	c #732F57",
"w*	c #6B2454",
"x*	c #612B5A",
"y*	c #7A4C7F",
"z*	c #855C8F",
"A*	c #9A6896",
"B*	c #784065",
"C*	c #601F49",
"D*	c #6C1D41",
"E*	c #61183C",
"F*	c #651B3C",
"G*	c #6C2243",
"H*	c #802542",
"I*	c #AD3C4A",
"J*	c #C85966",
"K*	c #D7747A",
"L*	c #E18684",
"M*	c #D3817F",
"N*	c #773A52",
"O*	c #5F214E",
"P*	c #691E41",
"Q*	c #923B4F",
"R*	c #86304E",
"S*	c #BC7473",
"T*	c #B66E6C",
"U*	c #B97773",
"V*	c #BB7D7A",
"W*	c #B1797E",
"X*	c #A8424D",
"Y*	c #E8917B",
"Z*	c #E48D7C",
"`*	c #9A5161",
" =	c #5A1B43",
".=	c #6D2B56",
"+=	c #6E3262",
"@=	c #7E477B",
"#=	c #845387",
"$=	c #85588A",
"%=	c #936289",
"&=	c #71355C",
"*=	c #691C44",
"==	c #621B40",
"-=	c #6E2040",
";=	c #89314B",
">=	c #C85962",
",=	c #D4626A",
"'=	c #DA6B71",
")=	c #D27673",
"!=	c #E2A093",
"~=	c #E4B7A1",
"{=	c #B88F8E",
"]=	c #71374F",
"^=	c #873451",
"/=	c #86324D",
"(=	c #C07774",
"_=	c #B66A6C",
":=	c #AA6064",
"<=	c #A1575E",
"[=	c #9F575D",
"}=	c #A13A53",
"|=	c #EA9380",
"1=	c #E18C78",
"2=	c #985263",
"3=	c #551941",
"4=	c #672953",
"5=	c #6E2C5D",
"6=	c #6A2C61",
"7=	c #6D3269",
"8=	c #86588A",
"9=	c #94698D",
"0=	c #864F72",
"a=	c #661E48",
"b=	c #631C3F",
"c=	c #691E46",
"d=	c #852F4A",
"e=	c #8B3247",
"f=	c #CA585C",
"g=	c #DB6464",
"h=	c #DB6B6C",
"i=	c #DE7E77",
"j=	c #E29888",
"k=	c #E9A995",
"l=	c #EDBDA1",
"m=	c #E0B6A7",
"n=	c #843D54",
"o=	c #7E2E48",
"p=	c #C67B78",
"q=	c #C17A7A",
"r=	c #BE7479",
"s=	c #B36976",
"t=	c #B56462",
"u=	c #923D4E",
"v=	c #EA987B",
"w=	c #E58F76",
"x=	c #86415D",
"y=	c #5B1846",
"z=	c #5B1B47",
"A=	c #71325F",
"B=	c #5F204D",
"C=	c #6C3163",
"D=	c #7A487C",
"E=	c #996E99",
"F=	c #80557A",
"G=	c #6B2749",
"H=	c #661C3C",
"I=	c #66193F",
"J=	c #9D3848",
"K=	c #983542",
"L=	c #D35C5E",
"M=	c #DD6566",
"N=	c #DF6A6A",
"O=	c #E17A75",
"P=	c #DF8C80",
"Q=	c #E69F8B",
"R=	c #ECB5A1",
"S=	c #F2C8B6",
"T=	c #CA989D",
"U=	c #7C2940",
"V=	c #C77E75",
"W=	c #C07D78",
"X=	c #B97374",
"Y=	c #B26E6E",
"Z=	c #D08876",
"`=	c #933E4D",
" -	c #E99878",
".-	c #E69174",
"+-	c #803A56",
"@-	c #591644",
"#-	c #642450",
"$-	c #662754",
"%-	c #5A1B48",
"&-	c #5E2355",
"*-	c #744276",
"=-	c #916692",
"--	c #83577C",
";-	c #773054",
">-	c #6F2548",
",-	c #75223C",
"'-	c #BE4F5C",
")-	c #A13C4A",
"!-	c #D76061",
"~-	c #DE6667",
"{-	c #E0716F",
"]-	c #E1827A",
"^-	c #E39583",
"/-	c #E7AF9B",
"(-	c #EEC2B0",
"_-	c #ECC8BB",
":-	c #974F57",
"<-	c #C57E74",
"[-	c #BB7C75",
"}-	c #B77475",
"|-	c #AF6B67",
"1-	c #EFBA91",
"2-	c #984450",
"3-	c #EA9773",
"4-	c #E69275",
"5-	c #8C3F5D",
"6-	c #5C1947",
"7-	c #5F1E4A",
"8-	c #60224C",
"9-	c #5C1D49",
"0-	c #63285A",
"a-	c #6F3B70",
"b-	c #7E4B79",
"c-	c #7E436D",
"d-	c #661C43",
"e-	c #661C3F",
"f-	c #943344",
"g-	c #BF4E5C",
"h-	c #B0474F",
"i-	c #DE6863",
"j-	c #E16965",
"k-	c #DE6564",
"l-	c #DF6C69",
"m-	c #DF7D73",
"n-	c #E18E7B",
"o-	c #E4A895",
"p-	c #ECBDAD",
"q-	c #EFCEB9",
"r-	c #C38980",
"s-	c #B46961",
"t-	c #BB7670",
"u-	c #B97875",
"v-	c #BF746B",
"w-	c #D9946D",
"x-	c #A24F5A",
"y-	c #E7936D",
"z-	c #E59174",
"A-	c #8E3C5C",
"B-	c #591643",
"C-	c #601F4A",
"D-	c #62244D",
"E-	c #5B1C48",
"F-	c #5E2154",
"G-	c #834F84",
"H-	c #794171",
"I-	c #65234F",
"J-	c #5C133B",
"K-	c #701D39",
"L-	c #BA464D",
"M-	c #A33544",
"N-	c #C95D65",
"O-	c #E06864",
"P-	c #E36B68",
"Q-	c #E06763",
"R-	c #DA6963",
"S-	c #D8766A",
"T-	c #DC8573",
"U-	c #DF9D8C",
"V-	c #E8B7A8",
"W-	c #ECC7B4",
"X-	c #D8A497",
"Y-	c #963D50",
"Z-	c #8D3A4E",
"`-	c #823949",
" ;	c #BF7369",
".;	c #E49B71",
". + @ # $ % & * = - ; > , ' ) ! ~ { ] ^ / ( _ : < [ } | 1 2 3 4 ",
"5 6 7 8 9 0 a * b c d e f g h i j k l m n o p q r s t u v w x y ",
"z A B C D E F G H I J K L M N O P Q R S T U V W X Y Z `  ...+.@.",
"#.$.%.&.*.=.-.;.>.,.'.).!.~.{.].^./.(._.:.<.[.}.|.1.2.3.4.5.6.7.",
"8.9.0.a.b.c.-.;.d.e.f.g.h.i.j.k.l.m.n.o.p.q.r.s.t.u.v.w.x.y.z.A.",
"B.C.D.E.F.G.H.I.J.K.L.M.N.O.P.Q.R.S.T.U.V.W.X.Y.Z.`. +.+++@+#+$+",
"%+&+*+=+-+;+>+,+'+)+!+~+{+]+^+/+(+_+:+<+[+}+|+1+2+u.3+4+5+6+7+8+",
"9+0+a+b+c+d+e+f+g+h+i+j+k+l+m+n+o+p+q+r+s+t+u+v+w+x+y+z+A+B+C+D+",
"E+F+G+H+I+J+K+L+M+N+O+P+Q+R+S+T+U+V+W+X+Y+Z+`+ @.@+@@@#@$@%@&@*@",
"=@-@;@H+I+>@,@'@)@!@~@{@]@^@/@(@_@:@<@[@}@|@1@2@3@4@5@6@7@8@9@0@",
"a@b@c@d@e@f@g@h@i@j@k@l@m@n@o@p@q@r@s@t@u@v@w@x@y@z@A@B@C@D@E@F@",
"G@H@I@J@K@L@M@N@O@P@Q@R@S@T@U@V@W@X@Y@Z@`@ #.#+#@###$#%#&#*#=#-#",
";#>#,#'#)#!#~#{#]#^#/#(#_#:#<#[#}#|#1#2#3#4#5#6#7#8#9#0#a#b#c#d#",
"e#f#g#h#i#j#k#l#m#n#o#p#q#r#s#t#u#v#w#x#y#z#A#B#C#D#E#F#G#H#I#J#",
"K#L#M#N#O#P#Q#R#S#T#U#V#W#X#Y#Z#`# $.$+$@$#$$$%$&$*$=$-$;$>$,$'$",
")$!$~${$]$^$/$($_$:$<$[$}$|$1$2$3$4$5$6$7$8$9$0$a$b$c$d$e$f$g$h$",
"i$j$k$l$m$n$o$p$q$r$s$t$u$v$w$x$y$z$A$B$C$D$E$F$G$H$I$J$K$L$M$N$",
"O$P$Q$R$S$T$U$V$W$X$Y$Z$`$ %.%+%@%#%$%%%&%*%=%-%;%>%,%'%)%!%~%{%",
"]%^%/%(%_%:%<%[%}%|%1%2%3%4%5%6%7%8%9%0%a%b%c%d%e%f%g%h%i%j%k%l%",
"m%n%o%p%q%r%s%t%u%v%w%x%y%z%A%B%C%D%E%F%G%H%I%J%K%L%M%N%O%P%Q%R%",
"S%T%U%V%W%X%Y%Z%`% &.&+&@&#&$&%&&&*&=&-&;&>&,&'&)&!&~&{&]&^&/&(&",
"_&:&<&[&}&|&1&2&3&4&5&6&7&8&9&0&a&b&c&d&e&f&g&h&i&j&k&l&m&n&o&p&",
"q&r&s&V%t&u&v&w&x&y&z&A&B&C&D&E&F&G&H&I&J&K&L&M&N&O&P&Q&R&S&T&U&",
"V&W&X&Y&Z&`& *.*+*@*#*$*%*&***=*-*;*>*,*'*)*(#C&!*~*{*]*^*/*(*_*",
":*<*[*}*|*1*2*3*4*5*6*7*8*9*0*a*b*c*d*e*f*g*h*i*j*k*l*m*n*o*p*q*",
"r*s*t*u*v*w*x*y*z*A*B*C*D*E*F*G*H*I*J*K*L*M*N*O*P*Q*R*S*T*U*V*W*",
"X*Y*Z*`* =.=+=@=#=$=%=&=*===>$-=;=>=,='=)=!=~={=]=^=/=(=_=:=<=[=",
"}=|=1=2=3=4=5=6=7=8=9=0=a=b=c=d=e=f=g=h=i=j=k=l=m=n=o=p=q=r=s=t=",
"u=v=w=x=y=z=A=B=C=D=E=F=G=H=I=J=K=L=M=N=O=P=Q=R=S=T=U=V=W=X=Y=Z=",
"`= -.-+-@-#-$-%-&-*-=---;->-,-'-)-!-~-~-{-]-^-/-(-_-:-<-[-}-|-1-",
"2-3-4-5-6-7-8-9-0-a-b-c-d-e-f-g-h-i-j-k-l-m-n-o-p-q-r-s-t-u-v-w-",
"x-y-z-A-B-C-D-E-F-G-H-I-J-K-L-M-N-O-P-Q-R-S-T-U-V-W-X-Y-Z-`- ;.;"};
