/* XPM */
static char * trasharrow_xpm[] = {
"44 22 186 2",
"  	c None",
". 	c #4D4D4D",
"+ 	c #2A2A2A",
"@ 	c #666666",
"# 	c #505050",
"$ 	c #383838",
"% 	c #818181",
"& 	c #595959",
"* 	c #6A6A6A",
"= 	c #6B6B6B",
"- 	c #626262",
"; 	c #E1E1E1",
"> 	c #F7F7F7",
", 	c #DEDEDE",
"' 	c #696969",
") 	c #6D6D6D",
"! 	c #717171",
"~ 	c #3C3C3C",
"{ 	c #9A9A9A",
"] 	c #B2B2B2",
"^ 	c #A7A7A7",
"/ 	c #25253E",
"( 	c #000001",
"_ 	c #373737",
": 	c #A0A0A0",
"< 	c #EBEBEB",
"[ 	c #F6F6F6",
"} 	c #FBFBFB",
"| 	c #D9D9D9",
"1 	c #BABABA",
"2 	c #BCBCBC",
"3 	c #585858",
"4 	c #151515",
"5 	c #8C8C8C",
"6 	c #C0C0C0",
"7 	c #B3B3B3",
"8 	c #A2A2A2",
"9 	c #939393",
"0 	c #3C3C57",
"a 	c #010106",
"b 	c #484848",
"c 	c #909090",
"d 	c #B4B4B4",
"e 	c #B8B8B8",
"f 	c #DADADA",
"g 	c #E4E4E4",
"h 	c #F2F2F2",
"i 	c #E8E8E8",
"j 	c #E0E0E0",
"k 	c #7B7B7B",
"l 	c #868686",
"m 	c #8D8D8D",
"n 	c #777777",
"o 	c #7F7FAE",
"p 	c #66668F",
"q 	c #8E8E8E",
"r 	c #DCDCDC",
"s 	c #D7D7D7",
"t 	c #AFAFAF",
"u 	c #A8A8A8",
"v 	c #9C9C9C",
"w 	c #767676",
"x 	c #7C7C7C",
"y 	c #747474",
"z 	c #444444",
"A 	c #7B7BAA",
"B 	c #DEDEFE",
"C 	c #585877",
"D 	c #010104",
"E 	c #6C6C6C",
"F 	c #8A8A8A",
"G 	c #C2C2C2",
"H 	c #CDCDCD",
"I 	c #D8D8D8",
"J 	c #ADADAD",
"K 	c #A5A5A5",
"L 	c #848484",
"M 	c #727272",
"N 	c #303030",
"O 	c #000000",
"P 	c #8383B4",
"Q 	c #FFFFFF",
"R 	c #9797CA",
"S 	c #4E4E6D",
"T 	c #020209",
"U 	c #9F9F9F",
"V 	c #C3C3C3",
"W 	c #8B8B8B",
"X 	c #838383",
"Y 	c #686868",
"Z 	c #434343",
"` 	c #3A3A3A",
" .	c #A5A5DC",
"..	c #525271",
"+.	c #BEBEBE",
"@.	c #CCCCCC",
"#.	c #BBBBBB",
"$.	c #999999",
"%.	c #404040",
"&.	c #8080AF",
"*.	c #8888B9",
"=.	c #E9E9E9",
"-.	c #A4A4A4",
";.	c #C6C6C6",
">.	c #969696",
",.	c #9E9E9E",
"'.	c #878787",
").	c #3D3D3D",
"!.	c #8C8CBD",
"~.	c #7979A6",
"{.	c #6F6F9C",
"].	c #515170",
"^.	c #C5C5C5",
"/.	c #989898",
"(.	c #424242",
"_.	c #3E3E3E",
":.	c #7D7DAC",
"<.	c #7979A8",
"[.	c #6D6D9A",
"}.	c #50506F",
"|.	c #050510",
"1.	c #454562",
"2.	c #606083",
"3.	c #8989BA",
"4.	c #7E7EAD",
"5.	c #6D6D98",
"6.	c #4F4F6E",
"7.	c #7E7E7E",
"8.	c #676767",
"9.	c #3B3B3B",
"0.	c #090916",
"a.	c #353550",
"b.	c #5B5B7A",
"c.	c #6E6E9B",
"d.	c #7777A4",
"e.	c #7F7F7F",
"f.	c #9B9B9B",
"g.	c #353535",
"h.	c #2A2A43",
"i.	c #595978",
"j.	c #7676A3",
"k.	c #9A9ACF",
"l.	c #828282",
"m.	c #646464",
"n.	c #333333",
"o.	c #0A0A17",
"p.	c #2C2C45",
"q.	c #72729F",
"r.	c #9696C9",
"s.	c #101021",
"t.	c #C7C7C7",
"u.	c #636363",
"v.	c #363636",
"w.	c #2D2D46",
"x.	c #545473",
"y.	c #444461",
"z.	c #020207",
"A.	c #CBCBCB",
"B.	c #C8C8C8",
"C.	c #898989",
"D.	c #9D9D9D",
"E.	c #858585",
"F.	c #2E2E2E",
"G.	c #282841",
"H.	c #494966",
"I.	c #3D3D5A",
"J.	c #E7E7E7",
"K.	c #F9F9F9",
"L.	c #BFBFBF",
"M.	c #AAAAAA",
"N.	c #5C5C5C",
"O.	c #414141",
"P.	c #2C2C2C",
"Q.	c #070712",
"R.	c #30304B",
"S.	c #A9A9A9",
"T.	c #D1D1D1",
"U.	c #B9B9B9",
"V.	c #565656",
"W.	c #525252",
"X.	c #000003",
"Y.	c #575757",
"Z.	c #555555",
"`.	c #5A5A5A",
" +	c #4E4E4E",
".+	c #05050E",
"              . . . .                                                                   ",
"        + + + @ # $ % & * = -                                                           ",
"    + + ; > , ' $ ) ! ~ { ] ^ + +                             / (                 / (   ",
"  _ : < [ } | 1 ] 2 3 4 5 6 7 8 9 +                         / 0 a               / 0 a   ",
"  b c d e f g h i j k l c m n 3 . +                       / o p a             / o p a   ",
"  ~ q r s t t u v v w k x % y . z +                     / A B C D           / A B C D   ",
"    + E F G H I : 8 ^ J K L M N N O                   / P Q R S T         / P Q R S T   ",
"    + U V E E F W m k X l 5 Y Z `                   / P Q  .P ..O       / P Q  .P ..O   ",
"    + F +.g @.d #.v $.U U l Y %.~                 / &.Q  .*.A ..O     / &.Q  .*.A ..O   ",
"    + F +.=.q -.;.k >.,.* '.' %.).              / !.Q  .!.~.{.].O   / !.Q  .!.~.{.].O   ",
"    + F +.=.q -.^.x /.U * l ' (._.            / :.B  .*.<.[.[.}.O / :.B  .*.<.[.[.}.O   ",
"    + F +.=.q -.^.k /.U * l Y ).).            |.1.2.[.3.4.5.5.6.O |.1.2.[.3.4.5.5.6.O   ",
"    + F +.=.q -.;.7.$.U * l 8.9.`               0.a.b.c.3.4.d.6.O   0.a.b.c.3.4.d.6.O   ",
"    + F +.=.q -.;.e.f.U * l 8.g.`                 0.h.i.j.k.4.S O     0.h.i.j.k.4.S O   ",
"    + F +.=.q -.;.l.f.U * l m.n.`                   o.p.b.q.r.6.s.      o.p.b.q.r.6.s.  ",
"    + m +.=.q -.t.l v U * l u.v.`                     0.w.x.b.y.z.        0.w.x.b.y.z.  ",
"    + K A.=.q K B.C.D.U * E.* F._                       0.G.H.I.D           0.G.H.I.D   ",
"    + ;.J.K.1 L.B./.M.,.l.x N.O.P.                        Q.p.R.D             Q.p.R.D   ",
"      O.+ S.A.T.U.^ M.c u.V.W.+ O                           |./ X.              |./ X.  ",
"          + Y.N.Z.Y.`. +(.+ O                                 .+O                 .+O   ",
"                                                                                        ",
"                                                                                        "};
